<?xml version="1.0" encoding="UTF-8"?>
<!DOCTYPE svg PUBLIC "-//W3C//DTD SVG 1.1//EN" "http://www.w3.org/Graphics/SVG/1.1/DTD/svg11.dtd">
<!-- Creator: CorelDRAW 2018 (64-Bit) -->
<svg xmlns="http://www.w3.org/2000/svg" xml:space="preserve" width="46.6691mm" height="47.857mm" version="1.1" style="shape-rendering:geometricPrecision; text-rendering:geometricPrecision; image-rendering:optimizeQuality; fill-rule:evenodd; clip-rule:evenodd"
viewBox="0 0 319.37 327.5"
 xmlns:xlink="http://www.w3.org/1999/xlink">
 <defs>
  <style type="text/css">
   <![CDATA[
    .fil20 {fill:#312E2F}
    .fil26 {fill:#413F41}
    .fil21 {fill:#454546}
    .fil6 {fill:#552A14}
    .fil30 {fill:#576F44}
    .fil18 {fill:#59270C}
    .fil24 {fill:#5C5B5C}
    .fil0 {fill:#6B300D}
    .fil19 {fill:#6B6B6B}
    .fil27 {fill:#6F706F}
    .fil29 {fill:#747373}
    .fil28 {fill:#83837D}
    .fil23 {fill:#8D8C8A}
    .fil22 {fill:#959492}
    .fil4 {fill:#98857A}
    .fil16 {fill:#999896}
    .fil15 {fill:#A69D95}
    .fil12 {fill:#ADACAB}
    .fil25 {fill:#AEB1AB}
    .fil17 {fill:#B4A79C}
    .fil13 {fill:#B4ADA5}
    .fil10 {fill:#B9B4AA}
    .fil9 {fill:#DCD3C3}
    .fil11 {fill:#ECE3D4}
    .fil7 {fill:#F2E6D3}
    .fil14 {fill:#F3E9D5}
    .fil1 {fill:#F5EBDB}
    .fil5 {fill:#F6ECDD}
    .fil8 {fill:#F9F2E4}
    .fil2 {fill:#FAF5E9}
    .fil3 {fill:#FAF6EB}
   ]]>
  </style>
 </defs>
 <g id="Warstwa_x0020_1">
  <metadata id="CorelCorpID_0Corel-Layer"/>
  <path class="fil0" d="M82.38 260.91c-0.5,-2.48 8.34,-16.89 9.66,-23.21 -1.57,2.58 -4.05,-3.81 0.27,15.93 -9.12,2.02 -7.14,-1.06 -9.93,7.28zm-23.95 8.2l-2.56 3.95c-4.43,8.25 -2.23,4.79 -9.78,10.48 -4.59,3.46 -6.02,4.14 -8.93,8.89l-2.81 0.91c-4.12,4.43 -4.99,4.48 -11.24,7.55 -4.07,2 -7.53,3.64 -12.06,5.78 -5.82,1.99 -1.18,-0.03 -3.5,8.28 17.64,-0.71 28.86,-8.33 36.83,-16.29 15.2,-15.19 3.88,0.74 36.85,-16.87l5.99 -1.03c6.79,-7.26 7.19,-1.61 14.41,-11.02l-9.77 2.29c-7.46,-0.58 -3.44,0.38 -6.91,-2.94 4.17,-8.03 7.29,-8.8 16.88,-13.71l0.06 -1.34c-9.69,-2.65 -3.44,-0.02 -4.91,-4.55 -5.02,2.68 -3.2,2.6 -2.8,-3.37l-0.04 -11.26 -3.4 -4.36 0.43 0.04c-5.14,0 -4.54,1.35 -2.83,-3.3l-3.64 0.56c-4.51,7.29 -6.61,18.69 -11,25.5 -3.18,4.94 -10.24,15.08 -15.25,15.81z"/>
  <path class="fil1" d="M173.75 43.64l-2.45 1.45c-0.84,14.63 -12.87,13.2 -24.68,9.35l-0.65 4.97 -0.2 6.39c6.2,2.4 2.68,-3.78 6.27,5.9l-1.13 10.76 0.1 10.55 1.49 0.58c8.87,3.21 3.16,0.23 4.17,4.66 4,-1.15 3.42,-2.23 3.01,1.62l12.04 1.35 4.43 -6.93c2.92,-5.46 -0.05,-1.18 2.6,-4.86l-0.51 -5.16c-2.75,-8.82 3.15,-5.64 12.73,-5.88 -4.07,-11.72 1.53,-16.85 6.67,-24.4 16.51,-0.1 17.99,5.59 34.24,0.25l6.23 -1.5c-5.79,2.99 -19.74,1.53 -27.62,-0.32l-8.33 -3.01c4.37,-6.01 3.11,-2.59 8.17,-9.4 -10.79,2.77 -15.84,6.39 -25.74,-1.25 5.17,8.7 5.82,6.63 -0.39,15.78 -8.13,0.61 -8.48,-3.65 -10.45,-10.9z"/>
  <path class="fil2" d="M189.03 3.85c0.73,4.27 1.16,2.85 -3.42,1.56 -0.97,4.09 3.93,1.8 -3.07,4.14 -1.38,7.57 -0.01,2.39 -3.82,3.41 1.22,4.96 2,4.12 -2.69,2.1 -2.64,2.46 2.93,0.86 -6.51,3.68 -2.58,0.77 -5.21,0.4 -6.09,0.46 -2.3,3.91 2.82,0.34 -3.48,4.89l12.67 -0.97c-3.24,7.49 -2.09,1.95 -2.51,9.35 -0.26,4.59 0.96,8.56 1.17,12.63l2.45 -1.45 0.9 -10.39c0.17,-0.53 0.71,-1.32 0.88,-1.73 0.17,-0.42 0.64,-1.14 1.01,-1.67l8.05 8.92c9.9,7.64 14.95,4.02 25.74,1.25 2.2,-3.22 20.03,-13.92 11.13,-30.52 -6.65,-11.07 -7.97,-3.79 -23.67,-7.66l-4.13 -1.83c-1.9,4.69 3.55,3.7 -4.62,3.85z"/>
  <path class="fil2" d="M190.95 78.39c4.7,29.57 51.77,13.59 40.91,-24.15 -16.25,5.34 -17.72,-0.34 -34.24,-0.25 -5.14,7.55 -10.74,12.68 -6.67,24.4z"/>
  <path class="fil3" d="M31.55 100.1l-4.15 1.48 -2.63 -1.13 1.6 3.18c-1,2.41 -0.99,3.06 -2.48,5.29 -2.55,3.82 -2.15,2.42 -4.57,4.59l2.27 17.99c8.99,3.1 18.16,4.67 26.3,-0.44 16.28,-10.22 8.16,-13.33 13.44,-17.88 4.64,-10.26 2.36,-4.17 2.82,-12.39l-1.31 -0.17 -10.25 -0.53c-8.18,-5.74 -5.1,-6.14 -16.39,-5.62 -0.35,7.02 1.67,5.62 -4.66,5.62z"/>
  <path class="fil0" d="M178.96 114.58c9.05,17.52 15.97,4.4 19.7,19.56 -15.56,2.09 -4.07,2.7 -20.96,-15.6 3.21,-4.12 2.58,-1 1.27,-3.95zm-1.92 -13.97c-1.39,16.39 1.12,-2.6 -0.64,6.14l-2.27 3.95c-12.92,-3.52 -2.45,0.07 -6.88,-4.94 -6.66,-2.21 -3.31,0.4 -7.56,-5.9 -4.73,1.99 -4.35,3.32 -3.01,-1.62l-4.51 -1.29 -0.2 1.54 6.13 12.67c7.15,5.4 3.72,7.29 11.38,8.25 5.54,5.39 8.57,8.97 12.12,16.98 5.31,11.98 2.11,12.54 16.63,11.16l9.13 -0.72c1.31,-9.61 4.22,-7.1 6.84,-8.12 -9.2,-4.09 -3.18,0.9 -5.46,-9.17l11.86 -1.89c4.76,-1.87 3.25,-1.99 5.82,-5.5l-6.42 0.13 -7.27 0.76c-2.32,0.02 -7.81,0.39 -9.78,0 -9.63,-1.89 -4.54,0.23 -8.04,-4.41 -3.37,-0.88 -1.37,0.92 -5.15,-2.95 -0.16,-0.17 -3.82,-6.02 -3.82,-6.03 -3.17,-7.02 -3.08,-6.11 -1.57,-13.27 -4.47,-2.29 -3.24,1.45 -4.35,-2.48l-3 6.69z"/>
  <path class="fil4" d="M262.45 109.77c2.39,-8.19 -2.53,8.66 0,0zm-15.14 -18.46c-3.1,4.73 0.12,1.32 -4.56,2.62 -0.95,2.51 -0.92,4.33 -1.03,5.58l-9.36 1.11c-5.06,6.62 -6.91,2.05 -10.81,8.47 -2.59,4.25 -0.75,1.54 -1.11,6.79 -0.43,6.3 1.91,-5.73 -0.44,6.42l6.42 -0.13c5.29,-10.01 -0.21,-2.57 5.5,-4.02 2.52,-5.21 0.29,-3.02 4.8,-7.61l3.2 -7.13c0.7,-0.26 1.61,-0.49 2.15,-0.64 26.11,-7.31 2.68,-10.09 21.6,-15.05 0.4,15.73 1.47,17.31 -15.31,29.11l-3.62 1.94c-2.65,4.28 0.37,-0.4 -3.73,4.6 -3,3.66 -2.01,2.04 -4.23,5.71l6.04 2.09c7.35,-4.1 13.23,-8.08 19.86,-10.98l7.39 -8.67 -0.3 0.65 3.35 -28.19 -2.29 -7.76 -0.82 -12.79 0.54 -4.32c-4.88,0 -3.62,-1.28 -4.25,3.29l1.46 19.58c-4.09,-8.77 -0.53,-2.64 -6.75,-5.72 -0.67,0.55 -1.46,1.2 -1.96,1.7l-11.75 13.36z"/>
  <path class="fil5" d="M97.16 172.53c-3.21,3.19 -2.66,3.09 -4.85,6.14 5.63,2.1 5.54,4.72 7.31,7.06l11.14 -2.7 11.79 -7.07 1.21 7.89c0.67,0.63 5.11,4.43 6.7,6 2.56,2.52 2.81,4.19 5.95,5.05l-10.29 0.29 -8.33 7.82c16,-4.73 11.7,-4.68 28.6,-0.61 0.26,12.31 2.87,14.18 -17.94,21.45 -4.38,1.53 2.6,2.84 -10.16,1.58l0 3.16c27.96,6.36 16.28,1.04 29.04,4.29 2.13,-2.41 1.24,-2.14 1.71,-3.93 2.69,-9.83 7.46,-26.84 -2.28,-30.41 3.08,-2.46 1.72,-0.7 5.05,-5.07 2.81,-3.69 0.82,-1.14 3.5,-5.96 -6.7,1.94 -9.76,5.58 -15.68,2.18l-10.14 -10.67c-4.41,-0.18 -0.22,3.44 -3.7,-1.66l0.43 -8.29c-8.78,1.24 -9.18,2.26 -17.01,1.33l-12.06 2.13z"/>
  <path class="fil6" d="M77.54 108.48c4,3.61 2.75,-5.64 3.64,8.6 0.17,2.69 -1.32,7.65 -1.71,8.76 -1.35,3.8 -4.49,10.24 -6,14.22l8.88 1.29 0.02 -12.27c-0.4,0.97 2.69,28.6 4.6,33.15l-0.7 -13.82c0.82,-12.77 1.05,-4.83 3.08,-7.97 0.34,-0.44 0.88,-1.7 1.03,-1.32 0.15,0.38 0.79,-1.07 1,-1.31 8.11,-9.4 15.26,-13.54 26.83,-19.13l0.26 0.06 2.31 -4.83c1.9,-6.67 -2.72,-2.4 4.84,-4.28l-0.42 -3.39 -0.91 -4.19 -8.74 1.09 -4.19 2.32 0.36 5.52c-4.93,1.22 -0.72,-1.32 -7.14,2.92l-3.34 2.43c-5.5,1.48 -1.25,0.88 -6.79,0.77l-5.22 -8.04 -0.32 -2.31 -1.69 -2.27c-7.49,1.16 -3.17,1.62 -5.32,-2.74l-3.79 -0.18 -0.57 6.93z"/>
  <path class="fil7" d="M190.95 78.39c-9.58,0.24 -15.48,-2.95 -12.73,5.88l8.16 -1.21c8.23,20.53 11.68,15.08 44.42,16.43 1.5,-10.18 8.84,-17.17 15.06,-21.59 0.24,-14.62 2.51,-15.68 -7.77,-25.16l-6.23 1.5c10.86,37.75 -36.21,53.72 -40.91,24.15z"/>
  <path class="fil8" d="M87.39 179.98c1.22,4.74 1.86,3.72 -2.78,2.06 0.49,4.06 1.29,3.28 -2.65,2.05l1.82 3.83c1.52,22.55 -1.39,10.18 8.84,20.26 7.25,7.15 -1.57,2.51 14.07,12.99l4.33 3.14 4.46 0.53c-4.26,-3.04 -1.69,-2.23 -3.8,-6.44 2.49,-8.18 1.05,-2.01 3.5,-7.92 1.92,-4.62 1.78,-3.09 2.62,-7.46 -7.79,-0.16 -9.55,-3.01 -13.3,-8.76 2.42,-6.48 3.42,-6.35 6.27,-11.23l-11.14 2.7c-1.77,-2.34 -1.68,-4.96 -7.31,-7.06l-2.69 -1.39c2.24,4.89 2.99,4 -2.23,2.7z"/>
  <path class="fil3" d="M34.27 51.95c0.91,4.88 1.47,3.69 -3.1,1.59l-1.45 6.96 0.78 6.45 -2.22 12.61c10.95,0.81 9.69,2.69 21.46,2.17 8.91,-11.75 10,-11.18 10.06,-32.37l-16.25 1.1 -5.1 -0.2 -0.64 -0.67c0,4.5 1,3.49 -3.54,2.36z"/>
  <path class="fil7" d="M89.75 74.84c-19.29,20.99 -2.46,17.97 -17.03,22.68l-1.62 -7c-3,-12.41 -4.42,-15.04 0.39,-26.89 -3.05,-9.07 3.07,-3.92 -8.41,-6.96 -1.36,7.04 -2.2,8.31 -2.41,16.98 8.41,-1.49 3.94,0.12 6.72,10.23 1.52,5.53 2.03,8.2 2.66,13.81 -3.58,3 -0.92,1.76 -7.19,2.93l1.31 0.17 6.67 7.37c0.41,0.42 1.11,1.08 1.7,1.59l-0.72 -8.11 6.3 -0.09 3.79 0.18 5.32 2.74c4.37,-7.36 0.92,-4.26 1.32,-5.24 3.06,-7.43 22.26,-12.62 15.8,-40.04 -1.12,-4.75 -1.24,-3.71 -2.86,-6.09 0.38,13.39 -0.64,20.36 -11.74,21.74z"/>
  <path class="fil2" d="M71.49 63.63c-4.81,11.85 -3.39,14.48 -0.39,26.89 7.36,1.84 1.29,1.26 5.07,-2.48 1.39,-9.91 1.32,-12.08 13.59,-13.2 11.1,-1.38 12.12,-8.36 11.74,-21.74 -3.39,-4.97 -5.73,-5.41 -12.12,-6.81 -3.85,4.35 -5.33,5.01 -9.51,8.28 -3.1,2.43 -5.51,3.58 -8.38,9.06z"/>
  <path class="fil9" d="M89.37 46.28c6.39,1.4 8.72,1.84 12.12,6.81 1.62,2.38 1.74,1.34 2.86,6.09 6.46,27.42 -12.74,32.61 -15.8,40.04 -0.41,0.99 3.05,-2.12 -1.32,5.24l1.69 2.27 8.03 0.96c10.81,-15.64 14.09,-11.13 12.24,-48.63l3.75 -2.68c2.1,-2.86 0.85,1.56 1.42,-3.74l0.58 -2.63 1.24 -0.01c-11.36,-4.16 -13.63,-7.57 -28.91,-6.89 -10.47,0.46 -20.94,1.52 -31.42,2.01l-4.83 0.25 -6.8 2.15c13.49,4.39 30.79,1.59 45.16,-1.24z"/>
  <path class="fil10" d="M88.91 106.74l0.32 2.31 3.45 2.32c5.54,4.02 2.02,3.34 11.9,2.51 6.42,-4.24 2.21,-1.7 7.14,-2.92l-0.36 -5.52 2.58 -20.84 13.04 -0.94 0.05 -14.56c-1.08,-9.51 -4.43,-13.03 -12.68,-16.44 -0.56,5.3 0.69,0.88 -1.42,3.74l-3.75 2.68c1.85,37.5 -1.43,32.99 -12.24,48.63l-8.03 -0.96z"/>
  <path class="fil9" d="M210.47 52.42c7.88,1.85 21.83,3.31 27.62,0.32 10.28,9.48 8.01,10.54 7.77,25.16 -6.22,4.41 -13.56,11.41 -15.06,21.59l11.95 -5.56 8.45 -7.77c1.29,-12.07 -1.62,-22.98 -5.7,-33.39l-8.05 -2.02 -21.21 -0.07c7.42,-9.73 13.42,-11.09 23.78,-16.65l4.11 -14.66c6.51,1.1 4.7,-0.33 8.58,4.59l-0.01 -7.56c-9.39,-0.81 -6.65,-2.05 -17.55,-3.99l0.13 19.33 -24.13 14.1 -0.66 6.56z"/>
  <path class="fil4" d="M147.33 232.89l-0.63 1.61 -6.38 8.05 4.48 4.68c4.55,4.67 1.89,-1.37 3.66,4.6 5.36,-2.39 4.4,-2.36 8.95,-4.55 2.53,-5.38 -1.67,-3.95 7.05,-7.46 3.41,4.1 1.75,-4.79 3.4,5.29 1.16,7.09 0.57,2.78 -1.18,9.48 6.28,-10.8 4.16,-13.17 8.42,-28.81 0.19,-0.7 0.38,-1.42 0.56,-2.05 0.18,-0.62 0.5,-1.48 0.65,-1.98 0.15,-0.5 0.41,-1.33 0.7,-1.96 0.56,-8.23 0.31,-7.79 -3.05,-12.83 -11.93,-0.36 -7.16,4.21 -11.72,14.21 -2.23,4.88 -6.86,13.21 -14.91,11.73z"/>
  <path class="fil11" d="M155.31 187.51c-2.68,4.82 -0.68,2.28 -3.5,5.96 -3.34,4.37 -1.97,2.62 -5.05,5.07 9.73,3.57 4.97,20.58 2.28,30.41 4.27,-3.32 1.18,0.03 4.66,-4.28 0.57,-0.71 3.35,-5.53 3.51,-5.93 2.98,-7.05 0.52,-8.51 5.23,-12.43 3.66,-9.03 0.31,-0.16 2.22,-9.66 1.38,-6.85 -1.42,-1.38 2.22,-7.5 1.06,-11.43 1.95,-11.03 -2.14,-23.57 2.69,0.52 7.83,1.64 9.25,2.22 4.95,2.01 1.95,1.37 3.73,3.7l3.46 -0.7c-4.29,-2.94 -1.25,-2.31 -3.41,-5.52l0.81 -2.08c-3.98,-0.75 -5.48,0.12 -3.89,-5.61 -10.81,-6.47 -20.02,-5.37 -35.55,-3.7l1.22 2.6 19 1.53c1.28,15.97 6.38,8.77 5.48,25.21 -4.31,2.93 -4.32,3.81 -9.53,4.26z"/>
  <path class="fil5" d="M79.04 197.46c-2.22,10.25 -0.16,11.91 1.37,20.86 5.71,4.63 2.43,1.83 3.41,5.96 4.47,0.5 2.29,-4.27 4.5,2.96 4.21,-0.83 2.83,-1.44 2.83,3.3l-0.43 -0.04c5.32,-0.05 3.9,-1.25 3.4,4.36l0.04 11.26 3.44 -0.58c6.89,3.78 1.85,3.5 8.91,-0.57 1.38,-4.05 -1.4,-1.02 -2.14,-6.05 -0.4,-2.74 0.13,-3.34 0.13,-4.76l-0.12 -6.2c-0.03,-0.58 -0.15,-1.55 -0.3,-2.31 1.29,1.05 -3.96,7.58 6.92,-1.35l-4.33 -3.14c-15.64,-10.48 -6.82,-5.84 -14.07,-12.99 -10.23,-10.08 -7.32,2.29 -8.84,-20.26 -5.03,3.22 -5.42,1.57 -4.74,9.54z"/>
  <path class="fil6" d="M236.72 110.54c-4.51,4.59 -2.28,2.4 -4.8,7.61 6.66,0.07 1.77,-2.85 3.72,1.27 -6.86,4.89 -4.42,10.95 -15.05,8.25l-11.86 1.89c2.27,10.07 -3.74,5.08 5.46,9.17 -2.62,1.03 -5.53,-1.49 -6.84,8.12 5.3,-0.95 42.9,-8.45 47.7,-11.33l0.91 -3.01c-7.2,4.37 -1.5,2.81 -7.22,2.78 -9.53,-0.06 -2.14,2.53 -5.91,-4.11l-6.04 -2.09c2.22,-3.68 1.23,-2.05 4.23,-5.71 4.1,-5 1.08,-0.33 3.73,-4.6 1.85,-7.48 1.08,-4.84 -0.6,-11.7l-7.43 3.47z"/>
  <path class="fil3" d="M117.79 203.02c-0.84,4.37 -0.7,2.84 -2.62,7.46 -2.45,5.91 -1.01,-0.26 -3.5,7.92 2.12,4.21 -0.45,3.4 3.8,6.44l1.34 0.37 1.49 0.22c12.75,1.27 5.78,-0.05 10.16,-1.58 20.81,-7.27 18.2,-9.14 17.94,-21.45 -16.9,-4.07 -12.6,-4.12 -28.6,0.61z"/>
  <path class="fil12" d="M203.5 203.02l-1.64 9.71 -7.62 0.77c-3.59,-0.98 -2.82,-0.42 -5.97,-1.81l-3.7 -2.38 -1.24 4.8 -0.11 22.73c0.91,-8.67 -0.95,0.2 5.98,-3.95 9.81,1.7 12.56,-1.91 17.75,-6.9l7 -10.02c0.99,-9.95 3.43,-17.5 -3.11,-25.34l-0.26 13.28 -5.36 -0.07c-0.23,-0.67 -1.14,-0.55 -1.71,-0.82z"/>
  <path class="fil2" d="M134.22 159.21l-0.32 3.65 8.81 -3.84c-0.47,9.43 7.11,7.95 4.83,18.33 -12.48,5.46 -3.77,0.81 -18.05,1.67l10.14 10.67c5.92,3.4 8.98,-0.24 15.68,-2.18 5.21,-0.45 5.22,-1.33 9.53,-4.26 0.9,-16.44 -4.2,-9.24 -5.48,-25.21l-19 -1.53 -2.66 -0.69c0,5.59 1.55,4.95 -3.47,3.4z"/>
  <path class="fil5" d="M30.5 66.95l-3.85 0 0.25 3.03 -0.02 8.81 9.79 8.6c0.23,0.33 0.89,1.16 1.1,1.45 0.23,0.32 0.79,1.06 1.17,1.6 -4.7,0.21 -0.85,-1.08 -2.72,4.04 11.29,-0.53 8.2,-0.13 16.39,5.62 -3.2,-18.43 -0.97,-3.77 0.97,-8.53 0.29,-0.73 3.9,-5.23 4.59,-6.28 3.81,-5.79 4.12,-4.39 2.51,-11.63 0.21,-8.67 1.06,-9.95 2.41,-16.98 11.47,3.04 5.36,-2.1 8.41,6.96 2.87,-5.49 5.28,-6.63 8.38,-9.06 4.18,-3.28 5.65,-3.93 9.51,-8.28 -14.37,2.84 -31.67,5.63 -45.16,1.24l-0.67 2.94 16.25 -1.1c-0.06,21.18 -1.14,20.62 -10.06,32.37 -11.77,0.52 -10.5,-1.36 -21.46,-2.17l2.22 -12.61z"/>
  <path class="fil6" d="M111.38 258.3c-2.9,6.07 0.76,4.22 -9.6,8.22 -2.8,1.08 -3.01,0.75 -5.6,2.05 -3.23,1.62 -2.53,1.78 -4.31,3.47l9.77 -2.29c-7.23,9.41 -7.62,3.76 -14.41,11.02 11.11,-2.07 17.88,-7.05 28.6,-5.95 5.95,-4.56 0.23,-2.94 9.29,-3.09 7.19,-7.86 11.55,1.08 22.03,-3.35l5.41 -4.91c-3.71,-7.81 1.11,-2.14 -6.81,-7.09l-6.75 -0.45c-0.89,3.79 5.14,1.9 -5.28,3.72 -3.9,0.68 -4.35,0 -7.64,-0.22 -5.18,-0.35 -8.98,-1.02 -14.67,-1.12z"/>
  <path class="fil6" d="M11.05 306.67l-9.57 1.6 -1.48 0.32 3.36 13.08 0.86 2.21 5.52 3.62 17.46 -5.63c3.43,-6.29 -0.27,-1.02 3.78,-5.37l13.27 -10.57c9.46,-6.66 8.68,-10.35 22.43,-11.63l7.87 -5.78c9.57,-4.45 2.7,-0.18 6.68,-6.73 -32.97,17.61 -21.65,1.69 -36.85,16.87 -7.97,7.96 -19.19,15.58 -36.83,16.29 2.32,-8.31 -2.33,-6.29 3.5,-8.28z"/>
  <path class="fil13" d="M237.45 50.75c1.66,-9.87 -1,-6.23 12.86,-7.93l3.97 -0.15c7.61,0.12 1.3,-0.88 6.76,1.07l3.45 15.12 6.59 0.21 2.46 -7.23c-11.36,7.28 -6.95,2.15 -11.5,-12.02 -5.35,-16.7 -9.83,1.79 -9.34,-15.85 -3.88,-4.92 -2.07,-3.49 -8.58,-4.59l-4.11 14.66c-10.36,5.57 -16.36,6.92 -23.78,16.65l21.21 0.07z"/>
  <path class="fil4" d="M70.51 121.84c-0.38,0.41 -0.89,1.04 -1.1,1.24 -0.2,0.18 -0.93,0.87 -1.12,1.05 -0.31,0.27 -1.57,1.03 -2.31,1.34 -2.57,11.85 -2.19,11 -13.98,14.64 -2.82,0.81 -4.52,1.98 -8.26,1.75 -12.27,-0.76 -5.15,-0.19 -7.8,-3.6l-13.89 -0.18c3.73,5.05 -1.64,3.49 5.66,5.7l1.66 2.85 5.68 1.28c10.63,0.99 18.67,1.51 27.39,-1.29 0.42,-0.56 0.95,-2.17 1.21,-1.7 0.26,0.46 0.97,-1.28 1.33,-1.57 3.48,-2.85 1.28,-1.39 5.09,-3.34l3.41 0.06c1.51,-3.98 4.66,-10.41 6,-14.22 0.39,-1.1 1.87,-6.07 1.71,-8.76 -0.88,-14.24 0.36,-4.99 -3.64,-8.6 -0.26,9.36 1.62,14.94 -7.03,13.36z"/>
  <path class="fil14" d="M210.32 40.01c-5.06,6.81 -3.8,3.4 -8.17,9.4l8.33 3.01 0.66 -6.56 24.13 -14.1 -0.13 -19.33c-7,-0.41 -6.53,-3.56 -9.24,-12.11l-27.79 0.45 -0.33 1.07c15.7,3.86 17.01,-3.41 23.67,7.66 8.9,16.61 -8.93,27.3 -11.13,30.52z"/>
  <path class="fil9" d="M184.13 177.66c6.7,0.14 7.61,-0.26 11.4,4.99 5.25,7.29 3.01,2.3 3.17,12.34l-18.53 -0.98 3.96 -16.35zm-6.41 -6.16c2.42,7.74 -0.73,12.31 -0.79,23.74l0.38 2.72c10.11,0.76 17.69,1.71 26.67,-1.66l-0.47 6.73c0.57,0.28 1.48,0.16 1.71,0.82l5.36 0.07 0.26 -13.28 -3.01 -6.05c-6.15,0 -5.25,1.53 -3.29,-4.17l-4.07 -2.6 1.33 -3.77c-4.95,0.07 -9.12,-0.56 -12.18,-1.03 -6.51,-1.55 -4.93,-0.62 -6.61,-7.3l-5.23 -0.42c2.16,3.2 -0.88,2.58 3.41,5.52l-3.46 0.7z"/>
  <path class="fil15" d="M237.45 50.75l8.05 2.02c4.08,10.41 6.99,21.32 5.7,33.39 0.5,-0.25 5.44,2.54 5.53,-12.63 0.06,-9.05 -3.03,-7.31 -0.53,-14.03 7.3,3.8 6.07,7.59 9.16,14.16l0.96 -11.27c0.62,-4.56 -0.64,-3.29 4.25,-3.29l0.52 -0.03 -6.59 -0.21 -3.45 -15.12c-5.45,-1.94 0.85,-0.95 -6.76,-1.07l-3.97 0.15c-13.86,1.7 -11.21,-1.94 -12.86,7.93z"/>
  <path class="fil10" d="M178.73 89.43c4.47,-3.7 1.87,4.27 3.84,-2.83 0.28,-1 1.41,-0.8 2.67,-1.42l-0.87 11.23c-1.5,7.16 -1.6,6.25 1.57,13.27 0,0 3.65,5.86 3.82,6.03 3.78,3.87 1.78,2.07 5.15,2.95l9.26 0.59 -5.83 -15.47 19.24 -2.84 14.78 -0.3 9.36 -1.11c0.11,-1.24 0.08,-3.06 1.03,-5.58l-11.95 5.56c-32.74,-1.35 -36.19,4.1 -44.42,-16.43l-8.16 1.21 0.51 5.16z"/>
  <path class="fil16" d="M177.02 219.78c-0.29,0.63 -0.55,1.47 -0.7,1.96 -0.15,0.5 -0.47,1.36 -0.65,1.98 -0.18,0.63 -0.37,1.34 -0.56,2.05 -4.27,15.63 -2.14,18.01 -8.42,28.81l-3.22 0.68 -1.34 0.46c0,6.41 1.61,4.09 9.57,3.22 2.72,-2.85 6.59,-3.94 9.47,-6.78 3.24,-3.18 2.34,-3.18 3.87,-5.61l4.33 -6.5 -0.18 -7.15c-6.93,4.15 -5.07,-4.72 -5.98,3.95l0.11 -22.73c-8.76,3.66 -3.1,-1.86 -6.31,5.67z"/>
  <path class="fil17" d="M166.87 189.16c1.7,9.58 1.58,5.49 4.97,13.07l-9.41 4.09c-4.71,3.92 -2.25,5.38 -5.23,12.43 -0.17,0.39 -2.94,5.22 -3.51,5.93 -3.47,4.31 -0.39,0.96 -4.66,4.28 -0.46,1.8 0.42,1.52 -1.71,3.93 8.05,1.48 12.68,-6.85 14.91,-11.73 4.56,-10 -0.2,-14.57 11.72,-14.21 3.36,5.04 3.61,4.6 3.05,12.83 3.2,-7.53 -2.46,-2.01 6.31,-5.67l1.24 -4.8 0.07 -5.72c-12.97,-1.79 -3.27,0.61 -7.33,-5.63l-0.38 -2.72c-1.47,-11.62 3.88,-10.99 -7.63,-10.09l-2.43 4z"/>
  <path class="fil10" d="M252.7 23.96c-0.49,17.65 3.99,-0.85 9.34,15.85 4.54,14.18 0.14,19.3 11.5,12.02 2.1,-7.14 -0.23,-15.96 -1.46,-22.65 -5.78,-3.04 -5.09,-1.26 -7.64,-8.82 -1.2,-3.61 -1.13,-4.1 -2.18,-8.68l-4.41 0.9 2.19 7.85c-3.93,4.85 5.91,4.49 -7.33,3.52z"/>
  <path class="fil3" d="M148.52 27.96l2.4 1.73c-0.03,0.9 -0.27,1.2 -0.32,2.69l-0.62 12.2c0.83,0.14 2.06,-0.46 2.52,0.32 0.51,0.86 10.12,0.26 11.05,-7.46 0.75,-6.24 -0.66,-0.75 -1.5,-0.1l2.41 0.01c1.24,8.75 0.12,6.53 6.82,7.76 -0.22,-4.07 -1.44,-8.04 -1.17,-12.63 0.42,-7.39 -0.72,-1.86 2.51,-9.35l-12.67 0.97 -5.25 -1.35c-4.43,9.01 -0.08,2.55 -6.19,5.22z"/>
  <path class="fil8" d="M145.41 36.2c-0.16,12.05 0.52,4.55 -2.8,7.13l0.15 11.31 3.85 -0.19c11.82,3.85 23.84,5.28 24.68,-9.35 -6.69,-1.22 -5.58,0.99 -6.82,-7.76l-2.41 -0.01c0.83,-0.65 2.24,-6.14 1.5,0.1 -0.93,7.72 -10.54,8.32 -11.05,7.46 -0.46,-0.78 -1.68,-0.18 -2.52,-0.32l0.62 -12.2c0.05,-1.49 0.29,-1.78 0.32,-2.69 -3.51,2.47 -2.54,-2.83 -5.51,6.51z"/>
  <path class="fil11" d="M235.14 12.42c10.9,1.93 8.16,3.18 17.55,3.99l0.01 7.56c13.23,0.97 3.4,1.33 7.33,-3.52l-2.19 -7.85 0.55 -3.12 -0.9 -2.15 -5.54 -0.37c-5.6,0 -4.45,1.54 -4.45,-3.59l1.02 0.2 -22.63 -3.24c2.72,8.56 2.24,11.71 9.24,12.11z"/>
  <path class="fil6" d="M172.24 151.86l2.96 -0.26 -0.51 6 3.89 5.61c9.07,-1.91 3.92,-1.54 4.42,2.5l3.46 -0.57c0.38,-6.66 0.01,-6.23 3.72,-10.39 3.07,-3.44 1.02,-0.65 4.09,-3.38 3.45,-3.08 1.57,-1.3 3.96,-3.79 -14.52,1.39 -11.32,0.82 -16.63,-11.16 -3.55,-8 -6.58,-11.59 -12.12,-16.98 2.52,5.08 15.66,26.97 2.77,32.42z"/>
  <path class="fil18" d="M73.47 140.05l-3.41 -0.06 6.57 1.15 2.07 27.8c0.35,2.31 0.44,8.59 2.77,11.79l3.14 1.31c-0.49,-4.16 -1.29,-3.31 2.78,-2.06 -1.15,-4 -1.91,-3.11 2.23,-2.7l0.06 -4.05 -0.22 -3.77 -2.48 -7.24c-1.91,-4.55 -5,-32.18 -4.6,-33.15l-0.02 12.27 -8.88 -1.29z"/>
  <path class="fil3" d="M127.78 164.79c-1.16,4.74 1.38,2.47 -1.55,4.28l-0.43 8.29c3.47,5.1 -0.72,1.48 3.7,1.66 14.29,-0.86 5.57,3.79 18.05,-1.67 2.29,-10.38 -5.3,-8.9 -4.83,-18.33l-8.81 3.84c-2.03,0.52 -4.52,1.27 -6.13,1.93z"/>
  <path class="fil15" d="M212.73 123.06l7.27 -0.76c2.35,-12.15 0,-0.12 0.44,-6.42 0.36,-5.26 -1.47,-2.54 1.11,-6.79 3.9,-6.42 5.75,-1.85 10.81,-8.47l-14.78 0.3c-0.03,4.06 -4.18,-1.44 -13.84,6.43 4.69,12.02 5.5,5.99 8.99,15.71z"/>
  <path class="fil9" d="M52.6 100.1l10.25 0.53c6.27,-1.17 3.61,0.07 7.19,-2.93 -0.63,-5.61 -1.14,-8.28 -2.66,-13.81 -2.78,-10.11 1.68,-11.72 -6.72,-10.23 1.61,7.24 1.3,5.84 -2.51,11.63 -0.69,1.05 -4.29,5.56 -4.59,6.28 -1.94,4.76 -4.17,-9.9 -0.97,8.53z"/>
  <path class="fil11" d="M110.76 183.03c-2.84,4.88 -3.85,4.74 -6.27,11.23 3.75,5.75 5.51,8.6 13.3,8.76l8.33 -7.82c-6.82,-1.53 -8.07,-1.8 -8.57,-9.22 3.46,-2.64 1.38,-1.16 6.2,-2.11l-1.21 -7.89 -11.79 7.07z"/>
  <path class="fil19" d="M239.92 103.4c7.8,1.33 2.66,-2.45 9.69,2.77 1.41,11.18 2.02,1.1 -1.24,10.65 16.78,-11.8 15.71,-13.38 15.31,-29.11 -18.92,4.96 4.51,7.74 -21.6,15.05 -0.54,0.15 -1.45,0.38 -2.15,0.64z"/>
  <path class="fil7" d="M21.6 131.5l-0 7.87 0.43 -1.31 13.89 0.18 10.85 0.36 9.44 -6.59c1.56,-5.95 -5.45,-2.13 3.58,-6.17 4.47,-9.02 -0.5,-2.33 7.57,-5.38 -3.25,-5.79 -1.68,-3.62 -6.02,-7.28 -5.28,4.55 2.84,7.66 -13.44,17.88 -8.14,5.11 -17.31,3.53 -26.3,0.44z"/>
  <path class="fil8" d="M180.17 194.01l18.53 0.98c-0.16,-10.04 2.08,-5.05 -3.17,-12.34 -3.78,-5.25 -4.7,-4.85 -11.4,-4.99l-3.96 16.35z"/>
  <path class="fil1" d="M97.61 245.54l-0.64 3.95c7.49,1.14 3.08,-0.45 4.91,4.55l-0.06 1.34 1.58 -1.67 5.62 -0.2 13.59 -3.31 -10.45 -4.89 -3.57 -14.63c4.33,-5.33 2.49,-3.26 8.2,-5.48l-1.34 -0.37 -4.46 -0.53c-10.88,8.93 -5.63,2.39 -6.92,1.35 0.15,0.76 0.27,1.73 0.3,2.31l0.12 6.2c-0,1.41 -0.54,2.01 -0.13,4.76 0.74,5.03 3.51,2 2.14,6.05 -7.06,4.08 -2.01,4.36 -8.91,0.57z"/>
  <path class="fil11" d="M173.75 43.64c1.96,7.24 2.32,11.51 10.45,10.9 6.2,-9.15 5.55,-7.08 0.39,-15.78l-8.05 -8.92c-0.37,0.54 -0.84,1.25 -1.01,1.67 -0.17,0.42 -0.7,1.21 -0.88,1.73l-0.9 10.39z"/>
  <path class="fil11" d="M109.04 253.52l0.14 3.28c10.79,-2.79 10.49,-2.28 21.83,0.18 1.88,-4.82 1.58,-1.08 0.82,-8.17 -4.3,-0.73 -5.71,-1.03 -8.56,-2.27 -2.12,-0.44 -4.52,0.54 -7.08,-1.6 -2.04,-7.47 -3.23,-5.38 -3.03,-15.37l5.14 -0.98 0 -3.16 -1.49 -0.22c-5.71,2.21 -3.87,0.14 -8.2,5.48l3.57 14.63 10.45 4.89 -13.59 3.31z"/>
  <path class="fil10" d="M177.31 197.96c4.06,6.24 -5.64,3.84 7.33,5.63l-0.07 5.72 3.7 2.38c3.15,1.39 2.38,0.83 5.97,1.81l-0.62 -9.51 9.89 -0.97 0.47 -6.73c-8.97,3.37 -16.56,2.43 -26.67,1.66z"/>
  <path class="fil9" d="M123.27 246.55c-4.35,-9.14 -2.01,-1.04 -3.63,-12.31l21.73 0.86 5.33 -0.6 0.63 -1.61c-12.76,-3.25 -1.07,2.07 -29.04,-4.29l-5.14 0.98c-0.2,9.99 0.99,7.9 3.03,15.37 2.57,2.14 4.96,1.17 7.08,1.6z"/>
  <path class="fil20" d="M157.41 247.27c-4.55,2.19 -3.58,2.16 -8.95,4.55 -0.25,2.93 4.11,1.22 -4.48,3.32l1.74 1.22c7.92,4.95 3.1,-0.72 6.81,7.09l3.98 -0.38c-0.91,-6.5 1.89,-4.9 5.6,-7.37l1.34 -0.46 0.24 -11.83 -6.29 3.84z"/>
  <path class="fil15" d="M111.36 105.44l4.19 -2.32 -1 -4.55c-1.79,-13.41 0.33,-5.22 1.65,-8.1 3.52,-1.31 -5.02,-2.46 7.25,-1.78l4.88 1.78 2.1 -2.15 1.12 -19.23 -4.51 0 -0.05 14.56 -13.04 0.94 -2.58 20.84z"/>
  <path class="fil21" d="M314.14 19.33c-4.86,1.91 -9.62,-1.91 -2.54,15.42 0.24,0.59 1.01,2.43 1.2,2.06 0.2,-0.38 0.87,1.39 1.34,2.06 0.87,-0.97 6.27,3.9 5.06,-11.22 -1.24,-15.45 -1.09,-4.09 -5.06,-8.33z"/>
  <path class="fil17" d="M194.91 118.65c3.49,4.64 -1.59,2.52 8.04,4.41 1.97,0.39 7.46,0.02 9.78,-0 -3.49,-9.72 -4.3,-3.68 -8.99,-15.71 9.67,-7.87 13.82,-2.37 13.84,-6.43l-19.24 2.84 5.83 15.47 -9.26 -0.59z"/>
  <path class="fil0" d="M242.83 131.17c3.77,6.65 -3.62,4.06 5.91,4.11 5.71,0.03 0.02,1.59 7.22,-2.78 5.75,-1.63 0.01,5.02 5.34,-3.39l1.4 -8.92c-6.63,2.9 -12.52,6.88 -19.86,10.98z"/>
  <path class="fil17" d="M178.73 89.43c-2.65,3.68 0.33,-0.6 -2.6,4.86l-4.43 6.93 -12.04 -1.35c4.26,6.29 0.9,3.69 7.56,5.9l5.09 0.86 4.71 -6.01 3 -6.69c1.1,3.94 -0.12,0.19 4.35,2.48l0.87 -11.23c-1.26,0.62 -2.39,0.43 -2.67,1.42 -1.97,7.1 0.63,-0.87 -3.84,2.83z"/>
  <path class="fil15" d="M131.83 248.81c7.03,2.09 6.98,1.39 7.15,7.1l6.75 0.45 -1.74 -1.22 1.96 -6.42 -9.95 -2.89c0.74,-7.9 -0.46,-2.91 1.85,-9.07l-9.89 0.86 3.88 11.19z"/>
  <path class="fil10" d="M123.27 246.55c2.85,1.24 4.26,1.54 8.56,2.27l-3.88 -11.19 9.89 -0.86c4.25,0.94 3.53,2.13 3.53,-1.67l-21.73 -0.86c1.62,11.27 -0.72,3.17 3.63,12.31z"/>
  <path class="fil22" d="M251.2 86.16l-3.89 5.15 11.75 -13.36c0.5,-0.51 1.3,-1.15 1.96,-1.7 6.23,3.08 2.66,-3.05 6.75,5.72l-1.46 -19.58 -0.96 11.27c-3.1,-6.57 -1.86,-10.37 -9.16,-14.16 -2.5,6.72 0.59,4.99 0.53,14.03 -0.09,15.17 -5.03,12.38 -5.53,12.63z"/>
  <path class="fil8" d="M71.1 90.52l1.62 7c14.57,-4.71 -2.26,-1.69 17.03,-22.68 -12.27,1.12 -12.19,3.29 -13.59,13.2 -3.77,3.74 2.29,4.32 -5.07,2.48z"/>
  <path class="fil18" d="M198.65 134.14c-3.73,-15.16 -10.65,-2.03 -19.7,-19.56 1.32,2.95 1.95,-0.17 -1.27,3.95 16.9,18.3 5.41,17.69 20.96,15.6z"/>
  <path class="fil1" d="M27.28 88.59l-1.74 3.17 3.85 -0.27c3.7,2.84 3.95,-5.66 2.16,8.61 6.33,0 4.31,1.4 4.66,-5.62 1.88,-5.12 -1.97,-3.82 2.72,-4.04 -0.38,-0.54 -0.94,-1.28 -1.17,-1.6 -0.21,-0.29 -0.87,-1.12 -1.1,-1.45l-9.79 -8.6 0.41 9.79z"/>
  <path class="fil2" d="M61.34 113.19c4.35,3.66 2.77,1.49 6.02,7.28l3.15 1.37 2.02 -12.08c-0.58,-0.51 -1.29,-1.17 -1.7,-1.59l-6.67 -7.37c-0.46,8.22 1.83,2.13 -2.82,12.39z"/>
  <path class="fil9" d="M126.12 195.2l10.29 -0.29c-3.14,-0.85 -3.39,-2.52 -5.95,-5.05 -1.59,-1.57 -6.04,-5.37 -6.7,-6 -4.82,0.96 -2.74,-0.52 -6.2,2.11 0.5,7.42 1.75,7.69 8.57,9.22z"/>
  <path class="fil10" d="M72.53 109.75l-2.02 12.08c8.65,1.58 6.77,-4 7.03,-13.36l0.57 -6.93 -6.3 0.09 0.72 8.11z"/>
  <path class="fil9" d="M166.87 189.16l2.43 -4 2.46 -10.1c2.65,-3.78 -1.01,-1.4 5.96,-3.55 -1.78,-2.33 1.22,-1.68 -3.73,-3.7 -1.42,-0.58 -6.57,-1.7 -9.25,-2.22 4.09,12.55 3.2,12.14 2.14,23.57z"/>
  <path class="fil10" d="M169.3 185.15c11.51,-0.91 6.16,-1.54 7.63,10.09 0.07,-11.43 3.21,-16 0.79,-23.74 -6.97,2.15 -3.31,-0.23 -5.96,3.55l-2.46 10.1z"/>
  <path class="fil4" d="M111.38 258.3c5.69,0.1 9.49,0.77 14.67,1.12 3.29,0.22 3.75,0.9 7.64,0.22 10.43,-1.82 4.39,0.07 5.28,-3.72l-7.97 1.07c-11.34,-2.47 -11.04,-2.97 -21.83,-0.18l2.2 1.5z"/>
  <path class="fil4" d="M114.54 98.56c8.73,-5.66 -3.44,-6.24 10.72,-2.55l2.23 1 0.83 -6.54 -4.88 -1.78c-12.28,-0.68 -3.73,0.47 -7.25,1.78 -1.32,2.88 -3.44,-5.31 -1.65,8.1z"/>
  <path class="fil23" d="M137.84 236.77c-2.31,6.15 -1.11,1.16 -1.85,9.07l9.95 2.89 -1.96 6.42c8.59,-2.1 4.23,-0.39 4.48,-3.32 -1.76,-5.97 0.89,0.07 -3.66,-4.6l-4.48 -4.68 6.38 -8.05 -5.33 0.6c0,3.81 0.71,2.61 -3.53,1.67z"/>
  <path class="fil24" d="M236.72 110.54l7.43 -3.47c1.68,6.85 2.46,4.22 0.6,11.7l3.62 -1.94c3.27,-9.55 2.65,0.53 1.24,-10.65 -7.03,-5.22 -1.88,-1.44 -9.69,-2.77l-3.2 7.13z"/>
  <polygon class="fil17" points="194.23,213.5 201.86,212.73 203.5,203.02 193.61,204 "/>
  <path class="fil6" d="M262.7 120.19l-1.4 8.92c8.49,-3.8 7.94,-3.83 9.46,-15.25l-0.67 -2.34 -7.39 8.67z"/>
  <path class="fil24" d="M157.41 247.27l6.29 -3.84 -0.24 11.83 3.22 -0.68c1.75,-6.7 2.35,-2.4 1.18,-9.48 -1.65,-10.08 0.01,-1.18 -3.4,-5.29 -8.72,3.52 -4.52,2.08 -7.05,7.46z"/>
  <path class="fil10" d="M35.93 138.24c2.65,3.41 -4.47,2.84 7.8,3.6 3.74,0.23 5.44,-0.94 8.26,-1.75l3.82 -3.79c4.44,0 2.68,0.57 0.41,-4.3l-9.44 6.59 -10.85 -0.36z"/>
  <path class="fil25" d="M80.41 218.32c-1.52,-8.96 -3.59,-10.61 -1.37,-20.86l-3.88 0c-0.58,4.11 -1.36,7.13 -0.7,11.36 1.22,7.75 2.61,6.98 5.95,9.51z"/>
  <path class="fil15" d="M56.22 132.01c2.27,4.87 4.03,4.3 -0.41,4.3l-3.82 3.79c11.79,-3.64 11.42,-2.78 13.98,-14.64 -7.71,3.48 -3.19,0.66 -9.76,6.55z"/>
  <path class="fil24" d="M114.54 98.56l1 4.55 8.74 -1.09 0.98 -1.36 0 -4.66c-14.16,-3.69 -2,-3.11 -10.72,2.55z"/>
  <path class="fil10" d="M162.43 206.32l9.41 -4.09c-3.39,-7.59 -3.26,-3.49 -4.97,-13.07 -3.64,6.13 -0.85,0.66 -2.22,7.5 -1.91,9.5 1.44,0.63 -2.22,9.66z"/>
  <path class="fil18" d="M226.42 122.17c-2.57,3.5 -1.06,3.63 -5.82,5.5 10.62,2.71 8.18,-3.36 15.05,-8.25 -1.95,-4.12 2.94,-1.2 -3.72,-1.27 -5.71,1.45 -0.21,-5.99 -5.5,4.02z"/>
  <path class="fil26" d="M156.52 263.08c0.39,0.04 6.5,0.78 6.65,0.75 12.6,-3.03 4.29,-1.06 8.51,-4.89 -7.96,0.86 -9.57,3.19 -9.57,-3.22 -3.71,2.47 -6.51,0.87 -5.6,7.37z"/>
  <path class="fil9" d="M56.22 132.01c6.57,-5.89 2.05,-3.07 9.76,-6.55 0.74,-0.31 2,-1.06 2.31,-1.34 0.2,-0.17 0.93,-0.87 1.12,-1.05 0.21,-0.2 0.73,-0.83 1.1,-1.24l-3.15 -1.37c-8.07,3.04 -3.1,-3.64 -7.57,5.38 -9.03,4.04 -2.02,0.22 -3.58,6.17z"/>
  <path class="fil27" d="M75.16 197.46l3.88 0c-0.67,-7.97 -0.29,-6.32 4.74,-9.54l-1.82 -3.83c-7.39,3.42 -6.25,5.29 -6.8,13.37z"/>
  <path class="fil25" d="M116.19 167.26l-6.97 3.14c7.83,0.93 8.22,-0.09 17.01,-1.33 2.93,-1.81 0.39,0.46 1.55,-4.28l-11.59 2.47z"/>
  <path class="fil10" d="M131.01 256.98l7.97 -1.07c-0.17,-5.72 -0.11,-5.01 -7.15,-7.1 0.75,7.09 1.05,3.35 -0.82,8.17z"/>
  <path class="fil4" d="M167.23 105.77c4.43,5.01 -6.04,1.42 6.88,4.94l2.27 -3.95c1.77,-8.74 -0.74,10.25 0.64,-6.14l-4.71 6.01 -5.09 -0.86z"/>
  <path class="fil18" d="M82.38 260.91c2.79,-8.34 0.8,-5.26 9.93,-7.28 -4.32,-19.74 -1.84,-13.35 -0.27,-15.93 -1.31,6.32 -10.16,20.73 -9.66,23.21z"/>
  <path class="fil22" d="M176.04 15.06c-2.49,-0.15 -1.86,-1.39 -6.91,0.13 -12.41,3.74 -3.04,-0.37 -5.69,4 0.88,-0.06 3.51,0.31 6.09,-0.46 9.44,-2.82 3.88,-1.22 6.51,-3.68z"/>
  <path class="fil4" d="M104.58 113.88c-9.88,0.83 -6.36,1.51 -11.9,-2.51l-3.45 -2.32 5.22 8.04c5.54,0.11 1.29,0.7 6.79,-0.77l3.34 -2.43z"/>
  <path class="fil10" d="M26.68 97.48l0.73 4.1 4.15 -1.48c1.79,-14.28 1.54,-5.77 -2.16,-8.61 -0.32,11.15 0.47,4.73 -2.72,6z"/>
  <path class="fil15" d="M151 93.01l-0.1 -10.55 -2.68 0.62c-1.67,8.09 -2.16,6.51 2.79,9.93z"/>
  <path class="fil25" d="M154.71 22.74l5.25 1.35c6.3,-4.55 1.18,-0.97 3.48,-4.89 -6.06,-1.14 -6.39,0.95 -8.73,3.54z"/>
  <path class="fil15" d="M189.6 173.01c-1.07,-2.46 -1.89,-4.78 -3.14,-7.88l-3.46 0.57c1.67,6.69 0.1,5.75 6.61,7.3z"/>
  <path class="fil27" d="M89.62 177.28l2.69 1.39c2.2,-3.05 1.65,-2.95 4.85,-6.14l-7.49 0.7 -0.06 4.05z"/>
  <path class="fil15" d="M147.83 72.24l4.2 -0.54c-3.6,-9.67 -0.07,-3.49 -6.27,-5.9l2.08 6.43z"/>
  <path class="fil28" d="M148.52 27.96c6.11,-2.68 1.76,3.79 6.19,-5.22 -3.44,-0 -5.34,-2.45 -6.19,5.22z"/>
  <path class="fil22" d="M272.07 29.19c-1.02,-1.96 -1.16,-3.1 -2.89,-4.98 -2.96,-3.21 -1.15,-1.28 -4.75,-3.84 2.55,7.56 1.86,5.78 7.64,8.82z"/>
  <path class="fil15" d="M26.65 66.95l3.85 0 -0.78 -6.45c-3.74,2.59 -2.79,-4.72 -3.06,6.45z"/>
  <path class="fil22" d="M109.22 170.4c-5.98,-1.38 -7.93,-3.38 -12.06,2.13l12.06 -2.13z"/>
  <path class="fil25" d="M127.78 164.79c1.61,-0.66 4.1,-1.41 6.13,-1.93l0.32 -3.65c-3.64,1.35 -2.21,-3.38 -6.44,5.58z"/>
  <path class="fil25" d="M207.82 184.59l-0.29 -5.88 -3 1.71c-1.95,5.71 -2.85,4.17 3.29,4.17z"/>
  <path class="fil29" d="M109.18 256.8l-0.14 -3.28 -5.62 0.2c2.31,4.92 -2.43,4.4 5.76,3.08z"/>
  <path class="fil22" d="M142.61 43.33c3.32,-2.59 2.64,4.92 2.8,-7.13l-3.17 1.16 0.36 5.98z"/>
  <path class="fil25" d="M145.96 59.41l0.65 -4.97 -3.85 0.19c-0.2,5.82 -1.86,4.78 3.2,4.78z"/>
  <path class="fil15" d="M43.54 50.46l0.67 -2.94c-8.77,-1.58 -3.67,-1.68 -5.76,2.74l5.1 0.2z"/>
  <path class="fil4" d="M120.78 113.9l4.62 -0.03 0.22 -4.25c-7.55,1.88 -2.93,-2.39 -4.84,4.28z"/>
  <path class="fil25" d="M137.7 155.81c-5.47,0.22 -4.93,-1.39 -3.47,3.4 5.02,1.55 3.47,2.19 3.47,-3.4z"/>
  <path class="fil17" d="M101.89 254.05c-1.83,-5 2.58,-3.41 -4.91,-4.55 1.48,4.53 -4.77,1.91 4.91,4.55z"/>
  <path class="fil4" d="M96.97 249.49l0.64 -3.95 -3.44 0.58c-0.4,5.98 -2.22,6.05 2.8,3.37z"/>
  <path class="fil4" d="M156.66 98.25c-1.01,-4.43 4.7,-1.45 -4.17,-4.66l-0.34 3.37 4.51 1.29z"/>
  <path class="fil30" d="M262.25 11.7c1.32,-5.2 1.75,-3.52 -3.86,-2.23l-0.55 3.12 4.41 -0.9z"/>
  <path class="fil4" d="M182.99 165.71c-0.5,-4.05 4.65,-4.41 -4.42,-2.5l-0.81 2.08 5.23 0.42z"/>
  <path class="fil15" d="M84.68 227.79l3.64 -0.56c-2.21,-7.22 -0.03,-2.46 -4.5,-2.96l0.37 3.77 0.49 -0.25z"/>
  <path class="fil4" d="M91.16 230.54c0,-4.74 1.37,-4.13 -2.83,-3.3 -1.7,4.65 -2.31,3.31 2.83,3.3z"/>
  <path class="fil25" d="M178.73 12.97c3.8,-1.01 2.44,4.16 3.82,-3.41 -4.44,0.49 -3.17,-3.39 -3.82,3.41z"/>
  <path class="fil15" d="M178.73 12.97l-3.45 -1.58 0.77 3.68c4.69,2.03 3.91,2.86 2.69,-2.1z"/>
  <path class="fil28" d="M37.8 49.59c-4.88,-0.12 -4.54,-1.66 -3.54,2.36 4.54,1.12 3.54,2.14 3.54,-2.36z"/>
  <path class="fil17" d="M89.62 177.28c-4.14,-0.4 -3.38,-1.29 -2.23,2.7 5.22,1.29 4.46,2.18 2.23,-2.7z"/>
  <path class="fil23" d="M178.57 163.21l-3.89 -5.61c-1.6,5.73 -0.1,4.86 3.89,5.61z"/>
  <path class="fil17" d="M87.39 179.98c-4.07,-1.25 -3.27,-2.1 -2.78,2.06 4.64,1.67 4,2.68 2.78,-2.06z"/>
  <polygon class="fil22" points="204.53,180.42 205.95,176.01 200.46,177.82 "/>
  <path class="fil29" d="M34.27 51.95c-4.38,-1.03 -4.1,-2.41 -3.1,1.59 4.57,2.1 4.01,3.29 3.1,-1.59z"/>
  <path class="fil4" d="M159.67 99.87c0.41,-3.85 1,-2.76 -3.01,-1.62 -1.34,4.94 -1.72,3.61 3.01,1.62z"/>
  <path class="fil10" d="M242.75 93.93c4.69,-1.3 1.46,2.11 4.56,-2.62l3.89 -5.15 -8.45 7.77z"/>
  <path class="fil4" d="M84.61 182.04l-3.14 -1.31 0.49 3.36c3.94,1.23 3.14,2.01 2.65,-2.05z"/>
  <path class="fil17" d="M94.13 234.86c0.5,-5.61 1.92,-4.41 -3.4,-4.36l3.4 4.36z"/>
  <path class="fil17" d="M87.22 104.47l-5.32 -2.74c2.15,4.36 -2.18,3.9 5.32,2.74z"/>
  <path class="fil24" d="M62.44 146.6l7.62 -6.61c-3.8,1.95 -1.61,0.49 -5.09,3.34 -0.35,0.29 -1.07,2.03 -1.33,1.57 -0.26,-0.46 -0.8,1.14 -1.21,1.7z"/>
  <path class="fil22" d="M83.82 224.28c-0.98,-4.13 2.3,-1.32 -3.41,-5.96l3.41 5.96z"/>
  <path class="fil27" d="M27.7 143.76c-7.31,-2.21 -1.94,-0.64 -5.66,-5.7l-0.43 1.31 6.1 4.39z"/>
  <path class="fil23" d="M262.45 109.77c-2.53,8.66 2.39,-8.19 0,0z"/>
 </g>
</svg>
