<?xml version="1.0" encoding="UTF-8"?>
<!DOCTYPE svg PUBLIC "-//W3C//DTD SVG 1.1//EN" "http://www.w3.org/Graphics/SVG/1.1/DTD/svg11.dtd">
<!-- Creator: CorelDRAW 2018 (64-Bit) -->
<svg xmlns="http://www.w3.org/2000/svg" xml:space="preserve" width="11.1559mm" height="10.1914mm" version="1.1" style="shape-rendering:geometricPrecision; text-rendering:geometricPrecision; image-rendering:optimizeQuality; fill-rule:evenodd; clip-rule:evenodd"
viewBox="0 0 41.91 38.29"
 xmlns:xlink="http://www.w3.org/1999/xlink">
 <defs>
  <style type="text/css">
   <![CDATA[
    .fil21 {fill:#606060}
    .fil24 {fill:#62391A}
    .fil1 {fill:#646262}
    .fil4 {fill:#653B1C}
    .fil63 {fill:#666666}
    .fil42 {fill:#6A3D1B}
    .fil43 {fill:#6A3E1D}
    .fil7 {fill:#6D411D}
    .fil11 {fill:#6E4221}
    .fil88 {fill:#743F16}
    .fil19 {fill:#754621}
    .fil80 {fill:#756866}
    .fil71 {fill:#775435}
    .fil56 {fill:#776757}
    .fil47 {fill:#7A4622}
    .fil6 {fill:#7B4B24}
    .fil26 {fill:#7B5229}
    .fil33 {fill:#7D4A22}
    .fil38 {fill:#824D26}
    .fil3 {fill:#844F26}
    .fil53 {fill:#84542B}
    .fil29 {fill:#855126}
    .fil55 {fill:#857868}
    .fil0 {fill:#865129}
    .fil60 {fill:#8A552A}
    .fil23 {fill:#8B5325}
    .fil62 {fill:#8B542B}
    .fil86 {fill:#8D5A32}
    .fil17 {fill:#91562B}
    .fil12 {fill:#945B2C}
    .fil48 {fill:#945C32}
    .fil73 {fill:#956234}
    .fil68 {fill:#9A6739}
    .fil16 {fill:#9B5C2C}
    .fil58 {fill:#9B6233}
    .fil46 {fill:#A36433}
    .fil52 {fill:#A46B3B}
    .fil91 {fill:#A4A09C}
    .fil20 {fill:#A56934}
    .fil70 {fill:#A68868}
    .fil75 {fill:#AB6D3A}
    .fil76 {fill:#AB7544}
    .fil61 {fill:#AD733B}
    .fil79 {fill:#AD7753}
    .fil85 {fill:#B26E37}
    .fil54 {fill:#B3B2AA}
    .fil74 {fill:#B47234}
    .fil9 {fill:#B4733B}
    .fil67 {fill:#B47442}
    .fil66 {fill:#B57A43}
    .fil14 {fill:#B8B8B7}
    .fil77 {fill:#B97948}
    .fil5 {fill:#BC793D}
    .fil83 {fill:#BC7B42}
    .fil22 {fill:#C48243}
    .fil39 {fill:#C4864A}
    .fil65 {fill:#CA8444}
    .fil27 {fill:#CA934B}
    .fil36 {fill:#CD8B4B}
    .fil34 {fill:#D38545}
    .fil8 {fill:#D48A45}
    .fil90 {fill:#D48B3B}
    .fil57 {fill:#D48C4B}
    .fil18 {fill:#D4924B}
    .fil69 {fill:#D4D0CB}
    .fil41 {fill:#D79855}
    .fil72 {fill:#DAA357}
    .fil40 {fill:#DB9452}
    .fil2 {fill:#E2954D}
    .fil32 {fill:#E39B53}
    .fil92 {fill:#E89949}
    .fil30 {fill:#E99C54}
    .fil51 {fill:#E9A758}
    .fil44 {fill:#ECA25A}
    .fil93 {fill:#EFC88E}
    .fil89 {fill:#F2D5B2}
    .fil82 {fill:#F3A454}
    .fil49 {fill:#F3A45B}
    .fil31 {fill:#F4AC5C}
    .fil10 {fill:#F8B667}
    .fil84 {fill:#F9D8A8}
    .fil15 {fill:#FAC778}
    .fil81 {fill:#FAD898}
    .fil37 {fill:#FBC969}
    .fil28 {fill:#FBE5A9}
    .fil50 {fill:#FCB45C}
    .fil59 {fill:#FCE9B8}
    .fil87 {fill:#FDB464}
    .fil25 {fill:#FDBB64}
    .fil35 {fill:#FDD47B}
    .fil45 {fill:#FDD776}
    .fil64 {fill:#FDF5D7}
    .fil78 {fill:#FDF6CA}
    .fil13 {fill:#FEC36B}
   ]]>
  </style>
 </defs>
 <g id="Warstwa_x0020_1">
  <metadata id="CorelCorpID_0Corel-Layer"/>
  <g id="_1832253777120">
   <path class="fil0" d="M21.39 9.46l0.04 -0.11 0.25 0.54c0.62,1.42 0.76,3.32 0.44,4.86 -0.65,3.09 -0.71,3.81 -2.05,4.4l0.39 -3.2c-1.16,0.53 -0.54,-0.45 -1.15,0.81l-1.02 1.38 -0.28 0.8 -0.14 0.47c0.44,0.23 -0.48,0.07 0.56,0.13 0.07,0 0.66,-0.08 0.73,-0.1l-0.63 1.59c-0.59,0.92 -0.95,2.57 -2.43,3.12 -0.61,-1.71 0.48,-1.47 0.32,-3.27 0.26,-0.73 0.39,-0.04 -0,-0.5 -0,0.07 -0.04,0.19 -0.05,0.21 -0.02,0.03 -0.19,0.28 -0.2,0.21 -0.03,-0.1 -0.25,0.12 -0.36,0.21l-0.29 0.05c0.03,0.91 -0.08,2.42 -0.95,2.81l0.05 1.91 0.03 0.4 -0.53 1.84 -0.03 0.84c0.47,-0.2 0.5,0.52 0.31,-0.36l0.67 -0.61c0.2,-1.26 0.1,-0.67 0.55,-1.12 0.11,-0.89 0.14,-0.91 0.78,-1.63 0.76,-0.86 0.62,-1 1.7,-1.35l-0.05 1.35c0.35,-0.23 0.72,0.36 0.28,-0.49l0.69 0.06c0.64,-0.36 0.61,0.87 0.45,-0.99 -0,-0 -1.33,0.64 -0.12,-1.67 0.36,-0.68 0.76,-1.25 1.15,-1.62l0 2.39 0.19 1.67c-1.31,0.51 -0.54,0.16 -0.96,0.68l1.58 -0.15 0.11 -0.31 0.08 -0.8c0.03,-0.03 0.11,-0.11 0.15,-0.15 0.81,-0.95 -0.08,-0.64 1.29,-1.01 -0.31,-2.25 1.39,-4.3 1.56,-7.49 -0.4,-1.23 0.9,-2.5 0.33,-5.03l-1.3 0.07 0.44 -2.02c-1.27,0.5 -0.69,0.02 -1.29,1.2l-1.29 -0.02z"/>
   <path class="fil1" d="M21.59 32.08c-0.44,1.06 0.58,0.21 -0.71,0.99l-0.63 -0.99c-0.52,-0.52 -1.04,-0.39 -2.14,-0.45 -2.78,0.06 -2.79,0.06 -4.77,1.22 -1.45,0.84 -2.3,1.43 -4.22,0.86 -0.73,0.56 -0.35,1.16 -0.13,2.22 0.59,-0.24 -0.03,-0.39 0.48,-0.03 0.46,0.32 0.3,0.07 -0.03,0.49 0.93,0.16 0.82,-0.14 0.82,0.49 0.17,-0.14 0.5,-0.8 0.94,0 0,-0.65 -0.12,-0.36 0.78,-0.46l0 -0.38c1.91,-0.17 -0.04,0.05 1.36,-0.04 -0.38,-0.69 -0.36,-0.39 0.55,-0.56l-0.12 0.17 0.76 -0.47 -0.09 0.16 0.73 -0.48 0.03 -0.28 0.74 0.16c0.45,-0.66 3.1,-0.43 4,-0.53l0.69 -0.11 -0.37 0.47 0.64 0.45c0.7,-0.33 0.62,-0.11 0.77,-0.95l0.34 -0.8 0.69 0.48c0.64,1.47 0.2,1.28 1.59,1.99 0.5,0.26 0.69,0.26 1.02,0.61 0.99,1.06 0.47,0 0.34,1.11l0.97 -0.13 0 0c1.36,0.39 0.62,-0.04 1.04,0.87l0.34 0.12c0.26,-0.7 0.4,-1.05 0.6,-1.97 0.53,-2.39 0.44,-2.4 1.2,-2.51l0 -2.11 -0.94 0.24 0.04 0.31 -0.76 2.38 -0.15 1.08c-0.97,-0.24 -0.44,0.15 -0.85,-0.61 -0.93,-0.66 -0.47,-0.42 -2.03,-0.23l-0.26 -0.63 -0.84 -1.14 -1.34 -0.54c-0.04,-0.07 -0.1,-0.16 -0.12,-0.21 -0.02,-0.06 -0.06,-0.19 -0.08,-0.25 -0.1,-0.36 -0.04,-0.21 0,-0.62l-0.02 -0.15c-0.83,-0.04 -0.3,-0.21 -0.74,0.15l-0.12 0.59z"/>
   <path class="fil2" d="M8.85 21.63l0.89 0.78c0.06,-0.07 0.2,0.14 0.31,0.17l-1.06 0.67c-0.2,0.1 -0.55,0.2 -0.7,0.27 -0.94,1.06 -1.16,0.99 -1.24,2.37 0.47,0.57 0.26,0.76 -0.12,1.29 1.02,0.23 1.9,0.4 1.97,1.32l0.21 1.14 0.7 -0.36c0.05,-0.03 0.15,-0.12 0.23,-0.19 -0.02,1.79 -0.54,0.96 0.21,2.15 0.58,-0.79 0.1,-0.33 1.07,-1.03l-0.59 2.55c1.66,-1.21 0.54,0.02 0.73,-1.23 -0.16,-0.66 0.13,-1.04 0.51,-1.95l0.85 -0.12c0.39,-1.25 0.16,-1.16 1.3,-1.46l0.53 -1.84c-1.31,0.17 -0.44,-0.29 -1.35,0.57 -0.65,0.61 -0.24,0.49 -1.14,0.93 0.56,-1.55 0.94,-1.43 1.36,-2.63l0.95 -2.78 -0.55 -0.15 -0.42 1.42c-0.63,0 -0.4,0.13 -0.5,-0.6l-0.69 0.79c-0.42,0.64 0.58,0.17 -0.8,0.72l-1.67 1.26c0.09,-0.78 0.1,-0.33 0.34,-0.74l0.28 -0.41c0.47,-1.04 0.3,-1.13 0.11,-1.91 -0.15,-0.79 0.27,-0.81 0.32,-1.11 0.02,-0.12 0.1,-0.14 0.14,-0.21l-0.13 -0.67c-1.35,0.35 -0.76,0.47 -2.03,0.98z"/>
   <path class="fil3" d="M24.83 10.22c0.58,2.53 -0.73,3.8 -0.33,5.03 0.6,0.6 0.43,0.97 1.14,1.63 1.92,-2.55 0.07,-0.53 2.05,-1.94 -0.19,-1.83 -0.43,-0.7 -0.66,-2.17l2.11 0.05c0.05,-0.08 0.11,-0.28 0.14,-0.23 0,0 1.31,-1.68 1.77,-2.95 0.73,1.01 0.99,0.85 2.39,0.66 0.98,-0.14 1.67,-0.12 2.7,-0.12 2.01,-0.42 0.38,0.02 1.05,-0.75l-5.51 -0.01 -1.26 0.16c-0.52,-0.96 0.25,-0.24 -0.83,-0.78 -0.6,-0.3 -0.49,-0.2 -1.28,-0.4l-0.14 -0.73 -0.62 0.12 -0.03 1.11c-0.69,-0.41 -0.5,-0.32 -0.93,-0.62 -0.1,-0.07 -0.18,-0.13 -0.28,-0.2 -0.1,-0.07 -0.19,-0.13 -0.27,-0.19 -0.08,-0.06 -0.18,-0.13 -0.27,-0.19l-0.94 2.52z"/>
   <path class="fil4" d="M21.96 26.21l-2.41 2.33c-1.03,0.81 -0.28,-0.46 -0.9,1.03 0.71,0.35 0.41,0.19 0.95,1.06l0.58 -0.11c0.41,0.06 0.56,0.06 0.91,0.07 0.92,0.04 -0.39,-0.18 1.05,0.05l0.3 0.68 0.02 0.15 0.19 -0.08c0.87,0.16 0.59,0.3 1.39,0.08 1.08,-0.3 0.3,0.14 0.65,-0.7l0.25 -1.38c-0.18,0.06 -0.3,0.05 -0.36,0.18 -0.24,0.53 -1.74,0.29 -2.16,0.22 0.66,-1.44 0.1,-0.52 -0.65,-2.05l3.65 -0.68c0.26,-1.01 0.92,-0.73 2.06,-0.96l-0.17 -1.27 0.33 -1.39c-0.4,-0.31 -0.16,0.21 -0.71,-0.62l-2.22 0.14 -1.44 1.73c-0.16,0.2 -0.27,0.34 -0.47,0.56 -0.05,0.05 -0.12,0.12 -0.16,0.17 -0.05,0.05 -0.12,0.11 -0.16,0.16 -0.78,0.83 -0.09,-0.57 -0.55,0.64z"/>
   <path class="fil5" d="M13.88 11.13l0.1 -0.12 -0.06 1.13c-0.36,0.04 0.11,0.08 -0.39,-0.08 -0.28,-0.09 0.16,-0.05 -0.74,-0.26l-0.04 0.21 -0.67 2.56c0.9,-0.31 0.31,-0.42 1.07,-0.08 1.53,0.58 0.29,0.62 1.64,-1.54l0.58 -1.09c1.33,-3.58 1.23,-0.84 1.76,-3.37l1.27 1.25 0.27 -1.92c0.13,3.81 -0.19,1.76 0.62,3.4l0.64 -0.15c0.09,-2.53 1.25,-2.07 0.73,-5.67 -0.72,-0.43 -0.92,-0.27 -1.4,-0.63 -0.88,-0.67 0.38,-0.32 -1.24,-1.21 -1.66,1.63 -0.52,2.15 -1.34,4.28 -0.53,1.39 -1.33,2.79 -2.8,3.29z"/>
   <path class="fil1" d="M35.9 15.61l-0.33 1.3 -0.16 1.22c-1.4,0.24 0.46,0.93 -0.96,0.42 -0.63,0.13 -0.47,-0.07 -0.52,0.55 0.25,1.28 -0.13,2.22 -1.3,2.64 -0.35,1.14 -0.11,0.61 -1.44,1.31l-0.83 0.46 0.22 0.88 -1.1 0.23 -0.01 0.79c0.56,1.05 -0.31,0.2 0.85,0.97l0.73 0.17c0.26,-0.02 0.56,0.24 0.09,-0.15 0.12,-0.96 -0.14,-0.66 0.87,-0.82 -0.01,-0.57 -1,-0.11 0.86,-0.78 0.06,-0.02 0.23,0.04 0.28,-0.07 0.05,-0.11 0.19,-0.05 0.29,-0.08 -0.2,-0.58 -0.35,-0.47 0.21,-0.47l-0.09 -0.64 0.49 -0.62 -0.05 -0.32 -0.07 -1.91c0.52,-0.19 1.13,-0.33 1.64,-0.54 0.23,-0.67 0.44,-1.62 0.54,-2.18l0.39 -1.63c0.02,-0.06 0.12,-0.09 0.14,-0.22 0.08,-0.53 1.4,-0.91 1.87,-1.13 0.95,-0.46 0.79,-0.73 1.66,-0.35l0.76 -0.47 -0.31 -0.49 -1.28 -1.58c-3.69,1.46 -2.01,0.05 -3.43,3.51z"/>
   <path class="fil6" d="M24.51 15.25c-0.17,3.19 -1.86,5.24 -1.56,7.49 0.94,-0.29 0.24,0.5 0.88,-0.96 0.27,-0.62 0.29,-0.79 0.36,-1.5l1.38 0.01c-0.05,-0.64 0.02,-0.64 0.13,-1.04 0.01,-0.03 0.38,-0.98 0.44,-1.15 0.81,-2.3 0.52,-1.16 1.37,-1.84l0.72 -1.05c0.32,-0.77 -0.1,-0.39 0.47,-1.05l0.51 -0.4c0.82,-0.67 0.59,-0.74 1.29,-0.99 0.17,-0.86 0.19,-0.65 0.48,-1.46 0.16,-0.07 0.96,-0.21 1.03,-0.23 1.41,-0.46 0.65,-1.19 3.49,-1.05l-1.51 1.59c0.06,-0.01 0.86,-0.11 0.88,-0.12 0.09,-0.03 0.17,-0.06 0.26,-0.09l1.23 -0.4c0.46,-0.31 0.56,-1.12 0.54,-0.25l1.05 -0.48 0.31 -0.38c0.01,-0.08 -0.06,-0.12 -0.06,-0.28l-1 -0.19c-0.67,0.77 0.95,0.33 -1.05,0.75 -1.03,0 -1.72,-0.02 -2.7,0.12 -1.39,0.19 -1.65,0.36 -2.39,-0.66 -0.46,1.28 -1.77,2.95 -1.77,2.95 -0.02,-0.05 -0.09,0.16 -0.14,0.23l-2.11 -0.05c0.23,1.47 0.47,0.34 0.66,2.17 -1.98,1.4 -0.13,-0.61 -2.05,1.94 -0.71,-0.66 -0.54,-1.03 -1.14,-1.63z"/>
   <path class="fil7" d="M30.51 12.78l-0.55 2.47c-0.04,-0.01 -0.13,-0.13 -0.16,-0.08 -0.44,1 0.01,0.02 -0.72,-0.44 -0.04,-0.02 -0.12,-0.09 -0.19,-0.12 -0.25,1.15 -0.61,1.87 -1,3.01 -0.91,2.62 -1.38,0.53 -0.96,2.74 1.12,0.65 0.16,0.41 1.08,0.42l0.01 -1.06 0.61 -2.45c0.89,-1.6 0.77,0.43 1.8,-1.46 0.5,-0.91 -0.2,-0.84 0.63,-1.34 1.19,0.51 -0.07,2.69 -0.73,3.41 -0.02,0.02 -0.09,0.07 -0.13,0.12 -0,0.11 -0.03,0.16 -0.03,0.33 -0,0.16 -0.02,0.24 -0.03,0.31 -0.11,1.38 0.07,1.04 -0.61,2.1 -0.03,0.04 -0.1,0.12 -0.13,0.2l1.22 -0.18 0.13 -0.46 1.9 -3.77c0.44,-1.36 0.36,0.08 0.54,-1.63 0.44,-0.94 0.67,0.94 -0.17,-0.66 -0.02,-0.05 -0.1,-0.15 -0.14,-0.24 0.73,-0.38 1.18,-0.47 1.97,-0.97 0.41,-0.05 0.32,-0.03 0.66,-0.27 -1.13,-0.12 -1.27,-0.01 -2.22,0.02 -0.84,0.03 -1.92,-0.03 -2.79,-0.02z"/>
   <path class="fil8" d="M15.93 5.23l-0.47 -0.16 0.08 0.98c1.06,0.43 0.23,-0.15 0.85,0.63 -0.21,0.5 -0.95,2.07 -1.15,2.34 -0.77,1.1 -0.93,0.11 -1.38,2.11 1.47,-0.5 2.27,-1.9 2.8,-3.29 0.82,-2.13 -0.32,-2.65 1.34,-4.28 1.62,0.89 0.36,0.54 1.24,1.21 0.48,0.37 0.68,0.21 1.4,0.63 0.52,3.59 -0.64,3.14 -0.73,5.67 1.33,-0.46 0.04,0.16 0.74,-0.8 0.25,-0.33 -0.26,-0.18 0.77,-0.93l-0.04 0.11c0.81,-1.45 0.11,-0.14 1.02,-1.21 0.16,-0.19 0.26,-0.35 0.45,-0.56 0.37,-0.44 0.16,-0.26 0.54,-0.59l0.12 -0.1 0.15 -0.51 -1.68 0.35c-0.19,-0.43 -0.37,-1.04 -0.7,-1.49 -0.69,-0.95 -0.45,-0.32 -1.21,-1.03 -0.73,-0.11 -0.4,0.28 -0.8,-0.59 -0.65,-0.96 -0.38,-0.05 -1.03,-1.19 -1.25,0.07 -0.21,0.09 -1.48,-0.25l-0.19 3.69c-0.74,-0.55 -0.52,0.74 -0.64,-0.76z"/>
   <path class="fil9" d="M13.15 14.5l-0.06 0.83 0.37 0.57c0.35,0.52 -0.04,0.04 0.41,0.59 0.54,-0.19 0.3,-0.02 1.05,-0.48 0.79,-0.48 0.26,0 0.85,-0.69 0.45,0.9 -0,0.75 1.21,1.06l0.03 -0.71c0.01,-1.38 0.68,-0.74 -0.68,-0.58 0.07,-0.07 0.19,-0.24 0.23,-0.18l0.9 -0.7c0.06,-0.05 0.15,-0.13 0.22,-0.2 -0.71,-0.72 0.24,-0.27 -0.95,-0.39 -1.16,0.67 -0.37,0.56 -1.65,1.08l1.62 -1.68c0.24,-0.35 0.95,-1.98 1.14,-2.42l1.43 0.64c-0.81,-1.64 -0.49,0.41 -0.62,-3.4l-0.27 1.92 -1.27 -1.25c-0.52,2.53 -0.43,-0.2 -1.76,3.37l-0.58 1.09c-1.35,2.16 -0.1,2.11 -1.64,1.54z"/>
   <path class="fil10" d="M5.68 27.44l0.06 0.02c1.48,1.14 2.6,1.57 2.42,4.03l0.09 1.6 0.76 0.04 0.1 0.6c1.93,0.57 2.77,-0.02 4.22,-0.86 1.98,-1.16 1.99,-1.16 4.77,-1.22 0.07,-0.08 0.28,-0.35 0.32,-0.39l0.37 -0.42c-1.53,0.25 -2.29,0.19 -3.84,0.18 -1.02,0.18 -0.56,0.22 -1.71,0.57l-0.21 0.22c-1.21,1.14 -2.55,1.5 -3.84,0.48l-0.06 -2.63 -0.21 -1.14c-0.07,-0.92 -0.95,-1.09 -1.97,-1.32 -0.11,-0.06 -0.74,-0.41 -0.8,-0.44 -0.07,-0.04 -0.22,0 -0.28,-0.13 -0.05,-0.13 -0.19,-0.08 -0.28,-0.12l0.1 0.95z"/>
   <path class="fil11" d="M22.95 22.75c-0.01,1.29 -0.34,1.6 -1.52,1.97l-0.11 0.31c-0.48,0.83 -1.09,1.32 -1.71,1.71 -0.89,-0.49 -0,-0.28 -1.41,-0.26l0.14 -1.82c0.45,0.85 0.08,0.25 -0.28,0.49l-0.48 1.28 -0.39 0.93 -0.13 0.74 -0.18 1.91 2.09 0.16c-0.4,-0.71 0.01,-0.82 -1.84,-1.21 0.09,-0.1 0.7,-0.75 0.71,-0.76l0.38 -0.64c0.03,-0.05 0.07,-0.17 0.11,-0.25l1.27 1.01c0.14,-1.14 1.43,-1.74 2.36,-2.09 0.46,-1.21 -0.24,0.2 0.55,-0.64 0.04,-0.05 0.12,-0.11 0.16,-0.16 0.05,-0.05 0.12,-0.12 0.16,-0.17 0.2,-0.22 0.31,-0.36 0.47,-0.56l1.44 -1.73c0.11,-0.23 0.7,-1.19 0.72,-1.23 0.33,-0.81 0.33,-0.36 0.12,-1.43l-1.38 -0.01c-0.07,0.72 -0.08,0.88 -0.36,1.5 -0.64,1.46 0.06,0.66 -0.88,0.96z"/>
   <path class="fil12" d="M19.92 11.07c-0.09,1.67 -0.09,-0.09 0.09,1.14 0.06,0.44 0.16,0.59 0.18,1.02 0.03,0.81 -0.23,1.37 -0.41,2.11l-0.47 1.42c0.61,-1.26 -0.01,-0.28 1.15,-0.81l-0.39 3.2c1.34,-0.59 1.4,-1.31 2.05,-4.4 0.32,-1.54 0.19,-3.44 -0.44,-4.86l-0.25 -0.54c-1.03,0.75 -0.53,0.59 -0.77,0.93 -0.7,0.95 0.59,0.34 -0.74,0.8z"/>
   <path class="fil7" d="M24.7 30.78c-0.2,0.5 -0.08,0.52 0.32,0.94 1.76,-0.44 0.84,-1.46 1.37,-3.31l0.19 -0.43c0.86,-2.03 -0.13,0.93 0.28,-0.56l-1.42 -0.36 -3.65 0.68c0.74,1.53 1.31,0.61 0.65,2.05 0.43,0.07 1.92,0.31 2.16,-0.22 0.06,-0.14 0.19,-0.12 0.36,-0.18l-0.25 1.38z"/>
   <path class="fil13" d="M19.28 3.74c0.99,0.3 0.33,-0.24 0.8,0.59 1.29,-0.3 1.67,0.63 2.07,1.4 1.6,0.17 1.64,0.35 3.21,-0.07l1.6 0.15 2.41 0.52 -0.07 -1.29 0.05 -0.46c-1.01,0.14 -1.75,0.02 -2.77,0.06 -1.3,0.04 -1.37,0.23 -2.53,0.46 -0.96,-0.31 -0.39,-0.08 -1.12,-0.48 -0.01,-0.01 -0.5,-0.33 -0.6,-0.4 -0.4,-0.28 -0.75,-0.54 -0.94,-0.72l-0.96 -0.12c-1.73,-0.37 -0.29,-0.13 -1.15,-0.56 -1.04,-0.52 0.62,-0.18 -1.04,-0.26 0.65,1.15 0.38,0.23 1.03,1.19z"/>
   <path class="fil12" d="M12.97 16.32l0.42 1.58c0.03,0.08 0.15,0.07 0.19,0.08l0.57 0.12c0.03,0.01 0.13,0 0.19,0.02 -0.28,1.24 -0.13,1.31 -0.9,2.11 -1.63,1.7 -0.74,1.41 -1.72,2.03l0.11 0.87 -0.09 0.58c1.05,-0.88 0.35,-1.05 1.04,-2 0.4,-0.56 -0.19,-0.39 0.69,-0.4l0.43 -0.43c0.18,-1.74 0.92,-1.33 1.63,-2.19 0.64,-0.78 -0.81,0.71 0.23,-0.36 0.74,-0.76 1.03,-0.37 1.26,-1.97 -1.21,-0.31 -0.76,-0.16 -1.21,-1.06 -0.59,0.7 -0.06,0.21 -0.85,0.69 -0.76,0.46 -0.51,0.29 -1.05,0.48 -0.45,-0.55 -0.06,-0.08 -0.41,-0.59l-0.37 -0.57 -0.13 1z"/>
   <path class="fil14" d="M18.86 1.32c0.49,0.69 0.87,0.96 1.58,1.33l1.07 -0.12 -0.12 0.96c0.2,0.19 0.54,0.45 0.94,0.72 0.1,0.07 0.58,0.39 0.6,0.4 0.73,0.4 0.16,0.16 1.12,0.48l-0.32 -0.32 0 -1.59c0.61,-0.61 -0.91,-0.76 -1.59,-0.95 -0.12,-1.83 0.24,-0.71 -0.72,-1.55 -0.6,-0.52 -1.12,-0.61 -2.14,-0.68l-0.43 1.32z"/>
   <path class="fil15" d="M29.38 6.32l0.59 0.28c0.05,0.02 0.15,0.02 0.21,0.03 0.87,0.22 -0.35,-0.21 0.6,0.12 0.2,0.07 0.84,0.43 1.14,0.63l0.05 1.03c0.23,0.12 0.13,0.19 0.71,0.25 0.56,0.06 0.66,-0.01 1.09,-0.08 1.87,-0.16 3.21,0.07 4.81,-0.22 -0.29,-0.57 0.01,-0.53 -0.36,-0.84 -0.94,-0.01 -3.38,0.02 -4.17,-0.18 -0.44,-0.11 -2.31,-1.16 -2.67,-1.32l-1.27 0.04c-0.17,-0.37 -0.13,0.07 -0.1,-0.5 0,-0.05 0.16,-0.34 0.21,-0.44l-0.91 -0.09 0.07 1.29z"/>
   <path class="fil9" d="M31.69 9.42l5.51 0.01 1 0.19c0,0.16 0.07,0.2 0.06,0.28l-0.31 0.38c-0.48,0.86 -0.29,0.71 -1.59,0.73 -0.19,0.57 -0.23,0.89 -0.4,1.71 0.78,-0.33 3.63,-1.87 4.44,-2.54 -0.07,-0.05 -0.19,-0.2 -0.23,-0.13l-1.24 -0.84c-3.27,-0.9 -4.06,0.37 -5.19,-0.63 -0.42,0.06 -0.52,0.13 -1.09,0.08 -0.58,-0.06 -0.48,-0.13 -0.71,-0.25l-1.54 -0.69c0.39,0.92 0.14,0.32 0.65,0.93 0.18,0.21 0.39,0.34 0.62,0.78z"/>
   <path class="fil16" d="M23.4 7.1c-0.38,0.33 -0.17,0.15 -0.54,0.59 -0.18,0.22 -0.28,0.37 -0.45,0.56 -0.91,1.07 -0.22,-0.24 -1.02,1.21l1.29 0.02c0.6,-1.18 0.02,-0.7 1.29,-1.2l-0.44 2.02 1.3 -0.07 0.12 -1.96c0.05,-0.03 0.13,-0.08 0.18,-0.12l0.61 -0.45c0.05,-0.04 0.15,-0.12 0.22,-0.17l1.59 0.26 0.62 -0.12 -0.1 -0.94 -3.75 -0.35 -0.65 0.1 -0.15 0.51 1.07 -0.06c-0.05,0.14 -0.13,0.16 -0.16,0.3l-0.69 0.88c-0.31,-0.38 -0.2,-0.12 -0.34,-1.02z"/>
   <path class="fil17" d="M16.75 13.6l1.28 -0.5 0.92 -0.2c0.02,2 -0.45,0.34 -0.62,2.04l0.55 0.38 0.89 0.01c0.18,-0.74 0.43,-1.3 0.41,-2.11 -0.01,-0.43 -0.11,-0.59 -0.18,-1.02 -0.18,-1.23 -0.18,0.54 -0.09,-1.14l-0.64 0.15 -1.43 -0.64c-0.19,0.44 -0.91,2.07 -1.14,2.42l-1.62 1.68c1.28,-0.52 0.5,-0.41 1.65,-1.08z"/>
   <path class="fil5" d="M8.6 21.05c-0.66,1.48 -1.04,1.3 -1.47,1.71 -1.45,1.4 -0.47,2.15 -2.35,1.1 0.89,-2.05 0.28,1.01 0.76,-1.15 0.03,-0.13 0.12,-0.13 0.18,-0.2l-1.36 0.08c-0.3,0.51 -0.33,0.32 -0.28,1.01l0.04 0.77c1.47,0.23 0.98,0.03 1.37,1.22l0.73 0.78c0.05,-0.05 0.75,-0.4 0.84,-0.46 0.08,-1.39 0.31,-1.31 1.24,-2.37 -0.1,-1.28 -0.36,-0.8 0.55,-1.89 1.27,-0.51 0.68,-0.63 2.03,-0.98 -0.6,-0.41 0.98,-0.87 -1.3,-0.01 -0.58,0.22 -0.23,0.2 -0.98,0.41z"/>
   <path class="fil18" d="M38.95 9.21l1.24 0.84c0.04,-0.07 0.16,0.08 0.23,0.13 -0.81,0.67 -3.66,2.21 -4.44,2.54l-0.44 0.03 -0.02 0.02c0.01,1.29 0.05,0.67 -0.43,1.33l0.08 1.47c0.06,-0.12 0.21,-0.39 0.27,-0.32 0.06,0.08 0.22,-0.25 0.28,-0.32 0.06,-0.07 0.23,-0.19 0.3,-0.32l-0.12 0.97c1.42,-3.45 -0.26,-2.05 3.43,-3.51l0.7 -0.69c0.55,-0.46 0.13,-0.27 0.91,-0.19 0,-0.55 -0.11,-0.39 0.49,-0.23 -0.14,-0.63 -0.33,-0.53 0.23,-0.53l-0.03 -0.84c-0.66,0 -0.52,0.18 -0.52,-0.44l0.14 0.13 -0.78 -0.44 -0.26 0.32c-0.65,-0.03 -0.35,-0.01 -1.24,0.02z"/>
   <path class="fil1" d="M0.52 27.56c0.53,0 0.35,-0.11 0.35,0.51l0.29 0.07 1.05 0.49 0.22 -0.16 0.75 0.47 1.05 -0.18 0.31 -0.15c-0.07,-0.1 -0.13,-0.18 -0.22,-0.31l-0.43 -0.63c-0.07,-0.11 -0.14,-0.21 -0.2,-0.32 1.76,0.65 0.36,0.61 2.03,0.11l-0.06 -0.02 -1.51 -0.94c-0.04,-0.1 -0.16,-0.05 -0.23,-0.08l-0.53 -0.36 -1.89 -0.2c-0.26,0.6 -0.53,1.11 -1,1.7z"/>
   <path class="fil19" d="M25.57 20.3l1.35 0.06c-0.42,-2.2 0.05,-0.11 0.96,-2.74 0.39,-1.14 0.76,-1.86 1,-3.01 0.07,0.03 0.15,0.09 0.19,0.12 0.73,0.46 0.29,1.43 0.72,0.44 0.02,-0.05 0.12,0.07 0.16,0.08l0.55 -2.47c-0.7,0.25 -0.47,0.31 -1.29,0.99l-0.51 0.4c-0.57,0.67 -0.15,0.29 -0.47,1.05l-0.72 1.05c-0.85,0.68 -0.56,-0.47 -1.37,1.84 -0.06,0.17 -0.44,1.12 -0.44,1.15 -0.12,0.4 -0.18,0.4 -0.13,1.04z"/>
   <path class="fil20" d="M8.16 18.81l0.13 0.19c-0.48,1.04 -0.58,1.51 -1.35,2.11l0.03 0.96c1.27,-0.47 -0.22,-0.34 1.64,-1.02 0.75,-0.2 0.41,-0.19 0.98,-0.41 2.27,-0.87 0.69,-0.4 1.3,0.01l0.13 0.67c0.54,-1.93 -1.01,-1.96 -0.48,-2.12l0.43 -0.83c-0.4,-0.15 0.08,-0.35 -1.09,0.7l0.67 -1.71c-1.11,0.14 -0.34,-0.16 -1.88,1.09l-0.5 0.37z"/>
   <path class="fil19" d="M30.51 12.78c0.86,-0.01 1.94,0.05 2.79,0.02 0.94,-0.03 1.08,-0.14 2.22,-0.02l0.02 -0.02 -0.02 -0.62 -1.74 0 0.23 -0.51 1.51 -1.59c-2.84,-0.14 -2.08,0.59 -3.49,1.05 -0.07,0.02 -0.87,0.16 -1.03,0.23 -0.3,0.81 -0.31,0.6 -0.48,1.46z"/>
   <path class="fil21" d="M31.06 26.55l0 0.39c-0.76,0.81 0.13,0.14 -0.84,0.67 -0.34,0.19 -0.36,0.13 -0.5,-0.01l0.01 2.16 0.06 1.93 0 2.11c0.05,-1.56 -0.39,-0.87 0.96,-1.05 0,-1.84 0.25,-1.44 0.63,-1.91 1.58,1.9 0.32,2.22 0.32,2.22 0.02,-2.78 0.3,-4.79 -0.55,-6.68 0.47,0.39 0.17,0.13 -0.09,0.15z"/>
   <path class="fil22" d="M11.02 21.32c-0.04,0.07 -0.12,0.1 -0.14,0.21 -0.04,0.3 -0.47,0.32 -0.32,1.11l-0.12 -0.03 1.27 -0.35c0.98,-0.61 0.09,-0.33 1.72,-2.03 0.77,-0.8 0.62,-0.87 0.9,-2.11 -0.06,-0.02 -0.16,-0.02 -0.19,-0.02l-0.57 -0.12c-0.03,-0.01 -0.16,-0 -0.19,-0.08l-0.42 -1.58c0.19,0.91 -0.5,1.77 -0.81,2.59 -0.39,1.03 -0.38,2.54 -1.14,2.41z"/>
   <path class="fil23" d="M12.08 14.58l0.07 0.62 -0.39 1.71 -0.5 0.11c-0.04,0.69 0.16,1.36 -0.3,1.36l-0.43 0.83c-0.53,0.16 1.02,0.19 0.48,2.12 0.76,0.13 0.75,-1.38 1.14,-2.41 0.31,-0.82 1,-1.68 0.81,-2.59l0.13 -1 0.06 -0.83c-0.76,-0.34 -0.17,-0.23 -1.07,0.08z"/>
   <path class="fil20" d="M27.33 24.84l0.17 1.27c-0.05,0.1 -0.11,0.22 -0.14,0.29l-0.5 1.03c0.67,0.47 0.49,-0.69 0.3,1.09 -0.04,0.38 -0.23,0.74 -0.26,1.38 -0.05,0.93 0.11,1.82 0.05,2.87l-2.06 -0.37 0.11 0.68 0.19 -0.12c1.5,0.59 2.15,1.84 2.31,-0.16 0.14,-1.74 -0.78,-3.11 0.34,-4.39l0.09 -1.93c-0.04,-1.33 -0.6,-1.03 0.4,-1.12l0.08 -0.97 -0.05 -0.39c-0.04,0.04 -0.46,0.39 -0.55,0.47 -0.05,0.04 -0.19,0.25 -0.23,0.18 -0.04,-0.07 -0.16,0.13 -0.25,0.19z"/>
   <path class="fil24" d="M28.02 19.72l-0.01 1.06c-0.92,-0 0.04,0.24 -1.08,-0.42l-0.02 1.59c0.17,0.14 -0.07,0.15 0.71,-0 1.11,0.07 1.25,-0.4 1.77,-1.01 0.03,-0.07 0.1,-0.16 0.13,-0.2 0.68,-1.05 0.51,-0.72 0.61,-2.1 0.01,-0.08 0.03,-0.15 0.03,-0.31 0,-0.17 0.03,-0.22 0.03,-0.33l-1.19 -0.02c-0.12,0.68 0.01,0.5 -0.27,1 -0.78,1.45 0.04,0.13 -0.72,0.74z"/>
   <path class="fil25" d="M0.67 23.36l0.19 1.13c0.3,0.09 0.8,0.07 1.64,0.16l-0.06 -0.25c-1.09,-0.59 -0.57,-0.08 -0.77,-0.86l1.12 -0.52c0.44,-0.11 1.92,-0.89 2.54,-1.18 -0.4,-1.01 0.3,0.05 -0.51,-1 -1.24,0.25 -1.57,0.48 -2.61,1.18 -0.78,0.53 -1.32,0.68 -1.53,1.35z"/>
   <path class="fil20" d="M16.43 20.86c0.16,1.8 -0.93,1.56 -0.32,3.27 1.48,-0.54 1.84,-2.2 2.43,-3.12l0.43 -1.29c-2.13,0.33 -0.53,-0.05 -1.59,0.6 -0.88,0.54 0.37,0.05 -0.95,0.54z"/>
   <path class="fil26" d="M24.7 30.78c-0.35,0.84 0.43,0.4 -0.65,0.7 -0.8,0.22 -0.52,0.09 -1.39,-0.08l0.96 0.64 1.27 0.36 2.06 0.37c0.06,-1.05 -0.1,-1.94 -0.05,-2.87 0.03,-0.64 0.22,-1 0.26,-1.38 0.19,-1.78 0.37,-0.62 -0.3,-1.09 -0.41,1.49 0.58,-1.47 -0.28,0.56l-0.19 0.43c-0.54,1.84 0.39,2.87 -1.37,3.31 -0.39,-0.42 -0.51,-0.44 -0.32,-0.94z"/>
   <path class="fil27" d="M25.18 32.95c0.77,2.22 0.53,0.85 -0.34,1.29l0.26 0.63c1.55,-0.19 1.1,-0.42 2.03,0.23 0.17,-0.4 0.3,-0.81 0.48,-1.13l0.52 0.66 0.76 -2.38c-1.05,-0.16 -0.79,0.67 -1.15,-1.36 -0.22,-1.23 -0.15,-1.29 0.1,-2.49 -1.12,1.28 -0.2,2.64 -0.34,4.39 -0.16,2 -0.81,0.75 -2.31,0.16z"/>
   <path class="fil28" d="M14.2 7.49c0.09,-0.03 0.23,-0.17 0.28,-0.1 0.06,0.08 0.21,-0.08 0.28,-0.12 0.08,-0.04 0.47,-0.23 0.56,-0.29l0.22 -0.95 -0.08 -0.98c-0.25,-2.01 -0.11,-1.88 0.01,-3.75l1.03 -0.02 -0.09 -0.61c-0.99,-0.06 -1.64,-0.03 -1.81,0.86 -0.45,2.4 0.44,3.83 0.36,4.17 -0.86,1.19 -0.61,-0.1 -0.77,1.77z"/>
   <path class="fil29" d="M17.02 15.65l-0.03 0.71c-0.24,1.6 -0.52,1.21 -1.26,1.97 -1.04,1.07 0.41,-0.43 -0.23,0.36 -0.71,0.87 -1.44,0.45 -1.63,2.19l-0.14 -0.56c0.16,-0 0.38,0.02 0.41,0.21 0.03,0.17 0.16,0.21 0.25,0.31l0.62 -0.52 0.45 -0.65c0,-0.01 0.2,-0.74 0.35,-0.91 1.21,-0.17 1.01,-0.12 1.63,-1.14l0.23 -0.18 1.21 -2.12 -1.65 -0.17c0.14,0.6 0.31,0.5 -0.22,0.5z"/>
   <path class="fil30" d="M9.12 29.64l0.06 2.63c1.3,1.02 2.63,0.67 3.84,-0.48l-0.83 0.12 -0.73 -0.38c-0.19,1.25 0.94,0.02 -0.73,1.23l0.59 -2.55c-0.97,0.7 -0.49,0.24 -1.07,1.03 -0.75,-1.19 -0.23,-0.36 -0.21,-2.15 -0.08,0.06 -0.18,0.15 -0.23,0.19l-0.7 0.36z"/>
   <path class="fil4" d="M28.02 19.72c0.76,-0.61 -0.06,0.71 0.72,-0.74 0.27,-0.5 0.14,-0.32 0.27,-1l1.19 0.02c0.04,-0.04 0.11,-0.1 0.13,-0.12 0.67,-0.72 1.92,-2.9 0.73,-3.41 -0.83,0.51 -0.13,0.44 -0.63,1.34 -1.04,1.88 -0.92,-0.14 -1.8,1.46l-0.61 2.45z"/>
   <path class="fil31" d="M7.44 17.66l0.07 0.75 -0.78 0.36 -0.52 0.74c-0.56,1.28 -0.05,0.59 -0.91,0.81l0.14 -0.13c0,0.89 0.2,0.63 -0.78,0.58l0.15 0.08c0.81,1.04 0.11,-0.02 0.51,1l0.6 -0.08c0.16,-0.33 0.33,-0.78 0.55,-1.1 0.48,-0.72 0.54,-0.48 0.9,-1.47l0.92 -0.18 -0.13 -0.19c1.12,-1.91 -0.37,0.47 0.94,-1.04 0.7,-0.8 0.27,0.18 0.44,-0.86l-1.06 0.06c-0.01,0.01 -0.42,0.41 -0.42,0.41 -0.59,0.42 0.11,0.02 -0.62,0.28z"/>
   <path class="fil32" d="M10.54 14.31l0.12 0 -0.18 1.09 -0.28 0.82c-0.46,0.27 0.62,0.51 -0.77,0.1l0.11 0.59c-0.17,1.04 0.26,0.05 -0.44,0.86 -1.31,1.52 0.17,-0.87 -0.94,1.04l0.5 -0.37c1.54,-1.25 0.77,-0.94 1.88,-1.09l-0.06 -0.31 0.17 -1.2 0.52 -0.04 0.99 -0.61 -0.07 -0.62 0.67 -2.56c-0.97,0.55 -0.58,0.31 -1.19,1.25 -0.22,0.34 -0.04,0.17 -0.41,0.57 -0.31,0.34 -0.24,0.2 -0.62,0.48z"/>
   <path class="fil12" d="M12.83 29.47c-0.17,0.64 -0.07,0.34 -0.36,0.93 -0.37,0.78 -0.22,0.14 -0.34,0.79 0.38,-0.21 0.45,0.07 0.79,-0.38 0.94,0.64 0.26,-0.43 0.31,0.77 1.15,-0.35 0.69,-0.39 1.71,-0.57 0.32,-0.64 3.27,-0.47 4.09,-0.38l-0.07 -0.47 -2.09 -0.16c-1.04,-0.24 -0.35,0.26 -0.92,-0.45 -0.4,0.52 -0.4,0.89 -2.17,1.01 -0.11,-1.36 -0.34,-0.44 0.31,-1.7l-1.27 0.62z"/>
   <path class="fil25" d="M28.85 31.94c0.02,-0.14 0.15,-1.06 0.19,-1.17 0.33,-0.85 0.16,-0.52 0.69,-1.01l-0.01 -2.16c-0.55,-0.57 -0.06,0.22 -0.42,-0.6 -0,-0.01 -0.12,-0.72 -0.14,-0.8l-0.45 0.08c-0.46,1.26 -0.69,4.45 0.14,5.65z"/>
   <path class="fil1" d="M5.94 29.28l0.19 1.25c0.27,-0.72 0.8,-0.2 1.07,0.15l0.07 0.17c0.66,0.31 0.57,-0.36 0.57,0.32 0.43,0.36 0.31,-0.47 0.32,0.32 0.18,-2.46 -0.94,-2.89 -2.42,-4.03 -0.49,0.95 0.21,0.56 -0.76,0.85 0.11,0.08 0.2,0.23 0.27,0.3 0.07,0.07 0.19,0.2 0.25,0.27l0.44 0.4z"/>
   <path class="fil33" d="M14.4 28.49c0.19,0.88 0.16,0.16 -0.31,0.36 -0.65,1.26 -0.42,0.34 -0.31,1.7 1.78,-0.11 1.77,-0.49 2.17,-1.01 0.57,0.71 -0.12,0.21 0.92,0.45l0.18 -1.91 -1.02 -0.2 -0.26 0.25c-0.5,1.12 0.03,0.5 -0.94,1.2 -0.45,-0.41 -0.34,0.68 -0.43,-0.84z"/>
   <path class="fil34" d="M15.63 26.75l0.04 0.79 0.7 -0.3c0.51,-0.43 0.27,-0.62 1.21,-0.84l0.48 -1.28 0.05 -1.35c-1.08,0.35 -0.94,0.49 -1.7,1.35 -0.64,0.72 -0.67,0.74 -0.78,1.63z"/>
   <path class="fil31" d="M15.33 6.99l-0.31 1.24 -0.97 0.36 -0.13 0.32c0.09,0.96 0.39,0.96 -0.43,0.56 0.11,0.88 0.29,0.43 -0.56,0.69l0.11 0.17 -0.14 0.87 1.08 -0.2 -0.1 0.12c0.45,-2 0.61,-1 1.38,-2.11 0.19,-0.28 0.94,-1.84 1.15,-2.34 -0.63,-0.78 0.21,-0.2 -0.85,-0.63l-0.22 0.95z"/>
   <path class="fil35" d="M1.52 25.86l1.89 0.2c1.17,0.3 0.36,0.27 0.7,-0.47l-0.67 0.1 -0.22 -0.71 -0.72 -0.34c-0.84,-0.09 -1.34,-0.06 -1.64,-0.16l-0.19 -1.13c-0.68,0.66 -0.36,-0.24 -0.63,0.84 -0.27,1.09 1.23,1.59 1.24,1.56 0.04,-0.07 0.16,0.06 0.24,0.1z"/>
   <path class="fil36" d="M18.1 31.64c1.1,0.06 1.62,-0.07 2.14,0.45l1.35 -0c-0.24,-0.84 -0.24,-0.62 -0.93,-1.17l-0.48 -0.38 -0.58 0.11 -0.57 -0.02c-0.82,-0.09 -3.76,-0.26 -4.09,0.38 1.54,0.01 2.3,0.07 3.84,-0.18l-0.37 0.42c-0.04,0.05 -0.25,0.31 -0.32,0.39z"/>
   <path class="fil37" d="M10.97 11.52l-0.55 1.06 0.12 1.73c0.37,-0.28 0.31,-0.14 0.62,-0.48 0.37,-0.41 0.19,-0.24 0.41,-0.57 0.6,-0.94 0.22,-0.7 1.19,-1.25l0.04 -0.21 0.1 -0.6 0.14 -0.87 -2.07 1.19z"/>
   <path class="fil38" d="M29.39 20.94c-0.52,0.61 -0.66,1.08 -1.77,1.01 -0.62,0.97 0.3,0.06 -0.66,0.88 0.55,0.83 0.31,0.32 0.71,0.62l-0.33 1.39c0.08,-0.06 0.2,-0.26 0.25,-0.19 0.04,0.07 0.18,-0.14 0.23,-0.18 0.09,-0.07 0.51,-0.43 0.55,-0.47l-0.13 -0.98 1.81 -1.13c0.6,-0.94 0.17,-0.06 0.57,-1.13l-1.22 0.18z"/>
   <path class="fil9" d="M5.81 22.26l-0.09 0.24c-0.05,0.07 -0.15,0.08 -0.18,0.2 -0.48,2.16 0.13,-0.9 -0.76,1.15 1.89,1.05 0.9,0.3 2.35,-1.1 0.43,-0.41 0.81,-0.23 1.47,-1.71 -1.86,0.68 -0.37,0.55 -1.64,1.02l-0.03 -0.96 -1.13 1.15z"/>
   <path class="fil12" d="M15.47 19.67c0.91,0.52 0.73,-0.94 0.66,0.5l-0.32 0.82c0.1,-0.09 0.33,-0.31 0.36,-0.21 0.02,0.07 0.18,-0.18 0.2,-0.21 0.01,-0.02 0.05,-0.14 0.05,-0.21 0.39,0.46 0.26,-0.23 0,0.5 1.32,-0.49 0.07,0 0.95,-0.54 1.06,-0.65 -0.54,-0.27 1.59,-0.6l-0.43 1.29 0.63 -1.59c-0.07,0.03 -0.67,0.11 -0.73,0.1 -1.04,-0.06 -0.12,0.1 -0.56,-0.13l0.14 -0.47c-1.02,-0.51 -0.96,1.02 -0.56,-1.3 -0.62,1.02 -0.42,0.97 -1.63,1.14 -0.16,0.17 -0.35,0.9 -0.35,0.91z"/>
   <path class="fil39" d="M33.33 17.77l-0.73 0.88c-0.37,0.39 -0.16,0.06 -0.48,0.75 -0.35,0.8 -0.26,0.24 -0.23,1.27 0.82,-0.66 0.59,-0.8 1.49,-1.34l-0.14 -0.61 0.69 0.37c0.05,-0.61 -0.11,-0.42 0.52,-0.55 0.19,-0.68 0.19,-0.28 -0.21,-0.42l0.35 -1.36 0.06 -0.57 -0.62 -0.01 -0.71 1.58z"/>
   <path class="fil40" d="M2.78 23.02c-0.05,0.09 -0.23,0.54 -0.26,0.63 -0.03,0.11 -0.04,0.4 -0.06,0.36 -0.02,-0.04 -0.02,0.26 -0.03,0.38l0.06 0.25 0.72 0.34 0.79 0.12 0.1 0.49 0.94 0.05c-0.56,-0.96 -0.8,-0.73 -1.82,-1.47 0.46,-0.65 -0.06,-0.22 0.85,-0.58 -0.05,-0.69 -0.02,-0.51 0.28,-1.01l1.36 -0.08 0.09 -0.24 0.11 -0.51 -0.6 0.08c-0.61,0.29 -2.09,1.07 -2.54,1.18z"/>
   <path class="fil41" d="M30.04 21.9l-0.77 1.43c-0.42,0.71 0.06,0.49 -0.86,1.06l-0.08 0.97c0.44,0.33 0.23,-0.73 0.38,0.93l0.45 -0.08c-0.05,-1.31 -0.11,-0.52 0.31,-0.79l0.01 -0.79 -0.01 -0.97 0.89 -0.14 0.83 -0.46c-0.07,-0.08 -0.18,-0.17 -0.21,-0.24 -0.03,-0.06 -0.13,-0.16 -0.15,-0.24 -0.02,-0.07 -0.05,-0.18 -0.06,-0.25 -0.01,-0.08 0.3,-0.69 0.32,-0.8 -1.12,0.75 -0.05,0.27 -1.07,0.37z"/>
   <path class="fil42" d="M24.74 22.96l2.22 -0.14c0.96,-0.81 0.04,0.09 0.66,-0.88 -0.79,0.15 -0.55,0.14 -0.71,0l0.02 -1.59 -1.35 -0.06c0.21,1.08 0.21,0.62 -0.12,1.43 -0.02,0.04 -0.6,1.01 -0.72,1.23z"/>
   <path class="fil43" d="M18.97 30.15l0.07 0.47 0.57 0.02c-0.54,-0.87 -0.24,-0.72 -0.95,-1.06 0.62,-1.5 -0.13,-0.23 0.9,-1.03l2.41 -2.33c-0.93,0.35 -2.22,0.96 -2.36,2.09l-1.27 -1.01c-0.04,0.08 -0.08,0.19 -0.11,0.25l-0.38 0.64c-0,0 -0.61,0.65 -0.71,0.76 1.85,0.39 1.44,0.5 1.84,1.21z"/>
   <path class="fil44" d="M27.92 26.48l-0.09 1.93c-0.25,1.2 -0.33,1.25 -0.1,2.49 0.37,2.03 0.1,1.2 1.15,1.36l-0.04 -0.31c-0.83,-1.19 -0.6,-4.39 -0.14,-5.65l-0.78 0.19z"/>
   <path class="fil22" d="M24.32 6.39l3.75 0.35 0.1 0.94 1.97 0.04 0.13 -0.78 -1.11 0.4c-0.39,-0.37 -0.43,-0.49 -0.85,-0.74l-1.35 -0.78 -1.6 -0.15c-0,0 -0.58,0.36 -0.62,0.39 -0.05,0.03 -0.17,0.23 -0.21,0.17 -0.04,-0.07 -0.14,0.12 -0.21,0.18z"/>
   <path class="fil31" d="M15.93 5.23c0.12,1.5 -0.1,0.21 0.64,0.76l0.19 -3.69c1.27,0.34 0.23,0.32 1.48,0.25l-0.05 -0.49c-1.53,-0.49 -0.88,0.12 -1.69,-0.75 -0.28,2.11 -0.53,0.05 -0.62,1.82 -0.03,0.64 0.15,1.05 0.05,2.11z"/>
   <path class="fil45" d="M18.25 2.54c1.65,0.08 -0.01,-0.26 1.04,0.26 0.87,0.43 -0.57,0.19 1.15,0.56l0 -0.72c-0.71,-0.37 -1.09,-0.64 -1.58,-1.33l-0.21 0.14c-1.07,-0.21 -0.3,0 -0.93,-0.31 -0.08,-0.04 -0.19,-0.07 -0.25,-0.21 -0.06,-0.15 -0.16,-0.16 -0.24,-0.24l-0.81 -0 0.09 0.61c0.82,0.87 0.16,0.27 1.69,0.75l0.05 0.49z"/>
   <path class="fil45" d="M8.87 13.59c-0,0.21 -0.19,1.07 -0.19,1.1 0.06,1.12 -0.29,0.55 0.51,1.1 0.56,-0.61 0.7,-0.95 1.47,-1.47l-0.12 -0 -0.12 -1.73 -0.78 0.11 0.09 0.69 -0.86 0.22z"/>
   <path class="fil46" d="M14.48 22.27l-0.95 2.78c0.06,0.06 0.15,0.07 0.18,0.18 0.04,0.11 0.15,0.13 0.2,0.16 0.57,0.36 -0.12,-0.01 0.72,0.39l-0.05 -1.91c0.88,-0.39 0.99,-1.89 0.95,-2.81 -0.63,0.6 -0.5,0.85 -1.05,1.22z"/>
   <path class="fil47" d="M21.32 25.02l-1.58 0.15 -0.77 0.33 0.05 -0.8 -0.69 -0.06 -0.14 1.82c1.41,-0.02 0.52,-0.22 1.41,0.26 0.62,-0.39 1.24,-0.88 1.71,-1.71z"/>
   <path class="fil44" d="M30.15 7.71l0.28 0 1.54 0.69 -0.05 -1.03c-0.3,-0.2 -0.94,-0.56 -1.14,-0.63 -0.95,-0.33 0.26,0.1 -0.6,-0.12 -0.05,-0.01 -0.16,-0.02 -0.21,-0.03l-0.59 -0.28 -2.41 -0.52 1.35 0.78c0.42,0.26 0.46,0.38 0.85,0.74l1.11 -0.4 -0.13 0.78z"/>
   <path class="fil48" d="M31.69 9.42c-0.23,-0.44 -0.44,-0.58 -0.62,-0.78 -0.51,-0.6 -0.26,-0.01 -0.65,-0.93l-0.28 -0 -1.97 -0.04 0.14 0.73c0.79,0.2 0.68,0.09 1.28,0.4 1.09,0.55 0.31,-0.17 0.83,0.78l1.26 -0.16z"/>
   <path class="fil49" d="M23.67 6.48l0.65 -0.1c0.07,-0.06 0.17,-0.25 0.21,-0.18 0.04,0.06 0.16,-0.14 0.21,-0.17 0.04,-0.03 0.62,-0.39 0.62,-0.39 -1.58,0.42 -1.62,0.25 -3.21,0.07 -0.4,-0.77 -0.77,-1.7 -2.07,-1.4 0.76,0.71 0.52,0.08 1.21,1.03 0.32,0.45 0.51,1.06 0.7,1.49l1.68 -0.35z"/>
   <path class="fil50" d="M33.76 8.58c1.13,1 1.92,-0.27 5.19,0.63 0.89,-0.02 0.59,-0.04 1.24,-0.02 -0.06,-0.09 -0.23,-0.44 -0.26,-0.49 -0.03,-0.05 -0.21,-0.37 -0.28,-0.45l-1.08 0.11c-1.61,0.29 -2.94,0.06 -4.81,0.22z"/>
   <path class="fil44" d="M14.4 20.85l-0.88 0.59 -0.52 1.5c0.1,0.74 -0.13,0.6 0.5,0.6l0.42 -1.42 0.55 0.15c0.55,-0.38 0.42,-0.62 1.05,-1.22 -0.19,-1.07 0.06,-0.4 -0.5,-0.72l-0.62 0.52z"/>
   <path class="fil51" d="M31.89 20.68c-0.39,0.5 -0.31,0.41 -0.79,0.85 -0.02,0.1 -0.34,0.72 -0.32,0.8 0.01,0.07 0.04,0.18 0.06,0.25 0.02,0.07 0.13,0.18 0.15,0.24 0.03,0.07 0.13,0.17 0.21,0.24 1.32,-0.71 1.08,-0.17 1.44,-1.31l-0.62 -0.43c0.72,-1.68 0.81,-1.03 0.86,-1.08 0.62,-0.65 0.98,0.59 0.51,-0.9 -0.9,0.54 -0.67,0.68 -1.49,1.34z"/>
   <polygon class="fil40" points="17.68,17.44 17.57,18.52 18.29,18.13 19.31,16.75 19.78,15.34 18.89,15.32 "/>
   <path class="fil52" d="M19.48 23.72l0.85 -0.74c0.04,-0.03 0.12,-0.11 0.19,-0.16l-0 -2.39c-0.39,0.37 -0.79,0.94 -1.15,1.62 -1.22,2.31 0.12,1.67 0.12,1.67z"/>
   <path class="fil31" d="M33.38 19.34c0.47,1.48 0.1,0.24 -0.51,0.9 -0.04,0.05 -0.14,-0.6 -0.86,1.08l0.62 0.43c1.17,-0.42 1.55,-1.37 1.3,-2.64l-0.69 -0.37 0.14 0.61z"/>
   <path class="fil21" d="M39.33 12.1l1.28 1.58c0.75,0 0.56,0.2 0.76,-0.32l0.2 -0.05c-0.1,-1.12 -0.29,-0.82 -1.08,-1.42l-0.45 -0.48 -0.7 0.69z"/>
   <path class="fil53" d="M32.64 16.53c0.54,-0.11 0.65,-0.13 1.4,-0.34 -0.43,-0.88 -0.36,-0.39 -0.32,-1.23 0.37,-1.02 -0.32,-0.35 0.81,-0.84l-0.11 -0c0.2,-0.88 -0.11,-0.45 0.44,-1.08 -0.78,0.5 -1.24,0.59 -1.97,0.97 0.04,0.08 0.12,0.19 0.14,0.24 0.83,1.6 0.61,-0.29 0.17,0.66 -0.18,1.72 -0.1,0.28 -0.54,1.63z"/>
   <path class="fil54" d="M19.92 34.18c-0.9,0.09 -3.55,-0.14 -4,0.53 0.71,0.29 1.16,0.38 2.09,0.34 0.04,-0 0.98,-0.11 0.99,-0.12 1.28,-0.46 0.11,0.48 0.92,-0.75z"/>
   <path class="fil37" d="M15.47 5.06l0.47 0.16c0.1,-1.05 -0.08,-1.47 -0.05,-2.11 0.09,-1.78 0.34,0.29 0.62,-1.82l-1.03 0.02c-0.12,1.87 -0.25,1.74 -0.01,3.75z"/>
   <path class="fil55" d="M29.16 26.21c0.01,0.08 0.13,0.8 0.14,0.8 0.36,0.82 -0.13,0.03 0.42,0.6 0.15,0.14 0.16,0.19 0.5,0.01 0.97,-0.53 0.07,0.14 0.84,-0.67l-0.73 -0.56c-1.16,-0.76 -0.3,0.09 -0.85,-0.97 -0.42,0.27 -0.36,-0.52 -0.31,0.79z"/>
   <path class="fil22" d="M5.92 21.75l-0.11 0.51 1.13 -1.15c0.77,-0.61 0.87,-1.07 1.35,-2.11l-0.92 0.18c-0.36,0.99 -0.42,0.76 -0.9,1.47 -0.22,0.33 -0.39,0.77 -0.55,1.1z"/>
   <path class="fil16" d="M17.24 15.15l1.65 0.17 -0.55 -0.38c0.17,-1.71 0.64,-0.04 0.62,-2.04l-0.92 0.2 -0.54 1.63c-0.03,0.04 -0.1,0.26 -0.12,0.2 -0.02,-0.05 -0.08,0.14 -0.12,0.21z"/>
   <path class="fil56" d="M33.72 14.96c-0.04,0.83 -0.11,0.34 0.32,1.23l0.62 0.01 0.51 -0.62 -0.08 -1.47 -0.67 0.01 0.11 0c-0.37,0.96 0.09,0.5 -0.81,0.84z"/>
   <path class="fil57" d="M10.56 22.64c0.19,0.78 0.36,0.87 -0.11,1.91l-0.28 0.41c-0.24,0.41 -0.24,-0.03 -0.34,0.74l1.67 -1.26c-0.66,-0.39 -0.38,-0.01 -0.43,-1.23l0.74 -0.08 -0.11 -0.87 -1.27 0.35 0.12 0.03z"/>
   <path class="fil58" d="M19.48 23.72c0.15,1.86 0.18,0.62 -0.45,0.99l-0.05 0.8 0.77 -0.33c0.42,-0.52 -0.35,-0.17 0.96,-0.68l-0.19 -1.67c-0.06,0.05 -0.15,0.13 -0.19,0.16l-0.85 0.74z"/>
   <path class="fil59" d="M7.44 17.66c0.73,-0.26 0.03,0.14 0.62,-0.28 0,-0 0.41,-0.4 0.42,-0.41l1.06 -0.06 -0.11 -0.59c0.16,-0.87 0.14,-0.22 -0.56,-0.47 -0.48,0.97 -2.03,0.04 -1.43,1.8z"/>
   <path class="fil28" d="M31.37 6.02c0,-1.5 -0.76,-1.58 -2.02,-1.45l-0.05 0.46 0.91 0.09c-0.05,0.09 -0.21,0.39 -0.21,0.44 -0.03,0.57 -0.07,0.13 0.1,0.5l1.27 -0.04z"/>
   <path class="fil34" d="M14.65 26.17l-0.03 -0.4c-0.83,-0.39 -0.15,-0.03 -0.72,-0.39 -0.05,-0.03 -0.16,-0.05 -0.2,-0.16 -0.04,-0.11 -0.12,-0.12 -0.18,-0.18 -0.42,1.2 -0.8,1.08 -1.36,2.63 0.9,-0.44 0.49,-0.32 1.14,-0.93 0.91,-0.86 0.04,-0.4 1.35,-0.57z"/>
   <path class="fil60" d="M34 11.62l-0.23 0.51 1.74 -0 0.02 0.62 0.44 -0.03c0.17,-0.82 0.2,-1.13 0.4,-1.71l-1.23 0.4c-0.09,0.03 -0.17,0.07 -0.26,0.09 -0.02,0.01 -0.81,0.11 -0.88,0.12z"/>
   <path class="fil61" d="M31.3 20.02l-0.56 0.28 -0.13 0.46c-0.41,1.08 0.03,0.2 -0.57,1.13 1.01,-0.09 -0.06,0.39 1.07,-0.37 0.48,-0.44 0.39,-0.35 0.79,-0.85 -0.03,-1.04 -0.12,-0.47 0.23,-1.27 -0.44,0.31 -0.52,0.37 -0.82,0.62z"/>
   <path class="fil62" d="M24.83 10.22l0.94 -2.52c0.09,0.06 0.19,0.13 0.27,0.19 0.08,0.06 0.17,0.12 0.27,0.19 0.1,0.07 0.17,0.13 0.28,0.2 0.44,0.31 0.24,0.21 0.93,0.62l0.03 -1.11 -1.59 -0.26c-0.08,0.06 -0.17,0.13 -0.22,0.17l-0.61 0.45c-0.05,0.03 -0.14,0.09 -0.18,0.12l-0.12 1.96z"/>
   <path class="fil63" d="M4.23 28.76l-0.21 0.34 1.92 0.18 -0.44 -0.4c-0.07,-0.07 -0.19,-0.2 -0.25,-0.27 -0.07,-0.08 -0.16,-0.22 -0.27,-0.3 0.97,-0.29 0.27,0.1 0.76,-0.85 -1.67,0.5 -0.27,0.54 -2.03,-0.11 0.06,0.11 0.13,0.22 0.2,0.32l0.43 0.63c0.08,0.12 0.15,0.2 0.22,0.31l-0.31 0.15z"/>
   <path class="fil64" d="M23.74 4.77c2.29,-0.4 1.03,-0.28 1.59,-1.27 -0.8,-0.16 -0.71,-0.16 -1.59,-0.32l0 1.59z"/>
   <path class="fil8" d="M8.3 23.52c0.15,-0.07 0.5,-0.17 0.7,-0.27l1.06 -0.67c-0.12,-0.03 -0.25,-0.24 -0.31,-0.17l-0.89 -0.78c-0.92,1.09 -0.66,0.61 -0.55,1.89z"/>
   <path class="fil54" d="M8.98 35.94c-0.22,-1.06 -0.6,-1.66 0.13,-2.22l-0.1 -0.6 -0.76 -0.04c-0.04,0.33 -0.21,1.31 -0.14,1.61 0.28,1.26 -0.16,0.59 0.87,1.25z"/>
   <path class="fil65" d="M11.47 31.54l0.73 0.38 -0.07 -0.72c0.11,-0.65 -0.04,-0.01 0.34,-0.79 0.28,-0.59 0.19,-0.29 0.36,-0.93l-0.85 0.12c-0.38,0.92 -0.67,1.29 -0.51,1.95z"/>
   <path class="fil18" d="M5.16 26.36l0.42 0.13c0.09,0.04 0.23,-0.01 0.28,0.12 0.05,0.13 0.21,0.09 0.28,0.13 0.06,0.03 0.69,0.38 0.8,0.44 0.37,-0.53 0.59,-0.72 0.12,-1.29 -0.09,0.06 -0.79,0.42 -0.84,0.46l-0.73 -0.78 -0.43 0.07 0.1 0.71z"/>
   <path class="fil47" d="M21.43 24.71c1.18,-0.36 1.51,-0.68 1.52,-1.97 -1.38,0.36 -0.48,0.06 -1.29,1.01 -0.04,0.04 -0.11,0.12 -0.15,0.15l-0.08 0.8z"/>
   <path class="fil66" d="M28.36 24l0.05 0.39c0.92,-0.57 0.44,-0.35 0.86,-1.06l0.77 -1.43 -1.81 1.13 0.13 0.98z"/>
   <path class="fil39" d="M24 33.1c0.55,-0.36 -0.36,-0.42 0.99,-0.02l-0.11 -0.68 -1.27 -0.36c-1.78,0.04 -0.64,-0.13 -0.95,0.52l1.34 0.54z"/>
   <polygon class="fil67" points="11.15,15.81 10.47,17.05 10.53,17.36 11.26,17.01 11.76,16.9 12.15,15.2 "/>
   <path class="fil31" d="M34.24 18.13l1.17 0 0.16 -1.22c-0.49,-0.89 0.01,-0.5 -0.97,-0.14l-0.35 1.36z"/>
   <path class="fil26" d="M25.43 27.07l1.42 0.36 0.5 -1.03c0.04,-0.07 0.1,-0.19 0.14,-0.29 -1.14,0.23 -1.8,-0.05 -2.06,0.96z"/>
   <path class="fil3" d="M11.72 23.71l0.59 0.02 0.69 -0.79 0.52 -1.5 -0.07 -0.12c-0.88,0 -0.28,-0.16 -0.69,0.4 -0.69,0.95 0.01,1.12 -1.04,2z"/>
   <path class="fil37" d="M9.19 15.79l-0.32 0.07c0.7,0.25 0.72,-0.4 0.56,0.47 1.39,0.4 0.31,0.17 0.77,-0.1l0.28 -0.82 0.18 -1.09c-0.77,0.53 -0.91,0.87 -1.47,1.47z"/>
   <path class="fil65" d="M5.05 25.65l0.43 -0.07c-0.39,-1.19 0.11,-0.99 -1.37,-1.22l-0.04 -0.77c-0.91,0.36 -0.39,-0.07 -0.85,0.58 1.02,0.75 1.26,0.51 1.82,1.47z"/>
   <path class="fil68" d="M32.64 16.53l-0.04 1.49 0.73 -0.26 0.71 -1.58c-0.75,0.22 -0.86,0.24 -1.4,0.34z"/>
   <path class="fil69" d="M6.13 30.53l-0.19 -1.25 -1.92 -0.18c0.74,1.11 0.01,0.21 1.03,0.85 0.1,0.06 0.41,0.21 0.48,0.24 0.07,0.04 0.51,0.28 0.6,0.33z"/>
   <path class="fil32" d="M35.16 15.58l-0.51 0.62 -0.06 0.57c0.98,-0.37 0.48,-0.75 0.97,0.14l0.33 -1.3 0.12 -0.97c-0.07,0.13 -0.23,0.25 -0.3,0.32 -0.06,0.07 -0.23,0.4 -0.28,0.32 -0.06,-0.08 -0.21,0.19 -0.27,0.32z"/>
   <path class="fil70" d="M28.85 31.94l0.94 -0.24 -0.06 -1.93c-0.53,0.49 -0.36,0.16 -0.69,1.01 -0.04,0.11 -0.17,1.02 -0.19,1.17z"/>
   <path class="fil71" d="M20.19 30.54l0.48 0.38c0.68,0.55 0.69,0.33 0.93,1.17l0.12 -0.59c0.44,-0.36 -0.1,-0.19 0.74,-0.15l-0.3 -0.68c-1.44,-0.22 -0.13,-0.01 -1.05,-0.05 -0.35,-0.01 -0.5,-0.01 -0.91,-0.07z"/>
   <path class="fil72" d="M24 33.1l0.84 1.14c0.87,-0.44 1.11,0.93 0.34,-1.29l-0.19 0.12c-1.35,-0.4 -0.44,-0.34 -0.99,0.02z"/>
   <path class="fil68" d="M31.3 20.02c0.3,-0.25 0.38,-0.31 0.82,-0.62 0.33,-0.69 0.12,-0.36 0.48,-0.75l0.05 -0.73 -0.81 0.28 -0.54 1.82z"/>
   <path class="fil73" d="M10.96 18.37c0.46,0 0.26,-0.67 0.3,-1.36l-0.73 0.35 -0.67 1.71c1.17,-1.05 0.7,-0.86 1.09,-0.7z"/>
   <path class="fil58" d="M14.4 28.49c0.09,1.53 -0.02,0.44 0.43,0.84 0.97,-0.7 0.44,-0.08 0.94,-1.2 -1.09,0.47 -0.36,0.31 -0.7,-0.26l-0.67 0.61z"/>
   <path class="fil31" d="M27.13 35.1c0.41,0.75 -0.12,0.37 0.85,0.61l0.15 -1.08 -0.52 -0.66c-0.18,0.32 -0.3,0.73 -0.48,1.13z"/>
   <path class="fil35" d="M14.2 7.49l-0.15 1.09 0.97 -0.36 0.31 -1.24c-0.09,0.05 -0.49,0.25 -0.56,0.29 -0.08,0.04 -0.23,0.19 -0.28,0.12 -0.06,-0.07 -0.19,0.06 -0.28,0.1z"/>
   <path class="fil74" d="M11.51 24.44c1.38,-0.55 0.38,-0.08 0.8,-0.72l-0.59 -0.02 0.09 -0.58 -0.74 0.08c0.05,1.22 -0.23,0.84 0.43,1.23z"/>
   <path class="fil75" d="M16.75 13.6c1.19,0.12 0.23,-0.33 0.95,0.39 -0.07,0.07 -0.16,0.15 -0.22,0.2l-0.9 0.7c-0.04,-0.06 -0.16,0.11 -0.23,0.18 1.36,-0.16 0.69,-0.8 0.68,0.58 0.53,0 0.36,0.1 0.22,-0.5 0.04,-0.07 0.1,-0.26 0.12,-0.21 0.02,0.05 0.09,-0.17 0.12,-0.2l0.54 -1.63 -1.28 0.5z"/>
   <path class="fil5" d="M12.83 29.47l1.27 -0.62 0.03 -0.84c-1.14,0.3 -0.91,0.21 -1.3,1.46z"/>
   <polygon class="fil53" points="30.74,20.3 31.3,20.02 31.83,18.2 32.65,17.92 32.6,18.03 32.64,16.53 "/>
   <path class="fil5" d="M15.07 27.88c0.34,0.57 -0.39,0.73 0.7,0.26l0.26 -0.25c0.21,-0.26 0.28,-0.54 0.33,-0.64l-0.7 0.3 -0.04 -0.79c-0.45,0.46 -0.35,-0.13 -0.55,1.12z"/>
   <path class="fil66" d="M34.85 13.04c-0.55,0.63 -0.24,0.21 -0.44,1.08l0.67 -0.01c0.48,-0.66 0.43,-0.05 0.43,-1.33 -0.34,0.24 -0.25,0.22 -0.66,0.27z"/>
   <path class="fil57" d="M12.79 11.8c0.9,0.21 0.46,0.17 0.74,0.26 0.5,0.16 0.03,0.13 0.39,0.08l0.06 -1.13 -1.08 0.2 -0.1 0.6z"/>
   <polygon class="fil76" points="29.48,24.63 30.59,24.4 30.36,23.52 29.48,23.66 "/>
   <path class="fil28" d="M9.64 12.69l0.78 -0.11 0.55 -1.06c-2.08,0.38 -0.2,-0.29 -1.08,0.36 -0.65,0.48 -0.16,-0.16 -0.25,0.81z"/>
   <path class="fil31" d="M3.41 26.06l0.53 0.36 1.22 -0.06 -0.1 -0.71 -0.94 -0.05c-0.35,0.74 0.46,0.76 -0.7,0.47z"/>
   <path class="fil77" d="M15.02 20.33c0.57,0.32 0.31,-0.36 0.5,0.72l0.29 -0.05 0.32 -0.82c0.06,-1.44 0.25,0.03 -0.66,-0.5l-0.45 0.65z"/>
   <path class="fil66" d="M12.13 31.19l0.07 0.72 0.83 -0.12 0.21 -0.22c-0.05,-1.2 0.63,-0.13 -0.31,-0.77 -0.34,0.46 -0.42,0.18 -0.79,0.38z"/>
   <polygon class="fil78" points="21.39,3.49 21.51,2.53 20.44,2.65 20.44,3.37 "/>
   <path class="fil79" d="M27.92 26.48l0.78 -0.19c-0.15,-1.66 0.06,-0.6 -0.38,-0.93 -1,0.09 -0.44,-0.21 -0.4,1.12z"/>
   <path class="fil80" d="M21.59 32.08l-1.35 0 0.63 0.99c1.3,-0.78 0.28,0.07 0.71,-0.99z"/>
   <path class="fil70" d="M5.68 27.44l-0.1 -0.95 -0.42 -0.13 -1.22 0.06c0.07,0.03 0.19,-0.01 0.23,0.08l1.51 0.94z"/>
   <path class="fil81" d="M6.73 18.76l0.78 -0.36 -0.07 -0.75c-0.63,0.09 -0.55,-0.53 -0.55,0.16 -0.66,0 -0.33,-0.1 -0.16,0.95z"/>
   <path class="fil60" d="M23.4 7.1c0.14,0.89 0.03,0.63 0.34,1.02l0.69 -0.88c0.03,-0.14 0.11,-0.16 0.16,-0.3l-1.07 0.06 -0.12 0.1z"/>
   <path class="fil82" d="M2.43 24.4c0.01,-0.13 0,-0.43 0.03,-0.38 0.02,0.04 0.03,-0.26 0.06,-0.36 0.03,-0.09 0.21,-0.54 0.26,-0.63l-1.12 0.52c0.2,0.77 -0.32,0.27 0.77,0.86z"/>
   <path class="fil59" d="M8.87 13.59l0.86 -0.22 -0.09 -0.69c-0.6,-0.05 -0.53,-0.68 -0.53,0.03 -0.63,0 -0.33,-0.1 -0.24,0.87z"/>
   <path class="fil14" d="M32.01 25.58c-1.01,0.17 -0.75,-0.14 -0.87,0.82 1.14,0 0.87,0.29 0.87,-0.82z"/>
   <path class="fil48" d="M16.04 27.89l1.02 0.2 0.13 -0.74 -0.82 -0.09c-0.05,0.1 -0.12,0.38 -0.33,0.64z"/>
   <path class="fil83" d="M18.01 18.93l0.28 -0.8 -0.73 0.39 0.11 -1.07 -0.23 0.18c-0.4,2.32 -0.46,0.79 0.56,1.3z"/>
   <path class="fil14" d="M27.65 38.17c-0.42,-0.91 0.32,-0.48 -1.04,-0.87 0.49,1.1 -0.83,0.87 1.04,0.87z"/>
   <path class="fil28" d="M18.65 1.45c0,-0.96 -0.57,-0.68 -1.42,-0.76 0.08,0.08 0.18,0.1 0.24,0.24 0.06,0.14 0.17,0.17 0.25,0.21 0.63,0.31 -0.13,0.1 0.93,0.31z"/>
   <path class="fil84" d="M5.29 20.31c0.86,-0.22 0.35,0.47 0.91,-0.81 -1.14,0.36 -0.91,-0.86 -0.91,0.81z"/>
   <path class="fil28" d="M5.44 20.17c-1.01,-0.17 -0.78,-0.4 -0.78,0.58 0.98,0.04 0.78,0.31 0.78,-0.58z"/>
   <path class="fil85" d="M16.37 27.25l0.82 0.09 0.39 -0.93c-0.94,0.22 -0.7,0.41 -1.21,0.84z"/>
   <path class="fil14" d="M10.25 36.9c0,-0.63 0.11,-0.32 -0.82,-0.49 0,1.11 -0.24,0.9 0.82,0.49z"/>
   <path class="fil52" d="M22.66 32.57c0.31,-0.66 -0.83,-0.49 0.95,-0.52l-0.96 -0.64 -0.19 0.08c-0.04,0.41 -0.1,0.26 -0,0.62 0.02,0.06 0.06,0.19 0.08,0.25 0.02,0.05 0.08,0.14 0.12,0.21z"/>
   <path class="fil86" d="M36.37 11.01c1.29,-0.01 1.1,0.13 1.59,-0.73l-1.05 0.48c0.02,-0.87 -0.08,-0.07 -0.54,0.25z"/>
   <path class="fil14" d="M11.97 36.43c-0.9,0.11 -0.78,-0.18 -0.78,0.46 1.01,0.41 0.78,0.61 0.78,-0.46z"/>
   <path class="fil14" d="M13.88 35.46c-0.91,0.17 -0.93,-0.13 -0.55,0.56 0.83,0.37 0.55,0.41 0.55,-0.56z"/>
   <polygon class="fil87" points="4.11,25.6 4.01,25.11 3.22,24.99 3.44,25.7 "/>
   <path class="fil84" d="M13.92 8.91c-0.87,0 -0.77,-0.22 -0.43,0.56 0.82,0.4 0.52,0.39 0.43,-0.56z"/>
   <path class="fil28" d="M12.93 10.16c0.85,-0.26 0.67,0.19 0.56,-0.69 -0.71,0.17 -0.56,-1.02 -0.56,0.69z"/>
   <path class="fil14" d="M2.21 28.63l-1.05 -0.49c0.42,0.88 -0.62,1.15 1.05,0.49z"/>
   <path class="fil88" d="M13.88 20.88l-0.43 0.43 0.07 0.12 0.88 -0.59c-0.09,-0.1 -0.22,-0.14 -0.25,-0.31 -0.03,-0.2 -0.25,-0.22 -0.41,-0.21l0.14 0.56z"/>
   <path class="fil89" d="M41.61 9.63c0.36,-1 0.48,-0.8 -0.52,-0.44 0,0.62 -0.14,0.44 0.52,0.44z"/>
   <path class="fil71" d="M33.72 14.96c0.9,-0.34 0.44,0.12 0.81,-0.84 -1.13,0.49 -0.43,-0.18 -0.81,0.84z"/>
   <path class="fil54" d="M26.6 37.29l-0.97 0.13c0.46,1.9 -1.41,-0.08 0.4,0.42 0.86,0.24 0.57,0.9 0.57,-0.55z"/>
   <path class="fil54" d="M0.87 28.07c0,-0.62 0.18,-0.51 -0.35,-0.51 -0.4,0.93 -0.61,0.85 0.35,0.51z"/>
   <path class="fil54" d="M14.51 35.15l-0.76 0.47c0.99,0.42 0.76,0.6 0.76,-0.47z"/>
   <path class="fil14" d="M40.92 14.16l-0.76 0.47c0.99,0.41 0.76,0.6 0.76,-0.47z"/>
   <path class="fil14" d="M3.18 28.95l-0.75 -0.47c0,1.07 -0.24,0.89 0.75,0.47z"/>
   <path class="fil14" d="M15.15 34.83l-0.73 0.48c0.97,0.42 0.73,0.58 0.73,-0.48z"/>
   <polygon class="fil90" points="10.47,17.05 11.15,15.81 10.64,15.84 "/>
   <path class="fil89" d="M41.23 9.32c0,-1.03 0.21,-0.81 -0.78,-0.44l0.78 0.44z"/>
   <path class="fil91" d="M21.65 34.04c0.43,-0.47 -0.15,-0.05 1.03,-0.32l-0.69 -0.48 -0.34 0.8z"/>
   <path class="fil92" d="M20.08 4.32c-0.48,-0.82 0.19,-0.28 -0.8,-0.59 0.41,0.87 0.08,0.48 0.8,0.59z"/>
   <path class="fil14" d="M20.89 34.99l-0.64 -0.45c0,1 -0.24,0.88 0.64,0.45z"/>
   <path class="fil84" d="M41.64 10.46c-0.55,0 -0.37,-0.1 -0.23,0.53 0.76,0.22 0.49,0.24 0.23,-0.53z"/>
   <path class="fil14" d="M33.64 24.17c-0.56,0 -0.41,-0.1 -0.21,0.47 0.79,0.27 0.53,0.28 0.21,-0.47z"/>
   <path class="fil21" d="M34.45 18.55c1.41,0.51 -0.44,-0.18 0.96,-0.42l-1.17 0c0.4,0.14 0.4,-0.26 0.21,0.42z"/>
   <path class="fil93" d="M41.42 11c-0.59,-0.16 -0.49,-0.32 -0.49,0.23 0.72,0.24 0.68,0.47 0.49,-0.23z"/>
   <polygon class="fil66" points="32.6,18.65 33.33,17.77 32.6,18.03 32.65,17.92 "/>
   <polygon class="fil14" points="31.06,26.94 31.06,26.55 30.32,26.38 "/>
   <polygon class="fil91" points="7.27,30.86 7.2,30.68 "/>
   <polygon class="fil91" points="34.05,22.9 33.99,22.58 "/>
   <polygon class="fil91" points="41.56,13.31 41.36,13.36 "/>
  </g>
 </g>
</svg>
