<?xml version="1.0" encoding="UTF-8"?>
<!DOCTYPE svg PUBLIC "-//W3C//DTD SVG 1.1//EN" "http://www.w3.org/Graphics/SVG/1.1/DTD/svg11.dtd">
<!-- Creator: CorelDRAW 2018 (64-Bit) -->
<svg xmlns="http://www.w3.org/2000/svg" xml:space="preserve" width="34.7718mm" height="35.9687mm" version="1.1" style="shape-rendering:geometricPrecision; text-rendering:geometricPrecision; image-rendering:optimizeQuality; fill-rule:evenodd; clip-rule:evenodd"
viewBox="0 0 311.69 322.42"
 xmlns:xlink="http://www.w3.org/1999/xlink">
 <defs>
  <style type="text/css">
   <![CDATA[
    .fil94 {fill:#0B0B0F}
    .fil141 {fill:#182437}
    .fil129 {fill:#192B46}
    .fil20 {fill:#193459}
    .fil39 {fill:#1D1D22}
    .fil1 {fill:#222225}
    .fil82 {fill:#222B44}
    .fil104 {fill:#233D64}
    .fil73 {fill:#252B33}
    .fil123 {fill:#272C38}
    .fil80 {fill:#283956}
    .fil116 {fill:#29354B}
    .fil72 {fill:#2B2D33}
    .fil38 {fill:#2D323B}
    .fil128 {fill:#333236}
    .fil57 {fill:#333642}
    .fil8 {fill:#34343B}
    .fil3 {fill:#34393E}
    .fil21 {fill:#343B4C}
    .fil11 {fill:#353A44}
    .fil19 {fill:#363D54}
    .fil12 {fill:#394A66}
    .fil90 {fill:#3A3A3D}
    .fil48 {fill:#3B3C43}
    .fil56 {fill:#3B3D4A}
    .fil70 {fill:#3B445B}
    .fil49 {fill:#3B5476}
    .fil18 {fill:#3D4145}
    .fil29 {fill:#3D424C}
    .fil17 {fill:#424652}
    .fil16 {fill:#43444B}
    .fil111 {fill:#434D63}
    .fil58 {fill:#444C5A}
    .fil95 {fill:#44536C}
    .fil50 {fill:#454A54}
    .fil92 {fill:#464E66}
    .fil2 {fill:#475875}
    .fil93 {fill:#485667}
    .fil33 {fill:#493E45}
    .fil119 {fill:#4A4445}
    .fil25 {fill:#4A464C}
    .fil86 {fill:#4A5158}
    .fil55 {fill:#4B4E5A}
    .fil47 {fill:#4B6488}
    .fil36 {fill:#4B6B96}
    .fil76 {fill:#4C4A4C}
    .fil97 {fill:#4C515C}
    .fil108 {fill:#4C5463}
    .fil106 {fill:#4C77AC}
    .fil45 {fill:#4D627C}
    .fil67 {fill:#4E7196}
    .fil103 {fill:#53545C}
    .fil107 {fill:#535663}
    .fil14 {fill:#535C71}
    .fil124 {fill:#545A64}
    .fil54 {fill:#545C6B}
    .fil65 {fill:#55484A}
    .fil44 {fill:#566986}
    .fil91 {fill:#57636B}
    .fil74 {fill:#577AA6}
    .fil79 {fill:#578DCA}
    .fil99 {fill:#586477}
    .fil69 {fill:#595658}
    .fil61 {fill:#5982B2}
    .fil115 {fill:#5B7189}
    .fil41 {fill:#5C626C}
    .fil24 {fill:#5C6473}
    .fil27 {fill:#5D6265}
    .fil109 {fill:#607CA3}
    .fil0 {fill:#626363}
    .fil5 {fill:#64646B}
    .fil6 {fill:#656565}
    .fil98 {fill:#656D82}
    .fil120 {fill:#678AB8}
    .fil7 {fill:#685758}
    .fil126 {fill:#687688}
    .fil53 {fill:#696666}
    .fil112 {fill:dimgray}
    .fil139 {fill:#6A7279}
    .fil23 {fill:#6A839A}
    .fil59 {fill:#6B7484}
    .fil84 {fill:#6C6C73}
    .fil10 {fill:#6C6D6D}
    .fil117 {fill:#735B58}
    .fil135 {fill:#737D95}
    .fil101 {fill:#757B86}
    .fil113 {fill:#76A2D5}
    .fil131 {fill:#776667}
    .fil43 {fill:#778597}
    .fil83 {fill:#7794B6}
    .fil31 {fill:#78625C}
    .fil140 {fill:#79828A}
    .fil51 {fill:#7D92AD}
    .fil85 {fill:#838283}
    .fil122 {fill:#83838C}
    .fil66 {fill:#846A68}
    .fil28 {fill:#858A96}
    .fil34 {fill:#867F82}
    .fil114 {fill:#86929C}
    .fil134 {fill:#887879}
    .fil105 {fill:#8997A7}
    .fil132 {fill:#8997AF}
    .fil71 {fill:#8AA2B6}
    .fil88 {fill:#8C8B8C}
    .fil89 {fill:#8C8C94}
    .fil62 {fill:#969BA6}
    .fil137 {fill:#979599}
    .fil110 {fill:#99A3AD}
    .fil136 {fill:#99A7B7}
    .fil32 {fill:#9A8A87}
    .fil13 {fill:#A49DA4}
    .fil138 {fill:#A4A3AB}
    .fil68 {fill:#A6ABB6}
    .fil75 {fill:#A89896}
    .fil35 {fill:#A9A6A9}
    .fil118 {fill:#A9B7C7}
    .fil96 {fill:#ABB3BB}
    .fil64 {fill:#B5D2ED}
    .fil87 {fill:#B7B0AE}
    .fil125 {fill:#B7B5B8}
    .fil121 {fill:#B7BCC5}
    .fil81 {fill:#BBC8D5}
    .fil77 {fill:#C6BDC3}
    .fil102 {fill:#C7BAB6}
    .fil15 {fill:#C7CDD5}
    .fil78 {fill:#C9B0AA}
    .fil60 {fill:#C9C6C8}
    .fil130 {fill:#CAD7E6}
    .fil63 {fill:#CCD2DA}
    .fil142 {fill:#D2CED3}
    .fil22 {fill:#D4C6B9}
    .fil26 {fill:#D6CBC9}
    .fil133 {fill:#D6E2EF}
    .fil37 {fill:#D9D6D8}
    .fil40 {fill:#DDDCDC}
    .fil127 {fill:#E2DDE2}
    .fil52 {fill:#E4DBDA}
    .fil100 {fill:#E8ECF4}
    .fil30 {fill:#E9E6E7}
    .fil9 {fill:#EDECEC}
    .fil4 {fill:#F5FDFE}
    .fil42 {fill:#F6EAE4}
    .fil46 {fill:#F6F6F6}
   ]]>
  </style>
 </defs>
 <g id="Warstwa_x0020_1">
  <metadata id="CorelCorpID_0Corel-Layer"/>
  <g id="_1832253307296">
   <path class="fil0" d="M187.2 229.88c8.68,13.64 4.6,14.99 16.74,29.27l3.76 3.71 6.4 2.37 3.3 3.63 11.22 2.82c6.62,0.1 1.88,-1.13 7.21,0.72 0.76,0.26 2.07,0.81 2.81,1.1 0.69,0.27 1.6,0.96 2.38,1.48l32.99 -2.79 6.92 -3.78 1.41 0.4c0,-4.82 -1.12,-3.31 3.99,-3.93 7.24,-6.4 10.71,-7.21 14.9,-15.05l4.95 -5.48 5.51 -19 -2.82 -1.98 -0.27 -4.54 -9.46 1.63c-3.67,5.4 2.75,2.28 -6.09,6.48l-0.37 -9.91 -8.97 21.49 -3.68 1.47c-3.92,6.03 -7.52,8.83 -15.7,10.41 -4.99,0.97 -7.55,1.15 -12.53,0.14 -7.45,-1.51 -4.25,-0.2 -8.21,-4.21 -10.8,-0.99 -18.43,2.28 -22.76,-5.96 -8.43,-0.21 -3.56,1.35 -8.91,-3.1 -5.73,-1.91 -3.2,0.26 -8.26,-3.55 -4.65,-5.44 -6.51,-6.69 -10.54,-13.89 -2.93,-5.24 -1.92,-4.42 -3.93,-8.35 -3.45,-6.72 -0.81,-4.42 -3.89,-5.98 -6.51,10.08 -2.89,1.1 -6.29,12.7 3.82,3.17 0.81,0.5 4.73,6.36 1.6,2.39 1.78,3.39 3.43,5.32z"/>
   <path class="fil1" d="M76.93 148.76c-4.41,9.67 1.25,4.53 -8.98,7.68 -5.8,0.13 -10.47,-0.27 -17.21,2.73 -9.6,4.28 -0.52,4.36 -15.03,7.35 -1.27,10.83 -0.55,9.51 -11.42,11.82l-0.41 5.07 -0.16 -1.21c3.37,2.64 1.89,0.15 6.38,4.99 5.14,5.55 0.27,0.01 4.27,5.78 4.04,5.82 5.26,7.29 8.63,11.87 7.89,-0.6 7.91,-2.32 13.03,-5.61 4.98,-3.2 8.33,-4.93 14.66,-8.17l5.18 -5.23c8.06,-8.64 5.72,-7.14 15.75,-7.56l1.95 -2.94 6.33 -9.3c-6.17,-8.35 -1.06,-3.29 -8.23,-7.31l5.12 -12.84 -8.94 1.31 -10.91 1.58z"/>
   <path class="fil2" d="M144.21 221.36c-20.5,-9.76 -9.54,-10.39 -9.48,-10.57l-7.93 9.33c-4.84,-6.66 0.35,-8.79 1.66,-27.22 9.76,-0.04 3.91,0.96 15.04,5.81l0.7 22.65zm-24.44 -33.34l-6.29 6.17c7.05,4.95 4.78,2.33 2.64,10.05 -2.5,9.02 -6.51,-6.01 -0.83,4.5l-13.68 2.02 0.04 5.89 12.99 -0.29 -2.45 6.34 -0.73 -1.31 -4.38 7.78 -0.6 4.84 15.63 3.82c0.04,-14.67 -0.83,-0.52 4.4,-6.95 1.05,0.1 6.15,1.44 6.46,1.46 3.65,0.31 2.58,0.78 6.03,-0.3 5.23,-8.43 8.71,-6.44 17.94,-17.54l9.87 -21.35c-7.97,-6.62 2.43,-3.55 -10.09,-2.15 -4.34,9.73 -1.31,4.75 -7.12,10.94 -3.9,-8.83 -2.23,-14.96 -11.9,-17.16l-17.92 3.24z"/>
   <path class="fil3" d="M196.95 138.15c-5.94,6.34 -5.56,15.5 -16.19,31.71 -0.38,0.58 -1.09,1.65 -1.41,2.14l-2.73 4.83c-1.5,-9.64 1.54,-3.57 -7.01,-5.93l3.07 8.77c2.41,15.48 -0.22,1.36 5.95,13.25 -4.23,11.38 -7.55,6.08 -3.18,15.24l9.88 -2.65c3.08,1.56 0.44,-0.74 3.89,5.98 2.01,3.92 1,3.11 3.93,8.35 4.03,7.2 5.89,8.45 10.54,13.89l2.38 -15.98 -8.09 -2.69 0.38 -23.79c2.2,-11.43 -1.16,4.81 0.22,-9.73 1.25,-13.18 -0.55,4.16 1.45,-8.42l-4.85 -3.09c-7.48,4.35 3.29,2.21 -3.38,0.77 9.97,-21.7 -1.38,-14.74 15.28,-30.39l4.38 -3.64 1.04 -6.39c2.66,-4.59 5.69,-7.92 -3.06,-6.91 -0.54,4.39 0.16,6.33 -3.66,10.45 -3.1,3.35 -0.98,4.28 -8.81,4.26z"/>
   <path class="fil4" d="M150.57 29.44l19.48 1.76 5.01 -0.16 6.85 0.61c10.05,1.3 7.52,1.66 17.6,4.24 7.06,1.81 5.33,-0.54 9.72,3.28 6.36,5.53 0.5,-2.1 2.9,8.01l0.17 3.14c9.97,2.83 2.04,-2.28 8.31,3.07 6.03,5.15 3.42,4.64 5.07,8.61 4.84,1.85 1.18,-1.09 5.72,2.82 1.3,1.12 3.63,4.46 4.81,6.23l7.38 7.84c1.73,-1.91 7.5,-4.75 0.96,-22.16 -4.24,-11.3 -8.61,-4.2 -15.84,-10.23 -18.08,-15.08 18.74,-9.1 -12.91,-18.99l-6.04 -1.62c-8.25,-1.17 -3.18,-4.63 -7.16,1.84 -18.57,0.81 -4.43,2.38 -10.05,-8.73 -6.45,3.93 -17.82,2.2 -27.48,0l-14.5 10.43z"/>
   <path class="fil5" d="M23.8 236.68l3.72 3.76 15.62 16.05 6.16 -3.11 9.24 -2.26c2.01,-3.94 -0.15,-3.86 3.46,-7.27 8.59,-8.13 -6.36,0.67 7.41,-4.14l1.46 -2.24 0.36 -5.09c-9.68,-0.33 -4.45,0.92 -10.04,1.01 -15.92,0.25 -5.81,2.96 -12.61,-3.9 -7.66,3.66 4.6,2.29 -11.44,3.91 -3.84,-3.27 -0.98,-2.31 -3.57,-8.9 -0.79,-0.45 -2.76,-1.37 -3.84,-2.4 -3.11,-2.95 -2.16,-2.17 -4.63,-5.31l-6.46 -14.61c-8.6,-6.49 -4.77,-7.27 -14.06,-10.44 1.57,21.24 10.69,29.6 19.22,44.95z"/>
   <path class="fil6" d="M71.52 309.92c6.94,-4.01 -10.19,-8.03 15.78,-3.15 -12.07,14.16 4.66,2.65 -9.47,7.15 -17.05,5.42 1.82,2.36 -6.31,-4zm-12.32 -9.26l2.65 9.76 6.51 -0.65 1.91 7.88 8.44 1.49 6.43 3.29 16.64 -0.13 8.84 -2.73 10.03 -0.45 3.16 -3.4c-7.36,-4.68 5.86,-2.11 -14.05,-2.29 -7,-0.06 -9.41,0.24 -16.96,-0.22 3.88,-3.02 -2.65,-1.78 8.96,-4.84 4.65,-1.22 3.35,-0.06 7.72,0.01 0.09,-13.6 -1.37,-8.99 6.44,-15.67 -12.2,6.02 -1.36,3.76 -13.3,1.92l-26.72 1.24 -4.87 1.74c-7.74,0.14 -5.71,-5.81 -11.83,3.07z"/>
   <path class="fil7" d="M84.44 123.35c2.97,-1.11 -6.5,-9.24 8.63,0 -4.78,3.49 -3.76,2.54 -8.63,0zm-29.83 -7.58c-5.04,3.54 6.75,4.05 -6.79,2.71 5.32,-1.13 0.17,-0.8 3.42,6.97 0.48,13.98 -1.01,7.3 -5.02,21.47l13.72 -10.06c0.42,-0.28 1.35,-0.82 2.06,-1.17 2.98,7.82 2.2,2.21 -0.77,13.61l10.24 -0.21 -1.5 -0.16 -0.05 -9.79 30.3 -11.23 8.63 0.66c-2.98,-10.77 -3.11,-10.06 -10.67,-14.9l-1.4 4.21c-4.65,0.81 -3.18,1.66 -3.86,-3.3 -2.18,-1.88 0.78,-8.19 -7.66,-0.58 -4.03,3.64 -4.77,8 -6.72,12.51l-6.81 -0.35c-2.6,-9.67 -4.61,-2.72 -0.26,-13.07 -7.78,2.34 0.05,0.34 -8.88,1.79 -0.06,0.01 -6.87,0.73 -7.99,0.9z"/>
   <path class="fil8" d="M117.04 98.88l0.72 16 -11.14 -7.87 -1.17 -2.04 -6.4 -5.03 -5.34 -0.87 -0.06 9.66 4.54 4.93c7.56,4.85 7.7,4.13 10.67,14.9 2.5,0.37 10.42,-1.23 11.09,-1.26 12.48,-0.47 -12.95,-7.4 8.52,3.63 0.73,0.37 2.02,1.09 3.1,1.45l4.09 -5.29c0.36,-0.55 2.32,-3.78 2.81,-4.71 -1.34,-6.94 -2.32,-17.21 -1.83,-21.32 1.17,-9.84 3.52,-1.18 -1.93,-12.45l-10.16 -0.94c0.28,1.04 0.91,2.28 1.21,2.98l2.28 4.94c2.02,5.64 0.9,1.89 -1.12,6.82l-9.9 -3.54z"/>
   <path class="fil9" d="M18.6 103.7c21.59,0.04 13.94,4.81 33.82,0.68l1 -0.62 3.34 -4.13c11.27,-8.63 10.94,-3.06 11.6,-12.33 -0.82,-0.62 -1.57,-1.74 -2.3,-2.07 -9.21,-4.23 -4.57,-4.39 -15.65,-0.37 10.63,-10.67 4.05,-4.72 6.13,-11.51l-12.11 3.69c-12.05,5.23 4.21,-4.23 -6.02,6.4 -10.01,10.41 -14.1,0.09 -19.81,20.26z"/>
   <path class="fil10" d="M165.07 19.01c9.66,2.2 21.04,3.92 27.48,-0 5.9,-2.91 -1.93,-0.98 8.62,-3.18l-0 -15.83 -44.3 0c0,10.4 -2.6,11.55 3.16,15.84 -3.13,6.84 -0.25,1.2 -0.12,1.27 0.31,0.17 4.16,1.59 5.17,1.9z"/>
   <path class="fil11" d="M211.94 237.27c5.35,4.45 0.48,2.89 8.91,3.1l10.77 2.02c-4.09,-9.34 2.53,-16.69 8.87,-22.55l-1.47 -10.21c-0.19,-1.08 -0.5,-1.9 -0.68,-2.88 -0.94,-5.1 -1.13,3.85 -1.19,-8.93 -12.7,0.31 -3.94,-3.02 -16.14,4.57l-9.07 34.88z"/>
   <path class="fil8" d="M191.65 72.75c0.24,0.1 4.75,2.16 7.08,3.18 0.81,0.77 1.47,1.16 1.71,2.88 0.22,1.66 1.23,2.06 1.49,2.85 6.29,19.42 -7.06,33.87 4.37,41.83l6.55 -15.94 6.12 -9.74c-5.08,-11.22 -3.3,-15.77 -0.94,-29.64l-5.48 -4.71c-0.59,9.25 14.86,-0.15 -4.18,4.84l-17.32 -7.69 0.61 12.15z"/>
   <path class="fil12" d="M278.06 146.77l2.17 15.45c-2.94,2.61 -0.79,0.2 -3.71,0.74l-8.12 1.97 0.94 6.12c4.54,2.88 8.79,-5.2 7.7,23.44 0.84,-0.48 1.9,-1.17 2.51,-1.45l5.07 -2.26c15.93,-6.59 -13.87,2.9 5.57,-1.41l1.76 5.6 1.92 9.01 -1.17 13.06 0.37 9.91c8.83,-4.2 2.42,-1.08 6.09,-6.48l-0.93 -31.11 -1.16 -21.35 -12.01 3.8c2.79,10.26 3.98,2.39 -0.43,11.99 -2.16,-1.14 -3.6,-5.18 -3.79,-5.64 -2.79,-6.58 -1.05,-2.66 -2.7,-8.37l7.8 -2.18 -0.01 -8.24 -3.68 -5.13 0.61 -13.01 -0.23 -2.11 -6.09 0.59c3.85,4.16 3.13,-0.85 1.53,7.08z"/>
   <path class="fil13" d="M87.89 97.24l0 0zm-16.14 3.81l12.38 0.5 -10.13 9.64c-0.45,0.99 -1.13,1.6 -1.32,2.67 -0.19,1.05 -0.31,1.86 -0.22,2.93 1.12,12.7 -1.28,2.56 6.1,9.69 1.95,-4.51 2.7,-8.87 6.72,-12.51 8.43,-7.61 5.48,-1.29 7.66,0.58 3.78,-2.58 8.19,4.46 0.71,-5.85l0.06 -9.66c-5.4,-10.71 -1.36,-2.81 -10.5,-7.33 2,-11.88 3.16,-0.64 -0.67,-15.77 12.94,4.34 8.83,12.4 12.17,7.27 0.42,-0.64 1.33,1.34 2.08,1.91l0.16 -14.47c-14.8,3.09 -4.97,-1.5 -23.79,-3.41l-1.18 1.6c1.03,14.63 2.34,13.08 7.66,26.04 -0.78,0.56 -1.81,0.72 -2.14,1.93l-5.73 4.24z"/>
   <path class="fil14" d="M206.06 217.74l-2.38 15.98c5.05,3.81 2.52,1.64 8.26,3.55l9.07 -34.88 0.67 -12.38 -4.74 -9.08c-8.95,1.66 -7.63,4.24 -7.2,-3.69 2.11,-12.87 1.46,-4.4 -2.06,-7.42 -1.6,20.88 -4.88,23.85 -1.63,47.92z"/>
   <path class="fil15" d="M106.71 46.43l17.06 7.35c-0.19,10.81 -4.41,10.35 -6.62,12.74l16.41 -1.89 11.13 0.57 7.67 1.29 1.19 11.53 -0.43 4.06 6.81 -12.96 0.88 -9.36c-4.9,0.19 -4.84,0.55 -8.99,-0.79 -6.46,-2.07 -2.62,-1.57 -5.88,-4.89l-6.23 0.65 -8.14 1.93c-4.54,-2.83 -1.59,6.29 -5.38,-7.75 0.29,-0.95 1.07,-2.29 1.15,-2.77l-0.18 -3.8c0.01,-0.76 -0.92,-0.64 -1.35,-1.08l6.41 -1.74 0.4 -4.79c-23.56,0.42 -12.67,5.24 -29.83,6.06 4.36,5.15 -3.46,2.18 3.9,5.64z"/>
   <path class="fil16" d="M206.06 217.74c-3.25,-24.07 0.03,-27.04 1.63,-47.92l-1.19 -18.92c2.64,-2.7 3.76,-1.14 7.49,-3.49 2.94,-7.33 -1.25,-2.1 5.94,-8.7l-8.49 -1.96 -4.38 3.64c-16.66,15.65 -5.31,8.7 -15.28,30.39 6.67,1.45 -4.09,3.58 3.38,-0.77l4.85 3.09c-2,12.59 -0.2,-4.76 -1.45,8.42 -1.38,14.55 1.97,-1.7 -0.22,9.73l-0.38 23.79 8.09 2.69z"/>
   <path class="fil17" d="M177.25 156.33c1.04,-5.26 1.17,-7.71 3.5,-11.2l8.97 -9.01c-3.36,14.69 -0.41,8.79 -12.47,20.21zm5.46 -21.7l-1.15 -1.34 -6.26 5.66 -3.82 6.54 -3.17 9.73c0.49,0.25 1.4,0.32 1.6,0.46 0.2,0.14 1.34,0.45 1.56,0.66l2.27 2.55c3.47,7.31 1.02,1.59 -0.28,7.83l-12.69 -0.31 2.53 6.73c7.02,-1.86 0.3,1.49 6.31,-2.24 8.55,2.36 5.52,-3.71 7.01,5.93l2.73 -4.83c0.31,-0.48 1.03,-1.56 1.41,-2.14 10.63,-16.21 10.25,-25.37 16.19,-31.71 2.09,-7.76 1.2,-0.61 1.34,-10.67l-8.68 -6.22c-1.3,11.19 2.15,15.48 -6.9,13.38z"/>
   <path class="fil18" d="M190.3 85.26c2.31,7.25 3.75,10.96 5.16,15.95 -0.73,0.54 -1.85,0.96 -2.43,1.21 -0.56,0.25 -1.75,0.77 -2.42,1.07 -0.8,0.36 -3.83,1.34 -4.63,1.77 -4.98,2.66 -2.75,-0.94 -6.18,5.98 4.02,2.51 -5.82,5.25 7.34,0.1l2.47 9.93 8.68 6.22c-0.14,10.06 0.75,2.91 -1.34,10.67 7.83,0.02 5.71,-0.91 8.81,-4.26 3.82,-4.12 3.12,-6.07 3.66,-10.45l-3.13 0.05c-11.43,-7.96 1.92,-22.41 -4.37,-41.83 -0.26,-0.8 -1.27,-1.2 -1.49,-2.85 -0.23,-1.72 -0.9,-2.11 -1.71,-2.88l0.56 10.8 -8.99 -1.47z"/>
   <path class="fil19" d="M119.77 188.02l17.92 -3.24c9.66,2.2 8,8.34 11.9,17.16 5.8,-6.2 2.77,-1.21 7.12,-10.94 3.59,-7.35 -4.38,-2.43 6.51,-7.54l3.31 6.09c3.04,10.68 0.26,13.07 5.62,21.58l3.31 -2.98c-4.37,-9.15 -1.05,-3.86 3.18,-15.24 -6.18,-11.89 -3.54,2.24 -5.95,-13.25l-10.34 0.6c-12.83,0.34 1.96,0.47 -14.94,6.85 -5.54,-8.31 -2.79,-2.96 -8.63,-7.56 -5.92,-2.6 -1.71,-0.4 -8.86,-5.22 -6.05,2.81 -0.75,6.07 -6.44,-2.09 -6.72,9.7 6.67,1.53 -6.69,8.01 -4.09,15.4 -1.39,1.44 2.99,7.75z"/>
   <path class="fil3" d="M169.51 85.38c2.66,3.94 3.24,4.29 8.75,8.08l-16.1 3.25c3.31,10.59 -0.01,7.7 7.1,9.36l6.52 -2.55 -0.5 7.72 4.51 0c3.44,-6.92 1.2,-3.32 6.18,-5.98 0.79,-0.42 3.82,-1.4 4.63,-1.77 0.67,-0.3 1.86,-0.82 2.42,-1.07 0.58,-0.26 1.7,-0.67 2.43,-1.21 -1.41,-4.99 -2.84,-8.7 -5.16,-15.95 -0.34,-5.53 2.35,-3.12 -3.63,-6.21 -9.69,-3.95 -0.39,-0.03 -6.61,-3.01 -0.58,-0.28 -3.49,-1.83 -4.41,-2.33 -1.07,10.1 0.86,6.57 -6.13,11.67z"/>
   <path class="fil20" d="M243.94 137.81c4.23,5.63 -1.21,4.56 7.17,4.45 5.07,-1.22 3.95,-2.36 3.95,2.65l7.14 0.98 -0.18 9.64 -3.82 7.51 -11.47 -1.39c-5.81,2.67 -4.38,-5.07 -3.56,6.31l6.45 1.27 5.32 4.67 8.78 -11.8c18.31,5.47 1.91,-2.27 4.68,2.82l8.12 -1.97c2.92,-0.54 0.77,1.86 3.71,-0.74l-2.17 -15.45c-8.15,-1.98 -5.28,0.21 -5.8,-6.13l-1.57 -4.29 -9.73 0.8 -5.73 -0.17 -11.3 0.83z"/>
   <path class="fil17" d="M138.49 122.37c-1.25,11.88 -2.93,13.29 -9.18,20.58l14.84 -6.09c-2.59,-7.43 -1.11,-1.35 2.2,-3.83 6.49,10.08 -3.06,2.26 8.5,4.56l0.36 -9.32c-5.27,-3.39 0.61,-0.87 -7.12,-3.45 -0.04,-0.01 -6.41,-1.47 -6.47,-1.48l-0.61 -13.75 8.77 10.62c-2.06,-7.31 -1.58,-2.95 -0.89,-8.26 1.01,-7.79 5.37,-1.05 0.87,-15.12 6.23,-4.17 3.76,0.75 2.6,-7.43l-1.51 0.6 -16.12 -1.39c5.44,11.26 3.09,2.61 1.93,12.45 -0.49,4.1 0.49,14.38 1.83,21.32z"/>
   <path class="fil21" d="M103.41 234.04l-1.46 12.21 -1.33 7.46c9.4,4.02 5.19,0.2 8.11,8.47 13.41,-2.71 10.21,-3.74 14.86,-11.87l5.75 2.79 2.72 -3.54c-0.77,-10.01 -1.55,-8.36 -5.57,-18.68 -5.23,6.43 -4.36,-7.72 -4.4,6.95l-15.63 -3.82 -3.06 0.03z"/>
   <path class="fil22" d="M4.77 117.74c0.51,18.6 1.87,15.14 -3.39,30.67 -3.66,10.8 1.07,14.17 1.33,28.5 0.56,-0.88 1.3,-3.26 1.55,-2.72 3,6.34 -0.11,-3.83 7.15,-13.32l3.85 -5.59 -1.43 -3.86c-8.54,-8.53 -3.16,-1.11 -5,-9.27 -0.22,-0.97 -0.07,-2.3 -0.2,-3.15 -0.14,-0.92 0.03,-1.59 -0.04,-3.42 -0.07,-1.91 0.09,-2.38 -0.03,-3.56l10.62 4.34c5.4,-9.29 4.18,-3.72 3.61,-14.66 -1.19,-0.48 -2.78,-0.8 -3.64,-1.19l-5.71 -3.11c-0.49,-1.17 -1.41,-1.21 -1.99,-1.8l-6.68 2.16z"/>
   <path class="fil23" d="M65.03 278.02l7.83 -0.36 -0.41 5.17 18.52 3.21 19.55 -0.57 1.15 -8.25c-7.82,2.04 -8.43,3.14 -14.89,-3.99 -8.56,-0.62 -8.51,2.19 -13.15,-4.56 -10.94,-2.68 -8.85,-3.63 -18.84,-5.98l0.23 15.34z"/>
   <path class="fil24" d="M77.65 209.77c7.12,-1.36 7.63,-2.75 12.18,-6.37 3.42,2.35 2.32,4.01 4.07,6.98l7.7 0.38 13.68 -2.02c-5.69,-10.52 -1.68,4.52 0.83,-4.5 2.14,-7.72 4.42,-5.1 -2.64,-10.05 -9.37,7.33 -0.16,2.23 -11.01,5.88l-1.01 -3.98c-11.67,-6.15 1.68,-6.2 -17.15,-9.49l-6.65 23.17z"/>
   <path class="fil25" d="M212.84 107.55l-6.55 15.94 3.13 -0.05c8.75,-1.01 5.72,2.32 3.06,6.91 12.86,-2.99 7.01,-2.49 15.05,-6.06 9.61,-4.27 5.44,-2 17.65,5.08l-4.03 -8.64 -1.82 -8.45c-0.51,-0.81 -1.14,-1.84 -1.44,-2.49 -0.3,-0.64 -0.97,-1.72 -1.31,-2.5l-4.23 -12.31c-5.66,8.32 -3.37,2.28 -8.42,9.8 -1.99,2.97 -4.71,9.63 -6.66,13.63 -6.9,-4.75 -6.84,8.27 -4.43,-10.86z"/>
   <path class="fil26" d="M218.59 153.32c1.24,9.95 -0.98,2.59 6,5.45l3.05 1 10.66 -0.56c15.98,-1.22 2.62,-1.23 8.43,2.45l11.47 1.39c-0.6,-0.75 -1.21,-1.82 -1.5,-2.45 -0.28,-0.59 -0.93,-1.7 -1.25,-2.42l-23.81 -23.86 -13.05 19z"/>
   <path class="fil27" d="M175.45 208.15l-3.31 2.98 0 3.91c2.12,17.86 -13.06,15.25 -18.4,15.45 5.31,10.72 -1.51,-3.52 -5.44,5.18 -1.77,3.93 1.14,3.03 1.42,3.3 -5.68,-3.95 8.78,-4.3 -10.23,-2.77 -0.02,1.05 -0.09,3.84 -0.23,4.64 -0.82,4.56 -0.44,3.31 -2.2,9.97 0.54,-0.29 5.34,-0.27 13.48,-7.28l0.64 9.73 3.86 -0.17 1.37 -0.28 2.93 -3.01 -1 -6.29c7.26,-5.67 4.38,-4.92 9.76,-13.52l4.6 -8.6c1.39,0.65 2.92,1.09 4.28,1.71 1.22,0.56 2.56,0.88 3.85,1.52 1.02,0.5 2.02,0.96 2.91,1.45 9.15,4.94 -0.44,-3.78 3.44,3.81 -1.66,-1.93 -1.83,-2.93 -3.43,-5.32 -3.92,-5.86 -0.91,-3.19 -4.73,-6.36 3.41,-11.6 -0.22,-2.61 6.29,-12.7l-9.88 2.65z"/>
   <path class="fil10" d="M125.6 282.11c2.01,11.97 1.61,3.72 -3.2,6.1l-19.79 6.4c11.94,1.83 1.1,4.1 13.3,-1.92 -7.81,6.69 -6.35,2.07 -6.44,15.67 0.14,0.05 4.67,2.71 10.14,0.32 5.38,-2.35 1.53,-1.33 5.56,-4.27 5.96,-4.33 -1.94,-0.22 6.52,-4.49l5.42 -16.56 -2.99 -8.51c-6.54,9.42 0.32,2.8 -8.52,7.26z"/>
   <path class="fil28" d="M77.65 209.77l-9.3 2.54 0.1 1.33 -0.88 10.6c-4.4,3.86 5.73,5.58 -5.58,3.2 -6.49,7.66 7.32,7.35 -13.42,2.03 6.8,6.86 -3.31,4.16 12.61,3.9 5.59,-0.09 0.36,-1.34 10.04,-1.01 5.96,-5.45 8.09,-6.56 15.16,-12.06 4.33,-4.13 6.14,-9.09 15.26,-3.66l-0.04 -5.89 -7.7 -0.38c-1.75,-2.97 -0.65,-4.63 -4.07,-6.98 -4.55,3.62 -5.06,5.01 -12.18,6.37z"/>
   <path class="fil29" d="M93.56 175.33l-1.95 2.94c15.06,-1.59 10.19,11.1 9.84,17.82l1.01 3.98c10.85,-3.65 1.64,1.44 11.01,-5.88l6.29 -6.17c-4.39,-6.31 -7.08,7.65 -2.99,-7.75 13.36,-6.48 -0.03,1.68 6.69,-8.01 -8.55,-3.68 -4.67,0.31 -8.26,-7.05 -10.03,4.68 -7.85,8.35 -21.65,10.13z"/>
   <path class="fil30" d="M138.38 272.37c-0,-0.56 -0.73,1.69 -1.1,1.27l1.1 -1.27zm-1.34 -13.21l-2.91 15.69 2.99 8.51 13.44 4.23c-3.09,-15.42 -6.84,-16.13 7.65,-20.02 -0.25,-1.17 -0.58,-2.56 -0.79,-3.5 -0.2,-0.88 -0.53,-2.32 -0.74,-3.27 -0.19,-0.84 -0.48,-2.16 -0.64,-2.89l-0.98 -4.81 -3.86 0.17 -14.15 5.9z"/>
   <path class="fil31" d="M24.05 148.44c0.03,7.58 0.68,4.13 -2.3,8.49 -9.48,13.83 2.12,4.62 -7.1,7.55l9.24 18.94 0.41 -5.07c7.49,-11.27 0.07,-6.76 11.42,-11.82 0.88,-10.45 0.58,-9.06 3.57,-16.34l-1.15 -7.97 -12.6 1.22 -1.48 5.02z"/>
   <path class="fil32" d="M22.79 121.69c0.57,10.94 1.8,5.37 -3.61,14.66 -0.74,7.86 0.22,2.4 -1.88,8.91 -0.28,0.87 -1.32,3.57 -1.56,3.08 -0.25,-0.51 -1.26,2.06 -1.9,3.08l1.43 3.86c2.37,0.26 -2.34,-0.05 2.51,-3.32 0.73,-0.49 1.98,-1.25 2.76,-1.74 0.94,-0.6 2.29,-1.32 3.52,-1.77l1.48 -5.02c-7.21,3.2 -0.65,1.94 -4.61,-6.22 5.27,-0.95 13.76,-1.02 17.96,-2.69 3.37,-1.34 7.46,-6.09 12.37,-9.07 -3.25,-7.77 1.89,-8.1 -3.42,-6.97 13.54,1.34 1.75,0.83 6.79,-2.71l-11.72 1.24c-14.93,5.53 3.28,5.92 -20.1,4.68z"/>
   <path class="fil33" d="M46.23 146.91c-5.99,6.41 -0.91,2.15 -6.96,3.27 -2.99,7.28 -2.68,5.9 -3.57,16.34 14.51,-2.98 5.43,-3.06 15.03,-7.35 6.74,-3.01 11.41,-2.61 17.21,-2.73l3.53 -7.37 -10.24 0.21c2.97,-11.4 3.75,-5.79 0.77,-13.61 -0.71,0.35 -1.64,0.9 -2.06,1.17l-13.72 10.06z"/>
   <path class="fil34" d="M11.41 160.86l0.32 22.57c-0.49,0.25 -1.36,0.47 -1.59,0.49l-7.71 -0.51 2.14 8.31c9.29,3.17 5.46,3.95 14.06,10.44 2.31,-4.3 -2.91,-4.69 5.43,-2.01 0.51,8.45 -0.93,0.61 5.68,4.24l-0.45 -10.83c-8.05,5.91 8.71,1.42 -4.24,1.46 -5.19,0.02 -1.75,-10.02 -1.33,-12.83l0.16 1.21 -9.24 -18.94 0.62 -9.2 -3.85 5.59z"/>
   <path class="fil35" d="M96.78 85.13l2.27 14.79 6.4 5.03 10.13 2.74c-0.84,-1.32 -2.31,-4.65 -2.42,-3.76 -0.09,0.67 -1.39,-2.44 -1.45,-2.92l6.58 -6.11c6.27,-6.88 0.29,0.83 4.1,-7.03l-7.56 0.32 -10.25 -1.91c0.02,-9.45 1.83,-1.17 -4.61,-10.03 -2.6,-4.97 -2.77,-5.46 -4.92,-9.62l-21.9 0.62c18.82,1.91 8.99,6.5 23.79,3.41l-0.16 14.47z"/>
   <path class="fil36" d="M253 213.07c-0.85,9.19 -0.49,13.76 -1.43,21.05 -1.82,14.07 -1.86,-0.95 2.6,13.35 9.75,-1.74 15.31,-4.9 25.89,-7.48l3.68 -1.47 -17.58 -0.71 -2.56 -11.58c-4.99,-13.36 -5.95,-4.15 -4.62,-21.38 -5.71,5.5 0.01,-6.33 -5.97,8.22z"/>
   <path class="fil37" d="M71.23 232.37l-0.36 5.09 6.99 0.11c11.94,5.5 1.66,1.61 12.82,3.4 2.48,0.4 4.64,-0.79 6.14,0.87 0,-16.41 -1.27,-0.65 6.6,-7.8l3.06 -0.03 0.6 -4.84c-12.59,-2.17 -4.76,0.18 -7.24,-4.71 -7.16,-1.47 -4.84,-0.98 -13.45,-4.14 -7.06,5.49 -9.2,6.61 -15.16,12.06z"/>
   <path class="fil38" d="M129.31 142.95c-5.31,2.47 -3.21,-5.51 -4.59,2.42l-2.96 9.58c12.73,-3.93 2.2,-5.3 9.8,0.02l-9.46 15.8c9.02,0.01 5.95,-1.29 7.79,3.58 7.15,4.82 2.94,2.61 8.86,5.22 2.18,-2.79 2.65,-4.52 5,-6.76 -8.23,-2.57 -6.53,-3.53 -10.89,-14.66 5.16,-5.45 -7.02,-2.42 8.71,-5.42 1.49,-14.77 4.96,4.1 2.57,-15.85l-14.84 6.09z"/>
   <path class="fil39" d="M96.78 145.87l-5.12 12.84c7.17,4.02 2.06,-1.04 8.23,7.31 3.12,-1.33 6.93,-2.38 10.32,-4.34 9.78,-5.65 1.74,0.6 8.38,-6.71l-5.66 0.52 4.82 -16.35 -12.21 0.18c-2.44,2.14 -4.9,4.13 -8.76,6.54z"/>
   <path class="fil40" d="M219.92 138.71c-7.18,6.6 -3,1.37 -5.94,8.7l2.06 4.41 2.54 1.5 13.05 -19 23.81 23.86c0.32,0.72 0.97,1.83 1.25,2.42 0.29,0.62 0.9,1.7 1.5,2.45l3.82 -7.51 0.18 -9.64 -7.14 -0.98 -3.95 -2.65c-8.37,0.11 -2.94,1.18 -7.17,-4.45l-0.84 -2.2 -4 -3.34c-12.27,0.78 -13.52,1.67 -19.18,6.44z"/>
   <path class="fil41" d="M156.92 214.5c-9.23,11.1 -12.7,9.11 -17.94,17.54l0.51 4.15c19.01,-1.53 4.54,-1.18 10.23,2.77 -0.28,-0.28 -3.2,0.62 -1.42,-3.3 3.93,-8.69 10.74,5.55 5.44,-5.18 5.34,-0.21 20.52,2.41 18.4,-15.45 -7.88,-3.12 -2.8,-0.11 -9.27,-5.59l-5.94 5.06z"/>
   <path class="fil42" d="M22.79 121.69c23.38,1.23 5.17,0.84 20.1,-4.68 5.34,-8.72 4.25,-6.34 9.53,-12.62 -19.88,4.13 -12.23,-0.65 -33.82,-0.68 0.95,11.34 -0.19,6.39 4.19,17.99z"/>
   <path class="fil43" d="M156.71 37.06c-17.16,0.54 -2.27,-0.84 -19.25,8.02l10.73 -1.08 5.29 5.91 0.1 -8.78c7.63,3.38 4.78,0.13 9.29,4.89 6.39,6.74 1.16,1.27 0.29,3.58 0.52,0.7 1.17,0.97 1.51,2.12 0.35,1.17 1.25,1.61 1.73,1.98 3.63,2.77 0.82,1.37 7.33,4.49 0.35,-0.67 0.88,-2.52 1.09,-2.01l6.02 -6.31c2.91,-2.65 4.59,-4.1 6.18,-6.83l-4.17 -7.25 -7.43 -1.67 -0.8 4.21c11.07,4.92 4.62,0.23 8.6,6.71 -20.09,0.36 -7.09,-4.74 -26.52,-8z"/>
   <path class="fil44" d="M108.74 262.18c-1.93,5.48 1.77,1.45 -5.34,9.77l13.16 -4.17 8.68 -3.35c2.75,12.02 5.66,2.95 -2.48,12.96l-0.32 3.45 3.18 1.26c8.84,-4.47 1.98,2.15 8.52,-7.26l2.91 -15.69 0.4 -3.1 -5.22 4.87 -2.87 -7.82 -5.75 -2.79c-4.65,8.14 -1.45,9.17 -14.86,11.87z"/>
   <path class="fil45" d="M243.62 246.33c3.95,4.01 0.75,2.71 8.21,4.21 4.97,1.01 7.53,0.83 12.53,-0.14 8.19,-1.59 11.78,-4.38 15.7,-10.41 -10.57,2.58 -16.13,5.74 -25.89,7.48 -4.46,-14.3 -4.42,0.72 -2.6,-13.35 0.94,-7.29 0.58,-11.87 1.43,-21.05l-8.09 2.47 -1.29 30.79z"/>
   <path class="fil46" d="M104.24 68.2l12.79 -1.84 0.12 0.16c2.21,-2.39 6.43,-1.92 6.62,-12.74l-17.06 -7.35c-7.09,3.81 8.4,6.45 -12.51,2.28l4.89 9.75c0.04,-0.4 -0.61,1.07 -0.85,1.64 9.14,4.02 1.84,1.78 6,8.1z"/>
   <path class="fil47" d="M143.51 198.71c-11.14,-4.84 -5.28,-5.85 -15.04,-5.81 -1.31,18.43 -6.5,20.56 -1.66,27.22l7.93 -9.33c-0.07,0.19 -11.03,0.81 9.48,10.57l-0.7 -22.65z"/>
   <path class="fil48" d="M143.76 172.79c-2.35,2.24 -2.81,3.98 -5,6.76 5.84,4.6 3.09,-0.75 8.63,7.56 16.9,-6.37 2.1,-6.51 14.94,-6.85l10.34 -0.6 -3.07 -8.77c-6.01,3.73 0.71,0.39 -6.31,2.24l-2.53 -6.73c3.36,-8.63 2.47,-2.67 -3.86,-5.08 -7.53,5.58 -3.61,-1.65 -7.23,13.22l-5.91 -1.76z"/>
   <path class="fil49" d="M232.31 174.89l11.07 5.37 -4.16 8.57 9.38 3.76c11.49,-4.93 2.94,2.94 3.17,-6.12l10 0.56 1.17 -9.92 -5.64 3.89c-0.79,-7.2 2.91,-0.36 -2.24,-7.3 -0.03,-0.04 -4.56,-3.88 -5.44,-4.46l-6.45 -1.27c-5.81,2.75 -6,3.09 -10.86,6.92z"/>
   <path class="fil50" d="M159.18 69.6l2.46 16.54c3.73,2.31 -2.02,4.08 7.87,-0.76 6.99,-5.1 5.06,-1.58 6.13,-11.67 0.93,0.5 3.83,2.05 4.41,2.33 6.22,2.98 -3.08,-0.94 6.61,3.01 -2.36,-4.04 3.86,-3.31 -4.87,-3.2l2.47 -19.12 -10.54 1.47 -4.52 16.2 -10.04 -4.81z"/>
   <path class="fil51" d="M154.85 137.6l-6.2 7.41 8.93 12.9 10.74 -2.68 3.17 -9.73c-8.76,8.2 -2.12,2.98 -4.65,-0.02l3.65 -9.54 -7.03 -3.09 -3.34 2.59 -0.85 -7.29 -4.05 0.13 -0.36 9.32z"/>
   <path class="fil52" d="M99.98 76.25c8.69,4.34 8.33,3.09 14.86,11.94l7.56 -0.32 2.18 -0.21c-4.21,-8.88 7.95,-1.98 15.98,0.27 0,-16.72 -3.24,-1.72 -21.61,-6.2l-1.9 -15.37 -12.79 1.84 -9.19 -1.57c2.15,4.16 2.33,4.65 4.92,9.62z"/>
   <path class="fil53" d="M159.34 249.8c9.14,-3.09 9.48,-4.18 16.82,-9.15 2.35,-1.59 5.85,-3.76 7.49,-5.31 4.62,-4.41 1.59,-1.74 3.56,-5.46 -3.88,-7.59 5.71,1.13 -3.44,-3.81 -0.9,-0.48 -1.9,-0.94 -2.91,-1.45 -1.3,-0.64 -2.63,-0.96 -3.85,-1.52 -1.36,-0.62 -2.89,-1.06 -4.28,-1.71l-4.6 8.6c-5.38,8.6 -2.5,7.85 -9.76,13.52l1 6.29z"/>
   <path class="fil54" d="M173.73 58.21l10.54 -1.47 -2.47 19.12 9.85 -3.1 -0.61 -12.15c0.53,-0.91 3.35,-5.18 3.65,-5.86 9.28,-21.37 -5.41,4.24 2.01,-8.62 -2.02,-5.08 -0.1,-5.25 -9.68,-3.06 -1.59,2.73 -3.27,4.18 -6.18,6.83l-6.02 6.31c-0.21,-0.51 -0.74,1.33 -1.09,2.01z"/>
   <path class="fil55" d="M69.4 239.7l-4.5 21.28 -0.11 1.7c10,2.36 7.91,3.3 18.84,5.98l-2.66 -5.51 6.06 -0.24c-5.96,-13.33 -3.01,-7 1.83,-10.03 0,-4.92 1.2,-3.78 -3.75,-3.26 -13.37,5.19 -6.66,13.51 -10.44,4.72 -0.19,-0.45 -0.99,0.43 -1.51,0.59 -1.66,-14.56 0.87,-8.97 5.13,-12.56l-0.45 -4.82 -6.99 -0.11 -1.46 2.24z"/>
   <path class="fil56" d="M43.01 204.84c11.14,14.18 -12.46,-13.82 6.92,5.88 6.72,6.83 -0.02,-3.61 4.43,6.63l0.62 3.29 11.63 -4.97c0.49,-0.38 1.19,-1.39 1.85,-2.02l-0.1 -1.33 -0.54 -4.56c-0.1,-0.49 -0.52,-1.51 -0.63,-2.04 -2.18,-10.71 -1.5,-5.97 3.5,-14.65 -6.33,3.24 -9.68,4.97 -14.66,8.17 -5.12,3.29 -5.14,5.01 -13.03,5.61z"/>
   <path class="fil57" d="M118.59 154.98c-6.65,7.3 1.4,1.05 -8.38,6.71 -3.39,1.96 -7.2,3.01 -10.32,4.34l-6.33 9.3c13.8,-1.78 11.61,-5.45 21.65,-10.13 3.59,7.36 -0.3,3.37 8.26,7.05 5.68,8.15 0.38,4.9 6.44,2.09 -1.84,-4.86 1.23,-3.57 -7.79,-3.58l9.46 -15.8c-7.6,-5.31 2.93,-3.94 -9.8,-0.02l-3.17 0.03z"/>
   <path class="fil15" d="M187.02 43.06c9.57,-2.19 7.65,-2.02 9.68,3.06 4.36,-1.43 3.14,-2.33 4.11,1.89l3.03 2.99 6.01 6.88c5.45,-3.18 6.32,8.12 2.46,-7.56l-0.17 -3.14c-2.4,-10.1 3.47,-2.48 -2.9,-8.01 -4.39,-3.82 -2.65,-1.47 -9.72,-3.28 -10.08,-2.58 -7.55,-2.94 -17.6,-4.24l0.94 4.14 4.17 7.25z"/>
   <path class="fil58" d="M240.5 219.83c-6.34,5.86 -12.96,13.21 -8.87,22.55l-10.77 -2.02c4.34,8.24 11.96,4.98 22.76,5.96l1.29 -30.79 -4.41 4.29z"/>
   <path class="fil59" d="M227.79 80.4l2.2 9.11 2.36 5.47 4.23 12.31c0.34,0.77 1,1.86 1.31,2.5 0.31,0.65 0.93,1.68 1.44,2.49l0.24 -11.16 6.9 17.98 2.61 -16.61 -2.58 -6.34 -5.69 1.88 -3.83 2.1c-3.78,-14.83 -1.19,-2.51 2.45,-7.79 -3.75,-6.25 -4.72,-12.16 -7.43,-21.98 -6.74,4.46 -7.03,-5.77 -4.21,10.04z"/>
   <path class="fil60" d="M68.36 87.3c-0.66,9.27 -0.33,3.69 -11.6,12.33l-3.34 4.13 16.39 2.25c-1.97,-6.22 -3.87,-5.45 1.94,-4.96l5.73 -4.24c0.33,-1.21 1.36,-1.37 2.14,-1.93 -5.31,-12.96 -6.63,-11.4 -7.66,-26.04l-0.88 1.24 -4.73 8.98 2 8.24z"/>
   <path class="fil61" d="M265.93 196.06l-2.4 1.78c5.94,6.93 5.54,6.72 0.87,14.03 -3.71,-6.92 -7.34,9.35 -1.98,-9.87l-3.45 2.85c-1.33,17.23 -0.37,8.02 4.62,21.38l1.85 -0.71c2.21,-20.44 0.64,-7.36 5.79,-12.66 1.51,-6.83 -1.01,-2.16 5.23,-7.93l0.46 -3.31 -4.03 -2.72c0.53,-1.28 1.29,-1.88 1.61,-3.23 3.41,-14.54 -0.52,-6.75 -5.69,-12.17l-2.87 12.56z"/>
   <path class="fil62" d="M33.57 224.48c2.59,6.59 -0.27,5.63 3.57,8.9 16.04,-1.62 3.78,-0.24 11.44,-3.91 20.74,5.32 6.93,5.63 13.42,-2.03 -9.4,-2.56 -8.06,3.3 -7.02,-6.82l-0.62 -3.29 -8.16 -4.32c-0.93,0.86 -1.94,1.84 -2.78,2.61l-9.84 8.84z"/>
   <path class="fil63" d="M131.8 33.54l24.91 3.52c19.42,3.26 6.43,8.37 26.52,8 -3.98,-6.48 2.47,-1.79 -8.6,-6.71l-4.57 -7.14 -19.48 -1.76c-0.99,0.01 -7.07,-0.2 -8.06,-0.01 -17.42,3.36 -5.14,1.08 -10.72,4.1z"/>
   <path class="fil64" d="M296.68 163.96l0.39 4.03 1.16 21.35c4.1,4.67 3.31,0.05 2.98,10.3l7.31 0.33c-2.58,-16.54 -1.28,-37.13 -13.35,-47.52l1.51 11.5z"/>
   <path class="fil65" d="M69.99 148.91l6.95 -0.15 10.91 -1.58c3.81,-4.82 7.35,-12.03 12.39,-19.28l-30.3 11.23 0.05 9.79z"/>
   <path class="fil66" d="M25.53 143.42l12.6 -1.22 1.15 7.97c6.05,-1.12 0.97,3.14 6.96,-3.27 4,-14.18 5.49,-7.49 5.02,-21.47 -4.91,2.98 -9,7.73 -12.37,9.07 -4.2,1.67 -12.68,1.74 -17.96,2.69 3.96,8.16 -2.6,9.42 4.61,6.22z"/>
   <path class="fil50" d="M70.69 191.06c-5.01,8.68 -5.68,3.95 -3.5,14.65 0.11,0.53 0.52,1.55 0.63,2.04l0.54 4.56 9.3 -2.54 6.65 -23.17 -1.28 1.44c0,-5.84 0.94,-3.29 -7.15,-2.22l-5.18 5.23z"/>
   <path class="fil10" d="M212.48 130.35l-1.04 6.39 8.49 1.96c5.66,-4.77 6.91,-5.66 19.18,-6.44l4 3.34 3.4 -9.11 -5.35 -5.77 4.03 8.64c-12.2,-7.07 -8.04,-9.34 -17.65,-5.08 -8.04,3.57 -2.2,3.07 -15.05,6.06z"/>
   <path class="fil50" d="M143.76 172.79l5.91 1.76c3.63,-14.87 -0.3,-7.64 7.23,-13.22 -1.66,-0.83 -7.31,-2.96 -9.47,-4.14 -9.28,-5.05 3.27,4.22 -5.85,-4.48 -15.73,3 -3.55,-0.04 -8.71,5.42 4.36,11.13 2.66,12.09 10.89,14.66z"/>
   <path class="fil67" d="M262.93 177.12l-1.17 9.92c8.55,-0.12 2.54,-1.92 4.16,9.02l2.87 -12.56c5.17,5.43 9.1,-2.37 5.69,12.17 -0.32,1.35 -1.08,1.95 -1.61,3.23l4.03 2.72c6.12,-4.53 6.09,-7.22 15.04,-6.66l-1.76 -5.6c-19.44,4.31 10.36,-5.18 -5.57,1.41l-5.07 2.26c-0.61,0.29 -1.67,0.98 -2.51,1.45 1.09,-28.64 -3.16,-20.56 -7.7,-23.44 -2.39,4.59 -0.08,3.35 -6.39,6.07z"/>
   <polygon class="fil68" points="239.33,112.28 241.15,120.73 246.5,126.5 243.1,135.61 243.94,137.81 255.24,136.98 255.36,127.75 253.01,127.12 249.08,102.49 246.47,119.1 239.57,101.12 "/>
   <path class="fil69" d="M29.74 204.4l7.62 3.08 8.82 5.55 8.16 4.32c-4.44,-10.24 2.3,0.2 -4.43,-6.63 -19.38,-19.69 4.22,8.3 -6.92,-5.88 -3.37,-4.58 -4.59,-6.06 -8.63,-11.87 -4.01,-5.77 0.87,-0.23 -4.27,-5.78 -4.49,-4.85 -3.01,-2.35 -6.38,-4.99 -0.42,2.81 -3.86,12.85 1.33,12.83 12.95,-0.04 -3.8,4.45 4.24,-1.46l0.45 10.83z"/>
   <path class="fil70" d="M248.6 203.04l-1.04 4.9 -2.65 7.59 8.09 -2.47c5.99,-14.55 0.26,-2.72 5.97,-8.22l3.45 -2.85c-2.45,-4.26 -3.36,-3.09 1.11,-4.16l2.4 -1.78c-1.63,-10.94 4.39,-9.15 -4.16,-9.02l-10 -0.56c4.32,9.68 -2.66,2.03 4.88,9.6l-8.05 6.97z"/>
   <path class="fil71" d="M90.98 286.04c-5.02,9.04 1.35,1.48 -7.46,5.27 -2.18,0.94 -4.54,0.47 -7.62,0.29l0 4.24 26.72 -1.24 19.79 -6.4c-13.77,2.37 -4.56,2.33 -7.07,-4.06l-4.81 1.32 -19.55 0.57z"/>
   <path class="fil72" d="M108.86 128.56l-3.32 10.78 12.21 -0.18 5.87 -5.98c5.54,6.88 1.86,1.26 5.69,9.79 6.24,-7.29 7.92,-8.7 9.18,-20.58 -0.49,0.93 -2.45,4.16 -2.81,4.71l-4.09 5.29c-1.08,-0.36 -2.37,-1.08 -3.1,-1.45 -21.47,-11.02 3.95,-4.1 -8.52,-3.63 -0.67,0.03 -8.59,1.63 -11.09,1.26z"/>
   <path class="fil73" d="M191.04 60.6l17.32 7.69c19.04,-4.99 3.59,4.41 4.18,-4.84 -1.11,-3.2 2.44,-0.06 -2.69,-5.56l-6.01 -6.88 -3.03 -2.99c-0.96,-4.23 0.26,-3.32 -4.11,-1.89 -7.42,12.86 7.26,-12.75 -2.01,8.62 -0.3,0.68 -3.12,4.95 -3.65,5.86z"/>
   <path class="fil74" d="M287.43 212.77l-1.45 9.89c-2.39,9.75 -1.53,4.52 -4.03,7.89l-14.37 2.19c-4.05,-2.9 -0.28,-1.09 -2.14,-7.22l-1.85 0.71 2.56 11.58 17.58 0.71 8.97 -21.49 1.17 -13.06 -6.43 8.8z"/>
   <path class="fil75" d="M42.89 117l11.72 -1.24c1.12,-0.16 7.93,-0.89 7.99,-0.9 8.93,-1.45 1.1,0.55 8.88,-1.79l-1.67 -7.06 -16.39 -2.25 -1 0.62c-5.28,6.27 -4.18,3.9 -9.53,12.62z"/>
   <path class="fil27" d="M218.96 97.81l-6.12 9.74c-2.41,19.13 -2.47,6.11 4.43,10.86 1.95,-3.99 4.67,-10.66 6.66,-13.63 5.04,-7.52 2.76,-1.48 8.42,-9.8l-2.36 -5.47c-7.45,1.78 -2.56,0.16 -6.52,2.95 -0.15,0.11 -1.73,6.37 -3.14,3.4 -0.26,-0.55 -0.85,1.35 -1.37,1.94z"/>
   <path class="fil76" d="M218.96 97.81c0.52,-0.6 1.11,-2.5 1.37,-1.94 1.41,2.97 2.98,-3.29 3.14,-3.4 3.97,-2.8 -0.93,-1.17 6.52,-2.95l-2.2 -9.11c-5.74,-6.17 3.01,5.21 -4.34,-4.68 -4.29,-5.77 0.89,2.19 -3.81,-6.8l-1.62 -0.75c-2.36,13.88 -4.13,18.42 0.94,29.64z"/>
   <path class="fil24" d="M160.82 59.75l-0.88 9.36 -0.77 0.49 10.04 4.81 4.52 -16.2c-6.51,-3.12 -3.7,-1.72 -7.33,-4.49 -0.48,-0.37 -1.38,-0.81 -1.73,-1.98 -0.35,-1.16 -0.99,-1.43 -1.51,-2.12 -1.58,1.06 -9.82,-2.44 -2.33,10.14z"/>
   <path class="fil77" d="M77.85 237.57l0.45 4.82 5.93 2.38 0.88 4.86c4.95,-0.52 3.75,-1.66 3.75,3.26l5.77 -0 7.33 -6.65 1.46 -12.21c-7.87,7.15 -6.6,-8.61 -6.6,7.8 -1.51,-1.66 -3.66,-0.47 -6.14,-0.87 -11.16,-1.79 -0.87,2.1 -12.82,-3.4z"/>
   <path class="fil78" d="M207.69 169.81c3.52,3.02 4.17,-5.45 2.06,7.42l7.28 -2.98 -0.99 -22.43 -2.06 -4.41c-3.74,2.34 -4.85,0.79 -7.49,3.49l1.19 18.92z"/>
   <path class="fil79" d="M271.22 212.86c-5.15,5.3 -3.58,-7.79 -5.79,12.66l20.54 -2.86 1.45 -9.89 -16.21 0.09z"/>
   <path class="fil80" d="M83.64 268.67c4.64,6.75 4.58,3.94 13.15,4.56l6.62 -1.28c7.11,-8.32 3.41,-4.29 5.34,-9.77l-7.8 1.38 -13.91 -0.64 -6.06 0.24 2.66 5.51z"/>
   <path class="fil81" d="M49.3 253.38l0.36 2.94 1.81 1.41c8.68,3.07 6.41,10.44 6.78,20.53l0.1 3.45 2.98 0c-0.63,-5.52 -1.84,-4.27 3.7,-3.68l-0.23 -15.34 0.11 -1.7 -6.37 -9.87 -9.24 2.26z"/>
   <path class="fil82" d="M224.14 190.01c2.41,5.86 -4.08,5.25 5.22,4.45 5.67,-12.14 -2.93,-1.87 6.89,-5.56l2.97 -0.06 4.16 -8.57 -11.07 -5.37 -2.76 0.43 -5.41 14.69z"/>
   <path class="fil83" d="M285.91 159.36c17.98,4.65 -6.68,-4.1 5.62,1.76 0.73,0.35 4.27,2.25 5.14,2.84l-1.51 -11.5c-3.06,-7.15 -1.53,-9.84 -12.33,-11.25l-0.61 13.01 3.68 5.13z"/>
   <path class="fil84" d="M59.19 300.66c6.13,-8.88 4.09,-2.93 11.83,-3.07l4.87 -1.74 0 -4.24 -1.25 -1.71c-8.89,-1.24 -10.5,0.6 -13.32,-8.19l-2.98 0c-1.4,3.95 -2.55,3.99 -2.61,9.48 -0.14,14.12 -0.54,6.41 3.45,9.47z"/>
   <path class="fil85" d="M142.74 80.2l0.51 -4.84 -5.29 -2.71c12.57,-3.88 2.89,1.11 6.74,-7.46l-11.13 -0.57c-4.21,13.11 -5.87,5.75 -12.21,14.24l21.39 1.34z"/>
   <path class="fil24" d="M144.15 136.86c2.4,19.94 -1.08,1.08 -2.57,15.85 9.11,8.71 -3.43,-0.57 5.85,4.48 2.16,1.18 7.81,3.31 9.47,4.14l0.67 -3.43 -8.93 -12.9 6.2 -7.41c-11.57,-2.3 -2.02,5.52 -8.5,-4.56 -3.31,2.48 -4.79,-3.6 -2.2,3.83z"/>
   <path class="fil86" d="M177.19 116.55l-0.8 4.97 7.09 4.32 -0.77 8.8c9.05,2.1 5.6,-2.19 6.9,-13.38l-2.47 -9.93c-13.16,5.16 -3.32,2.41 -7.34,-0.1l-4.51 0 1.91 5.31z"/>
   <path class="fil87" d="M140.55 87.93c3.58,-4.78 2.58,-2.17 2.2,-7.73l-21.39 -1.34c6.34,-8.49 8.01,-1.13 12.21,-14.24l-16.41 1.89 -0.12 -0.16 1.9 15.37c18.37,4.48 21.61,-10.52 21.61,6.2z"/>
   <path class="fil13" d="M217.03 174.25l3.88 0.23 9.28 -6.53c0.54,-0.37 1.41,-0.74 1.93,-1.15l6.18 -7.59 -10.66 0.56c1.41,7.45 4.97,-1.34 -1.18,5.23 -4.45,-3.3 -8.92,7.66 -1.86,-6.23 -6.98,-2.86 -4.76,4.5 -6,-5.45l-2.54 -1.5 0.99 22.43z"/>
   <path class="fil88" d="M109.47 308.36c-4.37,-0.07 -3.07,-1.23 -7.72,-0.01 -11.62,3.06 -5.09,1.82 -8.96,4.84 7.55,0.47 9.96,0.16 16.96,0.22 19.91,0.18 6.69,-2.39 14.05,2.29 7.26,-6.96 5,-4.96 7.88,-15.78 -8.45,4.27 -0.56,0.16 -6.52,4.49 -4.03,2.93 -0.18,1.92 -5.56,4.27 -5.47,2.39 -9.99,-0.27 -10.14,-0.32z"/>
   <path class="fil89" d="M93.71 99.06l5.34 0.87 -2.27 -14.79c-0.74,-0.58 -1.66,-2.55 -2.08,-1.91 -3.33,5.13 0.77,-2.93 -12.17,-7.27 3.83,15.14 2.66,3.89 0.67,15.77 9.14,4.52 5.1,-3.37 10.5,7.33z"/>
   <path class="fil90" d="M87.85 147.18l8.94 -1.31c3.86,-2.41 6.32,-4.4 8.76,-6.54l3.32 -10.78 -8.63 -0.66c-5.04,7.25 -8.58,14.47 -12.39,19.28z"/>
   <path class="fil91" d="M152.36 89.4c1.16,8.18 3.64,3.26 -2.6,7.43l10.27 -0.2 2.14 0.07 16.1 -3.25c-5.51,-3.79 -6.09,-4.14 -8.75,-8.08 -9.9,4.85 -4.15,3.07 -7.87,0.76l-9.28 3.26z"/>
   <path class="fil11" d="M149.78 120.21l5.72 -1.49 2.04 -3.87 0.6 -4.62 1.89 -13.6 -10.27 0.2c4.51,14.07 0.15,7.33 -0.87,15.12 -0.69,5.31 -1.17,0.95 0.89,8.26z"/>
   <path class="fil92" d="M156.92 214.5l5.94 -5.06c6.47,5.48 1.39,2.47 9.27,5.59l0 -3.91c-5.35,-8.51 -2.58,-10.91 -5.62,-21.58l-3.31 -6.09c-10.89,5.11 -2.92,0.19 -6.51,7.54 12.53,-1.39 2.13,-4.47 10.09,2.15l-9.87 21.35z"/>
   <path class="fil93" d="M239.43 92.34l1.38 5.69 5.69 -1.88 -0.96 -7.99c-4.31,0 -3.25,1.05 -2.96,-3.34l1 -5.92 -7.38 -7.84 -4.22 -0.69c2.71,9.82 3.69,15.73 7.43,21.98z"/>
   <path class="fil94" d="M117.76 139.15l-4.82 16.35 5.66 -0.52 3.17 -0.03 2.96 -9.58c1.38,-7.93 -0.72,0.05 4.59,-2.42 -3.82,-8.53 -0.15,-2.91 -5.69,-9.79l-5.87 5.98z"/>
   <path class="fil67" d="M96.78 273.23c6.46,7.13 7.07,6.03 14.89,3.99l-1.15 8.25 4.81 -1.32 7.09 -3.3 0.32 -3.45 -12.1 -2.57 5.91 -7.05 -13.16 4.17 -6.62 1.28z"/>
   <path class="fil95" d="M239.22 188.84l-2.97 0.06 0.9 8.92 11.45 5.23 8.05 -6.97c-7.55,-7.57 -0.56,0.08 -4.88,-9.6 -0.23,9.06 8.32,1.19 -3.17,6.12l-9.38 -3.76z"/>
   <path class="fil96" d="M25.1 216.78c2.47,3.14 1.52,2.35 4.63,5.31 1.08,1.02 3.04,1.95 3.84,2.4l9.84 -8.84c0.84,-0.77 1.85,-1.75 2.78,-2.61l-8.82 -5.55 -9.01 7.63c-0.58,-0.79 -2.18,1.09 -3.26,1.67z"/>
   <path class="fil97" d="M84.3 186.61c18.83,3.29 5.48,3.33 17.15,9.49 0.35,-6.72 5.23,-19.41 -9.84,-17.82 -3.25,4.07 -5.01,6.02 -7.32,8.33z"/>
   <path class="fil85" d="M209.85 57.89c5.13,5.5 1.59,2.36 2.69,5.56l5.48 4.71 1.62 0.75 6.05 -6.91c-1.65,-3.97 0.96,-3.45 -5.07,-8.61 -6.27,-5.36 1.66,-0.25 -8.31,-3.07 3.87,15.69 2.99,4.38 -2.46,7.56z"/>
   <path class="fil98" d="M220.91 174.48l8.64 0.84 2.76 -0.43c4.85,-3.83 5.04,-4.17 10.86,-6.92 -0.81,-11.38 -2.25,-3.64 3.56,-6.31 -5.81,-3.68 7.55,-3.66 -8.43,-2.45l-6.18 7.59c-0.52,0.41 -1.39,0.78 -1.93,1.15l-9.28 6.53z"/>
   <path class="fil99" d="M299.15 220.46l9.46 -1.63 0.27 4.54 -0.06 -6.06 -0.17 -8.53 -6.05 -0.37 -1.4 -8.77c0.33,-10.25 1.12,-5.63 -2.98,-10.3l0.93 31.11z"/>
   <path class="fil83" d="M276.91 201.62l-0.46 3.31 9.89 -0.42 1.1 8.26 6.43 -8.8 -1.92 -9.01c-8.95,-0.56 -8.92,2.12 -15.04,6.66z"/>
   <path class="fil100" d="M86.38 220.31c8.62,3.16 6.29,2.67 13.45,4.14l11.62 -3.07 0.73 1.31c-5.21,-5.99 8.29,-3.02 -10.54,-6.05 -9.12,-5.43 -10.93,-0.47 -15.26,3.66z"/>
   <path class="fil101" d="M132.07 249.56l4.99 1.25c1.77,-6.66 1.39,-5.42 2.2,-9.97 0.14,-0.8 0.22,-3.59 0.23,-4.64l-0.51 -4.15c-3.45,1.08 -2.38,0.61 -6.03,0.3 -0.31,-0.03 -5.41,-1.36 -6.46,-1.46 4.03,10.32 4.81,8.67 5.57,18.68z"/>
   <path class="fil62" d="M135.2 51.28l3.9 1.12 -1.64 -7.32c16.98,-8.87 2.09,-7.49 19.25,-8.02l-24.91 -3.52 0.84 1.19 -0.4 4.79 2.96 11.77z"/>
   <path class="fil102" d="M4.77 117.74l6.68 -2.16c0.58,0.59 1.5,0.63 1.99,1.8l5.71 3.11c0.86,0.39 2.46,0.72 3.64,1.19 -4.37,-11.6 -3.24,-6.65 -4.19,-17.99 -8.59,3.72 -11.63,4.66 -13.83,14.04z"/>
   <path class="fil15" d="M25.1 216.78c1.07,-0.58 2.68,-2.46 3.26,-1.67l9.01 -7.63 -7.62 -3.08c-6.61,-3.63 -5.16,4.21 -5.68,-4.24 -8.34,-2.67 -3.12,-2.29 -5.43,2.01l6.46 14.61z"/>
   <path class="fil56" d="M87.04 262.93l13.91 0.64c-1.79,-4.75 -1.71,-2.82 -0.32,-9.85l-6 -0.82 -5.77 0c-4.84,3.02 -7.79,-3.31 -1.83,10.03z"/>
   <path class="fil103" d="M157.57 157.91l-0.67 3.43c6.33,2.41 7.22,-3.56 3.86,5.08l12.69 0.31c1.3,-6.24 3.75,-0.52 0.28,-7.83l-2.27 -2.55c-0.22,-0.21 -1.35,-0.52 -1.56,-0.66 -0.2,-0.14 -1.11,-0.21 -1.6,-0.46l-10.74 2.68z"/>
   <path class="fil104" d="M249.61 169.24c0.87,0.59 5.41,4.42 5.44,4.46 5.15,6.94 1.46,0.1 2.24,7.3l5.64 -3.89c6.31,-2.72 4.01,-1.48 6.39,-6.07l-0.94 -6.12c-2.77,-5.09 13.63,2.65 -4.68,-2.82l-8.78 11.8 -5.32 -4.67z"/>
   <path class="fil52" d="M56.55 73.35c-2.09,6.79 4.5,0.84 -6.13,11.51 11.07,-4.02 6.43,-3.87 15.65,0.37 0.73,0.34 1.48,1.45 2.3,2.07l-2 -8.24 4.73 -8.98 -14.55 3.26z"/>
   <path class="fil105" d="M153.47 49.92c-2.04,6.45 5.8,6.06 -7.52,4.16 3.26,3.32 -0.58,2.82 5.88,4.89 4.16,1.33 4.1,0.98 8.99,0.79 -7.5,-12.58 0.75,-9.08 2.33,-10.14 0.87,-2.32 6.1,3.16 -0.29,-3.58 -4.51,-4.76 -1.66,-1.51 -9.29,-4.89l-0.1 8.78z"/>
   <path class="fil56" d="M240.5 219.83l4.41 -4.29 2.65 -7.59 1.04 -4.9 -11.45 -5.23c0.06,12.78 0.25,3.83 1.19,8.93 0.18,0.98 0.49,1.8 0.68,2.88l1.47 10.21z"/>
   <path class="fil41" d="M158.14 110.24l-0.6 4.62 10.24 4.05 1.2 -5.21c1.42,0.57 3.04,-0.29 3.36,0.8 1.18,3.96 2.02,0.69 4.85,2.04l-1.91 -5.31 0.5 -7.72 -6.52 2.55c-3.69,6.33 -1.41,5.47 -11.13,4.17z"/>
   <path class="fil34" d="M71.48 113.07c-4.34,10.34 -2.34,3.39 0.26,13.07l6.81 0.35c-7.38,-7.13 -4.98,3.01 -6.1,-9.69 -0.09,-1.07 0.03,-1.88 0.22,-2.93 0.19,-1.07 0.87,-1.68 1.32,-2.67l10.13 -9.64 -12.38 -0.5c-5.81,-0.49 -3.9,-1.26 -1.94,4.96l1.67 7.06z"/>
   <path class="fil87" d="M13.84 151.41c0.64,-1.02 1.65,-3.59 1.9,-3.08 0.24,0.49 1.28,-2.21 1.56,-3.08 2.11,-6.51 1.14,-1.05 1.88,-8.91l-10.62 -4.34c0.12,1.18 -0.04,1.66 0.03,3.56 0.07,1.83 -0.1,2.51 0.04,3.42 0.13,0.84 -0.02,2.17 0.2,3.15 1.84,8.16 -3.54,0.74 5,9.27z"/>
   <path class="fil106" d="M265.44 225.52c1.87,6.13 -1.91,4.32 2.14,7.22l14.37 -2.19c2.5,-3.37 1.64,1.86 4.03,-7.89l-20.54 2.86z"/>
   <path class="fil24" d="M139.09 52.4l0.63 2.33 6.23 -0.65c13.33,1.9 5.48,2.29 7.52,-4.16l-5.29 -5.91 -10.73 1.08 1.64 7.32z"/>
   <path class="fil107" d="M155.21 128.28l4.05 -0.13 -3.76 -9.43 -5.72 1.49 -8.77 -10.62 0.61 13.75c0.06,0.01 6.44,1.47 6.47,1.48 7.73,2.59 1.85,0.06 7.12,3.45z"/>
   <polygon class="fil108" points="216.95,180.93 221.69,190.01 224.14,190.01 229.55,175.32 220.91,174.48 217.03,174.25 "/>
   <path class="fil103" d="M186.67 79.05c5.98,3.09 3.29,0.68 3.63,6.21l8.99 1.47 -0.56 -10.8c-2.33,-1.02 -6.83,-3.07 -7.08,-3.18l-9.85 3.1c8.73,-0.11 2.51,-0.84 4.87,3.2z"/>
   <path class="fil75" d="M2.72 176.9l-0.28 6.51 7.71 0.51c0.23,-0.03 1.09,-0.24 1.59,-0.49l-0.32 -22.57c-7.25,9.49 -4.15,19.66 -7.15,13.32 -0.26,-0.54 -0.99,1.84 -1.55,2.72z"/>
   <path class="fil109" d="M116.56 267.79l-5.91 7.05 12.1 2.57c8.15,-10.01 5.23,-0.95 2.48,-12.96l-8.68 3.35z"/>
   <path class="fil28" d="M140.55 87.93c-8.02,-2.24 -20.18,-9.15 -15.98,-0.27l10.16 0.94 16.12 1.39 -0.45 -7.49c-2.21,-1.72 -6,-1.8 -7.65,-2.3 0.38,5.56 1.38,2.95 -2.2,7.73z"/>
   <path class="fil27" d="M219.63 68.92c4.69,9 -0.48,1.03 3.81,6.8 7.36,9.89 -1.4,-1.49 4.34,4.68 -2.82,-15.81 -2.53,-5.58 4.21,-10.04l4.22 0.69c-1.18,-1.77 -3.51,-5.12 -4.81,-6.23 -4.55,-3.9 -0.88,-0.97 -5.72,-2.82l-6.05 6.91z"/>
   <path class="fil68" d="M74.65 289.9l-2.19 -7.06 0.41 -5.17 -7.83 0.36c-5.55,-0.58 -4.34,-1.83 -3.7,3.68 2.82,8.79 4.43,6.95 13.32,8.19z"/>
   <path class="fil84" d="M54.97 220.63c-1.04,10.11 -2.37,4.26 7.02,6.82 11.3,2.38 1.17,0.67 5.58,-3.2l0.88 -10.6c-0.66,0.63 -1.35,1.64 -1.85,2.02l-11.63 4.97z"/>
   <path class="fil43" d="M163.44 132.84l7.03 3.09c2.35,-4.16 1.59,-0.73 6.68,-3.45l-1.85 6.47 6.26 -5.66 -10.21 -9.46 -4.15 4.96c-7.54,-0.92 -2.3,-1.33 -3.76,4.05z"/>
   <path class="fil110" d="M58.53 251.12l6.37 9.87 4.5 -21.28c-13.77,4.81 1.18,-3.99 -7.41,4.14 -3.61,3.41 -1.45,3.33 -3.46,7.27z"/>
   <path class="fil111" d="M260.96 137.15l9.73 -0.8 1.57 4.29 4.26 -0.94 -1.52 -6.3 -4.34 -4.36 -9.83 1.87c-2.89,4.4 -4.19,-1.32 0.13,6.25z"/>
   <path class="fil112" d="M137.06 250.81l0.37 5.25 -0.4 3.1 14.15 -5.9 -0.64 -9.73c-8.14,7.02 -12.94,6.99 -13.48,7.28z"/>
   <path class="fil84" d="M85.12 249.64l-0.88 -4.86 -5.93 -2.38c-4.26,3.59 -6.79,-2 -5.13,12.56 0.52,-0.16 1.31,-1.04 1.51,-0.59 3.78,8.79 -2.93,0.47 10.44,-4.72z"/>
   <path class="fil113" d="M271.22 212.86l16.21 -0.09 -1.1 -8.26 -9.89 0.42c-6.24,5.77 -3.72,1.1 -5.23,7.93z"/>
   <path class="fil103" d="M143.25 75.37l10.32 2.64 -1.19 -11.53 -7.67 -1.29c-3.85,8.57 5.83,3.58 -6.74,7.46l5.29 2.71z"/>
   <path class="fil21" d="M221.01 202.39c12.2,-7.59 3.44,-4.26 16.14,-4.57l-0.9 -8.92c-9.82,3.7 -1.22,-6.58 -6.89,5.56 -9.3,0.8 -2.81,1.41 -5.22,-4.45l-2.45 0 -0.67 12.38z"/>
   <path class="fil63" d="M74.65 289.9l1.25 1.71c3.09,0.18 5.45,0.64 7.62,-0.29 8.8,-3.8 2.43,3.76 7.46,-5.27l-18.52 -3.21 2.19 7.06z"/>
   <path class="fil50" d="M118.29 94.9l-1.25 3.98 9.9 3.54c2.02,-4.93 3.13,-1.19 1.12,-6.82l-2.28 -4.94c-0.3,-0.71 -0.93,-1.95 -1.21,-2.98l-2.18 0.21c-3.81,7.86 2.17,0.14 -4.1,7.03z"/>
   <path class="fil10" d="M71.52 309.92c8.13,6.36 -10.74,9.42 6.31,4 14.13,-4.5 -2.6,7.02 9.47,-7.15 -25.97,-4.88 -8.83,-0.87 -15.78,3.15z"/>
   <polygon class="fil110" points="153.13,82.07 152.36,89.4 161.64,86.14 159.18,69.6 159.95,69.11 "/>
   <path class="fil114" d="M159.73 121.76c16.08,0.39 5.15,-1.69 7.47,7.03l4.15 -4.96 5.04 -2.32 0.8 -4.97c-2.83,-1.35 -3.68,1.92 -4.85,-2.04 -0.33,-1.1 -1.94,-0.24 -3.36,-0.8l-1.2 5.21 -8.04 2.86z"/>
   <path class="fil115" d="M285.06 171.8l12.01 -3.8 -0.39 -4.03c-0.87,-0.59 -4.42,-2.5 -5.14,-2.84 -12.3,-5.86 12.35,2.88 -5.62,-1.76l0.01 8.24 -0.87 4.19z"/>
   <path class="fil50" d="M158.14 110.24c9.72,1.3 7.45,2.17 11.13,-4.17 -7.11,-1.66 -3.79,1.23 -7.1,-9.36l-2.14 -0.07 -1.89 13.6z"/>
   <path class="fil116" d="M285.06 171.8l0.87 -4.19 -7.8 2.18c1.65,5.7 -0.1,1.79 2.7,8.37 0.2,0.46 1.63,4.51 3.79,5.64 4.42,-9.6 3.22,-1.74 0.43,-11.99z"/>
   <path class="fil108" d="M177.25 156.33c12.06,-11.42 9.11,-5.52 12.47,-20.21l-8.97 9.01c-2.33,3.49 -2.46,5.94 -3.5,11.2z"/>
   <path class="fil117" d="M15.27 155.27l-0.62 9.2c9.22,-2.93 -2.37,6.28 7.1,-7.55 2.98,-4.35 2.34,-0.91 2.3,-8.49 -1.24,0.45 -2.59,1.17 -3.52,1.77 -0.77,0.49 -2.03,1.25 -2.76,1.74 -4.85,3.27 -0.13,3.58 -2.51,3.32z"/>
   <path class="fil71" d="M159.26 128.15l0.85 7.29 3.34 -2.59c1.46,-5.38 -3.78,-4.97 3.76,-4.05 -2.32,-8.71 8.61,-6.63 -7.47,-7.03l-0.48 6.38z"/>
   <path class="fil118" d="M170.47 135.94l-3.65 9.54c2.53,2.99 -4.11,8.22 4.65,0.02l3.82 -6.54 1.85 -6.47c-5.09,2.72 -4.33,-0.72 -6.68,3.45z"/>
   <path class="fil105" d="M52.04 264.79l2.8 6.81 3.41 6.65c-0.37,-10.09 1.9,-17.46 -6.78,-20.53l0.58 7.07z"/>
   <polygon class="fil59" points="181.56,133.3 182.71,134.64 183.48,125.84 176.4,121.52 171.35,123.83 "/>
   <path class="fil119" d="M24.29 178.34c10.86,-2.31 10.15,-0.99 11.42,-11.82 -11.35,5.06 -3.93,0.55 -11.42,11.82z"/>
   <path class="fil120" d="M263.53 197.85c-4.47,1.06 -3.56,-0.11 -1.11,4.16 -5.36,19.22 -1.73,2.94 1.98,9.87 4.67,-7.31 5.06,-7.1 -0.87,-14.03z"/>
   <path class="fil121" d="M126.2 48.91l8.99 2.37 -2.96 -11.77 -6.41 1.74c0.44,0.44 1.37,0.32 1.35,1.08l0.18 3.8c-0.08,0.48 -0.86,1.82 -1.15,2.77z"/>
   <path class="fil84" d="M150.85 90l1.51 -0.6 0.78 -7.32 0.43 -4.06 -10.32 -2.64 -0.51 4.84c1.66,0.5 5.45,0.58 7.65,2.3l0.45 7.49z"/>
   <path class="fil11" d="M75.87 185.83c8.09,-1.07 7.15,-3.62 7.15,2.22l1.28 -1.44c2.31,-2.31 4.07,-4.26 7.32,-8.33 -10.03,0.42 -7.69,-1.08 -15.75,7.56z"/>
   <path class="fil122" d="M139.72 54.72l-0.63 -2.33 -3.9 -1.12 -8.99 -2.37c3.79,14.04 0.83,4.91 5.38,7.75l8.14 -1.93z"/>
   <path class="fil123" d="M100.94 263.57l7.8 -1.38c-2.92,-8.27 1.29,-4.45 -8.11,-8.47 -1.39,7.03 -1.48,5.1 0.32,9.85z"/>
   <polygon class="fil124" points="129.35,253.1 132.22,260.93 137.43,256.06 137.06,250.81 132.07,249.56 "/>
   <polygon class="fil71" points="308.65,208.78 308.52,199.97 301.2,199.65 302.61,208.41 "/>
   <path class="fil125" d="M114.83 88.19c-6.53,-8.85 -6.17,-7.61 -14.86,-11.94 6.43,8.86 4.62,0.58 4.61,10.03l10.25 1.91z"/>
   <polygon class="fil59" points="159.26,128.15 159.73,121.76 167.78,118.91 157.54,114.85 155.5,118.72 "/>
   <path class="fil68" d="M107.07 229.17l4.38 -7.78 -11.62 3.07c2.47,4.89 -5.36,2.54 7.24,4.71z"/>
   <path class="fil126" d="M255.24 136.98l5.73 0.17c-4.33,-7.56 -3.02,-1.84 -0.13,-6.25 -3.18,-3.64 5.6,-3.05 -7.83,-3.79l2.36 0.63 -0.13 9.24z"/>
   <path class="fil89" d="M209.75 177.23c-0.43,7.94 -1.75,5.35 7.2,3.69l0.08 -6.67 -7.28 2.98z"/>
   <path class="fil28" d="M105.45 104.96l1.17 2.04 8.79 1.54 1.63 -9.67 1.25 -3.98 -6.58 6.11c0.06,0.48 1.37,3.59 1.45,2.92 0.11,-0.89 1.58,2.44 2.42,3.76l-10.13 -2.74z"/>
   <polygon class="fil103" points="106.62,107 117.76,114.87 117.04,98.88 115.41,108.54 "/>
   <path class="fil127" d="M43.24 258.74c4.1,6.87 8.28,10.66 6.41,-2.42 -5.19,1.57 -2.88,-0.36 -6.41,2.42z"/>
   <path class="fil128" d="M67.95 156.44c10.23,-3.15 4.57,1.99 8.98,-7.68l-6.95 0.15 1.5 0.16 -3.53 7.37z"/>
   <path class="fil129" d="M278.06 146.77c1.6,-7.92 2.31,-2.92 -1.53,-7.08l-4.26 0.94c0.52,6.34 -2.35,4.16 5.8,6.13z"/>
   <path class="fil51" d="M122.4 288.21c4.81,-2.38 5.21,5.87 3.2,-6.1l-3.18 -1.26 -7.09 3.3c12.33,-0.26 4.4,-1.29 7.07,4.06z"/>
   <path class="fil85" d="M61.85 310.42c4.45,6.71 0.28,3.58 8.42,7.23l-1.91 -7.88 -6.51 0.65z"/>
   <path class="fil130" d="M122.4 288.21c-2.67,-5.36 5.26,-4.33 -7.07,-4.06 2.51,6.4 -6.7,6.43 7.07,4.06z"/>
   <path class="fil131" d="M84.44 123.35c4.87,2.54 3.85,3.49 8.63,0 -15.13,-9.24 -5.67,-1.11 -8.63,0z"/>
   <path class="fil13" d="M241.02 274.98c-0.78,-0.52 -1.69,-1.21 -2.38,-1.48 -0.74,-0.29 -2.05,-0.84 -2.81,-1.1 -5.32,-1.85 -0.59,-0.62 -7.21,-0.72 4.06,4.12 2.47,3.88 12.4,3.3z"/>
   <path class="fil34" d="M227.64 159.77l-3.05 -1c-7.06,13.89 -2.58,2.93 1.86,6.23 6.15,-6.57 2.59,2.22 1.18,-5.23z"/>
   <path class="fil132" d="M240.81 98.03l-1.38 -5.69c-3.64,5.28 -6.23,-7.04 -2.45,7.79l3.83 -2.1z"/>
   <polygon class="fil133" points="175.42,34.14 182.85,35.81 181.92,31.66 175.07,31.05 "/>
   <polygon class="fil134" points="94.63,252.9 100.63,253.71 101.96,246.25 "/>
   <path class="fil135" d="M112.18 222.7l2.45 -6.34 -12.99 0.29c18.83,3.03 5.33,0.06 10.54,6.05z"/>
   <polygon class="fil96" points="174.63,38.35 175.42,34.14 175.07,31.05 170.05,31.21 "/>
   <path class="fil134" d="M92.94 114.57c0.67,4.96 -0.8,4.1 3.86,3.3l1.4 -4.21 -4.54 -4.93c7.48,10.3 3.06,3.26 -0.71,5.85z"/>
   <polygon class="fil136" points="276.52,139.69 282.62,139.1 275,133.4 "/>
   <path class="fil125" d="M286.33 264.88c-5.11,0.62 -3.99,-0.88 -3.99,3.93 5.22,-0.27 3.99,1.14 3.99,-3.93z"/>
   <path class="fil137" d="M43.24 258.74c3.53,-2.79 1.22,-0.86 6.41,-2.42l-0.36 -2.94 -6.16 3.11 0.11 2.25z"/>
   <path class="fil138" d="M301.23 249.82c5.54,-2.44 3.29,4.22 4.95,-5.48l-4.95 5.48z"/>
   <path class="fil35" d="M123.81 315.7l-3.16 3.4c6.09,0.46 5.6,2.02 3.16,-3.4z"/>
   <polygon class="fil125" points="308.88,223.37 311.69,225.35 308.82,217.31 "/>
   <path class="fil122" d="M255.06 144.91c0,-5.01 1.12,-3.87 -3.95,-2.65l3.95 2.65z"/>
   <path class="fil87" d="M207.7 262.86l-3.76 -3.71c0,4.86 -1.19,3.56 3.76,3.71z"/>
   <path class="fil125" d="M27.52 240.44l-3.72 -3.76c0.41,4.88 -0.97,3.76 3.72,3.76z"/>
   <path class="fil136" d="M245.55 88.16l-2.96 -3.34c-0.29,4.39 -1.35,3.34 2.96,3.34z"/>
   <path class="fil35" d="M137.28 273.64c0.37,0.42 1.1,-1.83 1.1,-1.27l-1.1 1.27z"/>
   <polygon class="fil125" points="217.4,268.86 214.1,265.23 "/>
   <polygon class="fil111" points="54.84,271.61 52.04,264.79 "/>
   <polygon class="fil132" points="258.19,163.05 262.02,155.53 "/>
   <polygon class="fil35" points="280.93,268.41 274.01,272.19 "/>
   <polygon class="fil139" points="212.3,50.32 212.13,47.18 "/>
   <line class="fil77" x1="87.89" y1="97.24" x2="87.89" y2= "97.24" />
   <polygon class="fil140" points="203.83,51 200.8,48.01 "/>
   <polygon class="fil141" points="101.6,210.76 93.91,210.38 "/>
   <polygon class="fil142" points="70.86,237.46 69.4,239.7 "/>
   <polygon class="fil125" points="159.34,249.8 156.41,252.81 "/>
   <polygon class="fil125" points="85.12,322.42 78.7,319.14 "/>
   <polygon class="fil87" points="110.61,319.56 101.77,322.29 "/>
  </g>
 </g>
</svg>
