<?xml version="1.0" encoding="UTF-8"?>
<!DOCTYPE svg PUBLIC "-//W3C//DTD SVG 1.1//EN" "http://www.w3.org/Graphics/SVG/1.1/DTD/svg11.dtd">
<!-- Creator: CorelDRAW 2018 (64-Bit) -->
<svg xmlns="http://www.w3.org/2000/svg" xml:space="preserve" width="41.8079mm" height="32.3224mm" version="1.1" style="shape-rendering:geometricPrecision; text-rendering:geometricPrecision; image-rendering:optimizeQuality; fill-rule:evenodd; clip-rule:evenodd"
viewBox="0 0 530.99 410.52"
 xmlns:xlink="http://www.w3.org/1999/xlink">
 <defs>
  <style type="text/css">
   <![CDATA[
    .fil50 {fill:#2D3430}
    .fil38 {fill:#3A433D}
    .fil14 {fill:#434C4B}
    .fil26 {fill:#4A524D}
    .fil25 {fill:#4E5855}
    .fil30 {fill:#525B5A}
    .fil11 {fill:#555E62}
    .fil22 {fill:#555F65}
    .fil4 {fill:#56615D}
    .fil13 {fill:#59625E}
    .fil6 {fill:#596269}
    .fil49 {fill:#5A5D5C}
    .fil36 {fill:#5A6561}
    .fil0 {fill:#616565}
    .fil7 {fill:#63666A}
    .fil33 {fill:#657172}
    .fil34 {fill:#66706C}
    .fil16 {fill:#6B736C}
    .fil48 {fill:#6C7472}
    .fil1 {fill:#6C7779}
    .fil24 {fill:#717271}
    .fil32 {fill:#7A7C7A}
    .fil31 {fill:#7C838C}
    .fil28 {fill:#87908B}
    .fil29 {fill:#898D86}
    .fil5 {fill:#898E8A}
    .fil12 {fill:#8B928C}
    .fil10 {fill:#8C9393}
    .fil20 {fill:#8D92A8}
    .fil35 {fill:#919691}
    .fil39 {fill:#96A199}
    .fil37 {fill:#9CA29D}
    .fil47 {fill:#A0A39E}
    .fil18 {fill:#A3A6A3}
    .fil44 {fill:#A5ADAA}
    .fil45 {fill:#ABADAB}
    .fil40 {fill:#B4BCB9}
    .fil19 {fill:#B5BAB4}
    .fil17 {fill:#BBBDBB}
    .fil23 {fill:#C2C5C2}
    .fil46 {fill:#C4CAC4}
    .fil27 {fill:#C5CAC5}
    .fil41 {fill:#CDD2C5}
    .fil21 {fill:#DADDDA}
    .fil3 {fill:#DCDEDB}
    .fil9 {fill:#DFE1DE}
    .fil8 {fill:#E2E3E2}
    .fil2 {fill:#E3E3D4}
    .fil42 {fill:#E5EAE3}
    .fil15 {fill:#EAEAEA}
    .fil43 {fill:#EBEDEB}
   ]]>
  </style>
 </defs>
 <g id="Warstwa_x0020_1">
  <metadata id="CorelCorpID_0Corel-Layer"/>
  <g id="_1832253309728">
   <path class="fil0" d="M476.46 267.19c9.45,34.25 24.22,55.41 -32.51,55.14 -17.02,-7.02 -28.16,-6.34 -46.41,-6.64 -8.05,-23.02 -3.1,-12.01 -16.41,-25.48 -16.6,-13.83 -5.25,1.75 -9.31,-17.71 -0.27,-1.29 1.49,-18.53 1.64,-20.34 -11.76,19.16 -0.94,39.98 -0.1,64.96 -9.18,11 14.48,8.94 -17.52,8.94 7.16,13.71 2.75,10.67 -11.73,17.08l-2.99 13.41 -29.54 -0.67c-15.28,-0.98 -9.33,-9.57 -18.84,-12.15 -2.35,19.76 1.83,9.67 -11.16,15.27l-5.44 -38.72c-0.34,15.67 1.64,21.21 -6.07,31.7l0.79 4.68c0.36,0.82 2.04,1.47 2.13,1.64l-2.66 3.74c-21.82,-4.42 -13.96,-3.1 -19.7,-17.4l-23.23 6.05c-0.72,-21.49 -7.18,-43.99 -14.28,-64.62 -5.48,6.66 -1.28,-1.1 -4.79,8.63 -0.46,1.27 -1.75,6.76 -1.76,6.77 -2.14,8.93 -1.85,12.59 -4.66,23.52l-8.31 3.88 0.39 7.04 5.2 15.7 4.25 10.19c5,11.81 25.53,28.25 38.42,32.52 7.86,2.61 21.77,4.15 30.54,6.12 45.25,10.14 20.29,20.47 74.57,-11.18 18.78,-10.95 23.33,-15.9 35.39,-32.95l6.43 -11.46 -15.76 -0.85c0.69,-0.78 9.21,-15.82 19.38,-8.94 9.36,11.55 7.82,-15.8 7.82,16.31 18.05,11.82 62.76,19.06 83.82,4.93 14.82,-9.93 36.07,-36.26 24.75,-65.69 -15.29,3.76 -3.8,-4.26 -14.1,7.53 -0.97,-29.79 -11.21,-49.78 -15.87,-74.38l-12.32 -1.64 0.22 9.85 9.7 35.22z"/>
   <path class="fil1" d="M348.82 155.93c-1.03,22.32 2.36,9.87 -9.69,13.8l32.53 12.97c-10.32,23.26 2.64,5.88 -20.59,17.32 -0.86,-46.03 2.9,-13.04 -13.52,-26.26l-0.8 43.07c-5.17,-20.99 0.24,-17.44 -19.5,-49.04 -10.08,32.09 13.4,37.77 -3.13,62.14l-15.38 17.42 6.72 0.43c11.38,6.44 30.13,-29.56 25.95,28.7 -4.18,58.15 4.93,41.23 12.69,66.65 14.48,-6.41 18.88,-3.36 11.73,-17.08l-0.43 -38.05c1.09,5.69 -0.8,25.44 -12.44,32.63 -0.04,-22.32 -3.82,-44.28 7.2,-63.63 6.24,-10.97 6.75,-2.86 9.2,-20.07l0.57 -5.48c15.52,7.75 3.25,-0.49 15.62,12.29l-2.1 8.41c-0.15,1.81 -1.91,19.05 -1.64,20.34 4.06,19.46 -7.29,3.88 9.31,17.71 1.32,-33.53 2.8,-28.51 19.12,-44.36 -24.37,3.05 -8.89,3.17 -13.33,-4.9l32.79 -40.92c-12.3,-18.35 -17.09,-43.79 -10.37,-65.59 0.29,-0.93 1.48,-4.07 2.12,-5.42l-15.09 2.11c-11.2,1.98 -41.28,14.22 -47.54,24.79z"/>
   <path class="fil2" d="M211.63 200.64l8.46 18.5c14.04,9.83 12.81,16.54 23.49,19.44l14.97 2.36c-9.31,1.52 -1.12,-0.74 -4.91,12.54 -12.69,-13.52 -4.15,-9.83 -20.91,-14.05 -8.51,-10.5 1.71,-3.5 -12.69,-5.07 1.15,2.75 4.96,13.68 5.5,16.14 17.66,9.31 10.42,2.43 17.56,17.63l4.83 0c-4.73,-21.48 -2.33,-4.78 2.83,-11.43l20.26 4.34c-2.02,-32.49 0.65,-61.11 9.39,-93 -6.12,-1.17 -7.95,-0.58 -9.13,-0.81 -0.8,-0.16 -2.16,-0.37 -2.98,-0.59l-36.45 -31.88c-3.93,4.24 -6.87,7.32 -10.81,9.91 -0.88,-13.56 -2.55,-7.72 -7.57,-12.42 -8.75,18.17 -11.79,45.49 -1.84,68.39z"/>
   <path class="fil3" d="M234.3 63.11l32.82 11.33c-15.32,5.62 -27.65,24.7 -34.31,28.24 6.48,12.92 -0.64,2.78 12.02,7.28 0.33,-0.23 18.63,-8.97 19.49,-9.31 19.54,-7.89 -3.2,-0.67 23.06,-3.08 29.45,-2.7 23.99,-12.25 45.67,-22.41l6.29 11.26 4.66 6.65c0.7,-1.46 1.42,-3.26 1.89,-4.48 0.43,-1.13 1.3,-2.79 1.78,-4.12l6.81 -43.6 -10.99 -2.03 -13.4 -3.64c2.92,16.44 3.41,17.63 -4.22,32.8 -3.53,-6.75 -6.08,-38.51 -21.46,-35.11 -1.68,-2.21 -1.78,-22.14 -13.59,-9.05 -13.43,14.89 -12.3,4.76 -31.3,17.94 -33.9,23.51 -43.67,6.61 -25.22,21.33z"/>
   <path class="fil4" d="M430.66 114.21c6.5,13.22 -0.78,1.57 6.25,10.1 1.07,1.3 6.75,5.42 8.34,6.62 1.96,15.01 -0.5,38.81 1.14,55.43l21.58 3.01c7.77,0.38 9.37,-3.01 17.13,0.4 15.77,6.93 7.42,-4.32 13.12,12.29 18.22,-7.19 -5.29,7.85 7.89,-5.94l-13.07 -103.4 1.44 -22.03 -23.47 -0.11 -4.29 21.05c-20.08,14.23 -15.27,0.57 -21.97,24.36l-14.1 -1.78z"/>
   <path class="fil5" d="M389.86 38.73c-0.73,1.18 -1.51,2.74 -2.04,3.63 -0.52,0.86 -1.3,2.55 -1.95,3.56 -0.61,0.96 -1.3,2.28 -1.99,3.28 -12.46,17.81 9.05,-8.86 -4.21,5.43 -16.97,18.3 -24.55,1.65 -25.4,42.67l-10.26 -4.24 -4.66 -6.65c-14.84,0.78 -9.73,-1.26 -16.99,8.77 -8.3,11.46 -7.17,9.56 -7.89,26.08 35.22,-4.57 33.77,8.02 62.31,-16.54 7.2,-6.2 37.78,-24.25 48.51,-29.04 17.68,-24.08 25.86,1.07 24.41,-49.79l-4.66 2.13c-19.71,3.98 -3.58,9.23 -19.14,2.68 -22.34,-9.39 6.72,-1.72 -12.02,-7.5 -14.7,2.04 -14.79,5.97 -24.03,15.53z"/>
   <path class="fil6" d="M305.47 247.79c-17.21,16.25 -12.96,17.89 -25.9,37.41l-3.43 35.07 5.44 38.72c12.99,-5.6 8.81,4.49 11.16,-15.27 9.51,2.57 3.56,11.16 18.84,12.15l29.54 0.67 2.99 -13.41c-7.76,-25.42 -16.86,-8.5 -12.69,-66.65 4.18,-58.26 -14.57,-22.26 -25.95,-28.7z"/>
   <path class="fil7" d="M166.21 329.06c-5.09,4.32 -8.24,6.61 -12.56,10.08 -6.59,5.29 -0.96,1.69 -7.71,6.01 -0.86,0.55 -2.02,1.19 -2.91,1.71l-24.08 14.85c-21.48,17.42 15.62,-5.34 -4.71,3.69l-17.32 -12.42c5.63,-23.3 4,-27.81 13.68,-43.92 6.91,-11.49 1.14,11.18 6.29,-10.27l-20.78 -6.33 7.54 17.45c-1.13,3.44 1.93,-1.6 -3.34,7.6 -16.95,29.59 -4.69,11.98 -10.05,41.51l-18.75 -2.43 -6.83 -4.17 -1.64 19.27c14.48,-3.6 19.49,-7.25 34.45,-10.91 2.68,9.29 3.19,8.38 5.39,14.09 0.84,2.19 -1.07,17.09 3.45,9.04 0.4,-0.71 1.3,3.25 1.85,4.9 -16.1,2.56 -8.75,3.2 -28.18,-1.46l5.38 10.74c17.32,8.57 43.24,-3.52 60.87,-12.29 23.1,-11.48 34.2,-11.48 38.48,-46.8l1.36 -13.54 7.49 3.43 8.31 -3.88 -4.37 -6.11c-11.05,-17.56 -10.74,-28.16 -11.65,-51.02 -1.28,-32.27 4.06,-24.86 2.86,-62.01 -0.07,-2.1 -0.53,-2.62 -0.9,-3.91l-0.93 9.84c-6.52,42.21 4.81,90.44 -20.71,117.28z"/>
   <path class="fil8" d="M149.76 92c-9.43,27.56 -4.08,5.68 4.08,14.5 2.93,-0.75 8.99,-2.78 9.38,-2.88l-0.4 0.46c28.65,0.28 30.9,2.6 41.25,-11l-23.71 -8.96c10.23,-6.49 8.56,-8.65 22.76,-6.16 0.31,-0.98 0.79,-3.58 0.91,-2.95 0.12,0.63 0.74,-2.4 0.9,-2.91 0.15,-0.5 0.69,-2.3 0.87,-2.85l9.48 1.15c6.21,-8.8 -11.25,-9.16 19.02,-7.3 -18.44,-14.72 -8.67,2.18 25.22,-21.33 19,-13.18 17.87,-3.06 31.3,-17.94 11.81,-13.09 11.9,6.84 13.59,9.05 13.37,-5.98 -0,3.97 8.33,-7l-10.36 -12.04c-0.43,-1.84 -1.42,-2.18 -2.16,-3.25 -37.96,-13.26 -71.14,-3.99 -92.49,15.37 -15.06,13.65 -7.14,23.88 -21.31,41.78 -10.01,12.65 -23.23,17.89 -36.67,24.26z"/>
   <path class="fil9" d="M231.86 134.76l36.45 31.88c0.82,0.22 2.19,0.43 2.98,0.59 1.17,0.23 3.01,-0.37 9.13,0.81l39.18 -5.83 12.28 2.57c0.67,0.3 2.02,1.08 2.62,1.4l4.65 3.55c12.05,-3.93 8.66,8.52 9.69,-13.8l-9.04 -13.56c4.62,-6.72 7.23,-10.17 15.48,-16.24l-40.79 -4.86c-19.5,3.05 -29.99,-0.77 -48.64,-3.56l-17.34 4.57c-9.7,0.08 -13.3,-6.95 -25.81,-0.8 -2.46,1.21 -6.28,7.08 -7,6.12 -0.84,-1.12 -2.44,2.47 -3.56,3.79 14.16,5.18 4.01,1.38 19.75,3.38z"/>
   <path class="fil10" d="M498.22 202.06c-29.17,4.46 -36.76,3.12 -64.82,-1.96 3.45,4.95 -0.96,3.55 9.37,8.27 4.27,1.95 8.28,2.08 13.29,2.84 10.77,4.73 6.97,0.93 10.48,10.9l12.32 1.64c4.66,24.6 14.9,44.59 15.87,74.38 10.3,-11.79 -1.19,-3.76 14.1,-7.53l-1.73 -46.99c-6.87,-10.63 -14.04,-18.88 -8.72,-30.83 4.59,-10.31 17.62,-21.28 31.1,-16.84l-13.01 -79.23 -14.33 1.08c-1.29,-5.85 -1.29,-9.57 -3.51,-15.8 -5.65,-15.85 -0.12,-1.98 -5.57,-9.28l13.07 103.4c-13.18,13.79 10.33,-1.25 -7.89,5.94z"/>
   <path class="fil11" d="M271.02 261.04l-0.67 -1.29c14.57,-1.58 21.95,-6.45 28.4,-12.4l15.38 -17.42c16.52,-24.37 -6.95,-30.05 3.13,-62.14l2.33 -5.58 -39.18 5.83c-8.74,31.89 -11.41,60.51 -9.39,93z"/>
   <path class="fil12" d="M12.84 277.04c-1.34,16.69 -5.58,15.66 -9.73,29.35 -6.76,22.34 -1.01,13.08 3.15,34.89l13.07 -5.3c9.66,7.61 4.1,4.53 20.83,9.86 1.8,-17.51 6.69,-24.08 22.42,-30.3 3.24,-9.37 -0.75,-5.83 7.23,-11.16l-28.8 -1.59 12.08 -6.62c5.14,-13.44 -9.27,-8.68 5.2,-11.68l-7.86 -7.37c15.67,-1.29 2.15,7.19 11.53,-4.8 -13.85,-0.05 -1.41,1.38 -4.22,-7.21 -28.87,-6.9 -32.76,3.35 -44.91,11.94z"/>
   <path class="fil11" d="M116.9 298.76c-5.15,21.45 0.61,-1.22 -6.29,10.27 -9.68,16.11 -8.05,20.62 -13.68,43.92l17.32 12.42c20.32,-9.03 -16.78,13.73 4.71,-3.69l24.08 -14.85c0.89,-0.52 2.05,-1.16 2.91,-1.71 6.75,-4.31 1.12,-0.71 7.71,-6.01 4.31,-3.46 7.47,-5.76 12.56,-10.08 -1.82,-12.87 -5.24,-15.94 -12.28,-27.88l-8.32 -7.45c-27.42,10.05 -16.27,4.44 -22.88,-2.4 11.45,0.36 6.29,0.4 14.16,-6.66 -5.58,-6.09 9.55,-3.62 -12.51,-5.65 -4.67,11.69 -4.34,9.28 -7.48,19.74z"/>
   <path class="fil13" d="M381.13 290.21c13.32,13.47 8.36,2.46 16.41,25.48 18.25,0.3 29.39,-0.38 46.41,6.64l6.19 -32.13 -8.74 -9.26c-7.45,6.21 -3.98,3.79 -14.25,6.92 -0.26,-0.78 -0.25,-2.11 -0.27,-2.44 -0.02,-0.31 -0.07,-1.91 -0.1,-2.27l-5.36 -9.84c-10.88,-11.08 -10.31,-11.47 -10.77,-24.16l-10.41 -3.3c-16.31,15.85 -17.8,10.83 -19.12,44.36z"/>
   <path class="fil14" d="M187.85 201.94c0.37,1.28 0.84,1.81 0.9,3.91 1.2,37.14 -4.13,29.74 -2.86,62.01 0.9,22.86 0.6,33.46 11.65,51.02l4.37 6.11c2.82,-10.93 2.52,-14.59 4.66,-23.52 0,-0.01 1.3,-5.5 1.76,-6.77 3.5,-9.73 -0.7,-1.97 4.79,-8.63l-5.2 -22.5c13.11,-4.98 -0.99,-3.4 10.97,-1.36 0.11,0.02 13.94,4.17 14.77,4.37l-8.11 -16.07c-0.54,-2.46 -4.35,-13.39 -5.5,-16.14 -2.08,-1.22 -1.86,-0.31 -6.29,-4.38 -2.5,-2.3 -3.83,-4.72 -5.78,-7.21l-3.84 -21.22c-15.95,-2.64 -9.27,-2.41 -25.65,-4.86l9.36 5.25z"/>
   <path class="fil15" d="M162.82 104.08l0.4 -0.46c-0.39,0.1 -6.45,2.13 -9.38,2.88 -8.16,-8.82 -13.51,13.06 -4.08,-14.5 -20.58,12.07 -0.95,17.69 -8.95,27.18l4.49 14.02c0.45,0.38 1.48,1.35 2.2,2.05l65.97 -3.01c5.02,4.7 6.69,-1.13 7.57,12.42 3.94,-2.59 6.89,-5.67 10.81,-9.91 -15.75,-2.01 -5.6,1.8 -19.75,-3.38 1.12,-1.32 2.73,-4.9 3.56,-3.79 0.72,0.96 4.54,-4.91 7,-6.12 12.52,-6.15 16.12,0.88 25.81,0.8l17.34 -4.57 -13.55 0.69 -7.44 -8.44c-12.65,-4.5 -5.54,5.64 -12.02,-7.28 6.65,-3.54 18.99,-22.62 34.31,-28.24l-32.82 -11.33c-30.27,-1.87 -12.81,-1.5 -19.02,7.3l10.08 4.76 -15.25 28.52c8.19,13.15 11.83,13.06 19,19.82 -19.15,-2.03 -24.84,-7.95 -43.78,-7.3 39.63,0.65 7.25,-5.26 20.91,12.35 -19.38,-1.3 -40.96,-2.26 -54.58,-7.57 3.1,-25.17 3.6,-4.64 11.17,-16.9z"/>
   <path class="fil16" d="M213.12 286.07c7.1,20.63 13.56,43.13 14.28,64.62l23.23 -6.05c-4.39,-28.87 2.37,-50.11 -7.52,-76.5 -7.13,-15.2 0.1,-8.32 -17.56,-17.63l8.11 16.07c-0.82,-0.19 -14.66,-4.35 -14.77,-4.37 -11.96,-2.04 2.14,-3.61 -10.97,1.36l5.2 22.5z"/>
   <path class="fil3" d="M130.55 135.78c-0.24,17.21 4.54,29.03 -9.86,30.53 0.31,1.46 0.89,5.98 0.83,7.03l-5.37 9.73 -14.11 -10.39c9.26,37.99 -0.12,11.32 0.95,36.9 -0.57,0.28 -1.68,0.07 -1.91,0.1l-3.76 0.45c-41.92,9.68 -16.97,7.63 -24.9,0.14 12,11.33 12.19,6.97 16.48,23.25 -13.2,6.66 -4.92,-1.97 -10.42,10.26 -15.52,-4.37 -19.04,-10.58 -23.18,-13.68l7.06 23.21c19.34,-0.59 20.82,-3.8 31.43,-13.93l35.98 -44.92c5.1,-7.42 10.19,-14.93 16.46,-16.59l-8.02 -8.61c10.41,-15.27 2.44,-3.29 4.1,-17.9l-0.71 4.44 1.84 -21.49 -12.87 1.48z"/>
   <path class="fil17" d="M314.47 121.27l40.79 4.86c-8.25,6.07 -10.85,9.52 -15.48,16.24l9.04 13.56c6.26,-10.57 36.34,-22.81 47.54,-24.79 -0.87,-0.52 -2.4,-2.1 -2.79,-1.19 -0.57,1.33 -3.42,-1.01 -5.57,-1.63 -0.63,-0.18 -2.24,-0.28 -2.9,-0.48l25.7 -22.16 23.99 -14.64c-14.57,-12.66 2.21,0.69 -9.59,-3.2 -5.24,-1.73 0.25,15.45 -5.78,-2.2 -0.44,-1.3 -2.16,-0.82 -3.08,-1.5 20.97,-1.1 2.86,1.28 8.94,-8.44 -10.74,4.79 -41.31,22.84 -48.51,29.04 -28.54,24.56 -27.09,11.97 -62.31,16.54z"/>
   <path class="fil8" d="M73.16 195.42c-10.06,26.16 -14.52,6.38 -11.3,23.12 -9.19,5.76 -2.46,3.39 -6.56,11.56 4.14,3.11 7.66,9.31 23.18,13.68 5.5,-12.23 -2.78,-3.59 10.42,-10.26 -4.3,-16.28 -4.48,-11.92 -16.48,-23.25 7.93,7.5 -17.02,9.54 24.9,-0.14l3.76 -0.45c0.23,-0.03 1.34,0.18 1.91,-0.1 -1.07,-25.58 8.31,1.09 -0.95,-36.9l14.11 10.39 5.37 -9.73c0.06,-1.05 -0.51,-5.57 -0.83,-7.03 -12.46,-5.31 -3.19,-0.28 -14.98,-8.68l-10.93 6.73c-0.93,0.68 -1.95,1.45 -2.82,2.15 -3.23,2.59 -5.74,5.37 -8.5,8.78 -4.99,6.17 -9.46,12.42 -10.29,20.14z"/>
   <path class="fil18" d="M141.59 155.79c9.18,-11.44 7.74,14.28 7.77,-12.98l46.48 -4.34c-3.92,9.81 -4.6,14.68 -12.34,19.81l-20.7 8.92c-11.74,-16.03 -2.57,-7.72 -20.5,-15.85 -1.65,14.61 6.32,2.63 -4.1,17.9l8.02 8.61 4.55 -4.06c19.89,-4.56 15.56,0.1 31.82,7.3 19.53,8.65 13.31,1.18 21.54,20.44l3.84 21.22 3.66 -22.13c-9.95,-22.91 -6.91,-50.22 1.84,-68.39l-65.97 3.01 -4.07 -0.96 -1.84 21.49z"/>
   <path class="fil19" d="M62.36 253.3l-4.61 11.79 30.32 -3.17c6.64,-2.03 0.85,0.37 8.83,-2.9 3.08,-1.26 6.2,-2.78 9.01,-4.11 6.13,-2.9 11.06,-5.42 16.11,-7.47l8.18 -12.51c5.01,-6.97 4.69,-5.73 8.3,-12.4l6.24 -12.94c-24.27,-5.32 -8.39,1.52 -12.27,-8.75 13.3,-4.81 16.51,-5.44 19.81,-19.31l-1.51 -7.74 -4.55 4.06c-6.27,1.66 -11.36,9.17 -16.46,16.59l-35.98 44.92c-10.6,10.12 -12.08,13.34 -31.43,13.93z"/>
   <path class="fil20" d="M163.98 213.48c-5.11,18.47 -13.52,15.62 -17.41,30.53 -6.62,25.37 13.47,12.41 -0.65,41.2l0.78 6.34 32.75 -23.71c4.55,-27.5 -7.78,-36.56 7.46,-56.05l0.93 -9.84 -17.93 -1.9 -5.94 13.44z"/>
   <path class="fil21" d="M162.82 104.08c-7.57,12.26 -8.08,-8.27 -11.17,16.9 13.62,5.31 35.21,6.27 54.58,7.57 -13.66,-17.61 18.72,-11.7 -20.91,-12.35 18.94,-0.65 24.63,5.27 43.78,7.3 -7.17,-6.76 -10.81,-6.66 -19,-19.82l15.25 -28.52 -10.08 -4.76 -9.48 -1.15c-0.17,0.55 -0.71,2.35 -0.87,2.85 -0.16,0.51 -0.77,3.54 -0.9,2.91 -0.12,-0.63 -0.6,1.97 -0.91,2.95 -14.2,-2.49 -12.52,-0.33 -22.76,6.16l23.71 8.96c-10.35,13.59 -12.6,11.27 -41.25,11z"/>
   <path class="fil3" d="M316.82 14.29l43.1 12.73c3.02,2.02 4.38,3.35 9.31,5.56 17.14,7.67 -0.48,3.3 20.64,6.15 9.24,-9.56 9.32,-13.48 24.03,-15.53l0 -8.59c-14.74,-7.22 -27.3,-16.27 -48.64,-14.36 -10.13,0.91 -17.74,5.16 -26.78,7.68 -14.83,4.15 -10.88,-2.24 -21.66,6.35z"/>
   <path class="fil22" d="M355.84 326.05c32,0 8.34,2.06 17.52,-8.94 -0.84,-24.97 -11.66,-45.8 0.1,-64.96l2.1 -8.41c-12.38,-12.78 -0.1,-4.54 -15.62,-12.29l-0.57 5.48c-2.45,17.21 -2.95,9.1 -9.2,20.07 -11.01,19.35 -7.23,41.31 -7.2,63.63 11.64,-7.19 13.53,-26.94 12.44,-32.63l0.43 38.05z"/>
   <path class="fil23" d="M400.24 245.85l10.41 3.3c-9.33,-18.09 0.16,-5.71 24.5,-12.06l-0.75 13.54c5.69,-2.47 8.39,-3.35 15.16,-5.84 -0.48,-9.34 -2.8,2.73 1.21,-15.71 1.06,-4.89 2.98,-8.53 5.29,-17.88 -5.01,-0.76 -9.02,-0.88 -13.29,-2.84 -10.33,-4.73 -5.93,-3.32 -9.37,-8.27l-13.7 -0.07 -32.79 40.92c4.44,8.08 -11.04,7.95 13.33,4.9z"/>
   <path class="fil24" d="M48.23 386.28l37.17 11.77 -5.38 -10.74c19.43,4.65 12.08,4.02 28.18,1.46 -0.55,-1.66 -1.45,-5.61 -1.85,-4.9 -4.52,8.05 -2.6,-6.84 -3.45,-9.04 -2.19,-5.71 -2.71,-4.8 -5.39,-14.09 -14.96,3.66 -19.97,7.31 -34.45,10.91l1.64 -19.27 -14.57 0.16c-8,11.12 7.24,3.09 -3.78,-0.85l-4.56 -1.78c-10.47,18.61 3,4.67 -13.29,14.78l12.04 12.37c0.7,0.74 1.9,2.09 2.47,2.71 0.63,0.68 2.03,3.98 2.49,3.15 0.49,-0.89 1.79,2.24 2.72,3.33z"/>
   <path class="fil25" d="M409 116.5l-0.36 9.58c0.27,-0.95 1.67,2.21 2.82,2.94 -0.64,1.35 -1.83,4.49 -2.12,5.42 -6.72,21.8 -1.93,47.24 10.37,65.59l13.7 0.07 -5.22 -6.33c-0.55,-0.54 -4.29,-3.83 -5.54,-4.65 3.57,-7.42 18.36,-10.81 6.83,-61.65l15.77 3.46c-1.59,-1.2 -7.27,-5.31 -8.34,-6.62 -7.03,-8.53 0.25,3.12 -6.25,-10.1 -14.2,-6.56 -9.37,-4.85 -21.66,2.3z"/>
   <path class="fil15" d="M12.84 277.04c12.14,-8.59 16.04,-18.84 44.91,-11.94l4.61 -11.79 -7.06 -23.21c4.1,-8.17 -2.63,-5.8 6.56,-11.56 -3.22,-16.74 1.24,3.04 11.3,-23.12 -23.51,9.83 -29.06,10 -39.6,32.61 -7.77,16.67 -15.68,28.56 -20.72,49z"/>
   <path class="fil26" d="M433.4 200.1c28.07,5.08 35.65,6.42 64.82,1.96 -5.71,-16.62 2.65,-5.37 -13.12,-12.29 -7.76,-3.41 -9.36,-0.02 -17.13,-0.4l-21.58 -3.01c-1.64,-16.62 0.82,-40.42 -1.14,-55.43l-15.77 -3.46c11.53,50.84 -3.27,54.23 -6.83,61.65 1.25,0.81 4.98,4.1 5.54,4.65l5.22 6.33z"/>
   <path class="fil27" d="M244.83 109.96l7.44 8.44 13.55 -0.69c18.66,2.79 29.15,6.61 48.64,3.56 0.72,-16.52 -0.41,-14.62 7.89,-26.08 7.26,-10.02 2.15,-7.99 16.99,-8.77l-6.29 -11.26c-21.68,10.15 -16.22,19.71 -45.67,22.41 -26.27,2.41 -3.52,-4.81 -23.06,3.08 -0.86,0.35 -19.16,9.08 -19.49,9.31z"/>
   <path class="fil28" d="M122.09 259.03c-9.7,8.09 -17.99,11.21 -27.15,25.75l-14.23 1.44 -1.17 6.41 16.11 -2.03 -3.8 15.52 11.81 3.76 -7.54 -17.45 20.78 6.33c3.14,-10.46 2.81,-8.04 7.48,-19.74l11.48 -3.14 10.06 9.33c14.12,-28.78 -5.97,-15.83 0.65,-41.2 3.89,-14.91 12.29,-12.06 17.41,-30.53l-9.79 1.76 1.35 14.41c-19.71,3.88 -12.28,3.31 -18.54,26.53l-14.91 2.85z"/>
   <path class="fil29" d="M250.63 344.63c5.74,14.3 -2.12,12.98 19.7,17.4l2.66 -3.74c-0.09,-0.16 -1.77,-0.82 -2.13,-1.64l-11.43 -1.56c0.84,-6.78 1.33,-20.13 2.14,-23.6 5.24,-22.51 2.6,-9.11 10.35,-16.95l-1.85 37.43c7.71,-10.49 5.72,-16.03 6.07,-31.7l3.43 -35.07c-3.77,-0.01 -9.3,0.81 -10.55,0.63 -18.54,-2.74 -5.68,-0.62 -12.96,-5.68l-8.13 -12.02 -4.83 0c9.89,26.4 3.13,47.63 7.52,76.5z"/>
   <path class="fil25" d="M449.55 244.8c-1.71,17.18 -7.8,15.24 -10.42,18.51l2.27 17.63 8.74 9.26 -6.19 32.13c56.73,0.26 41.96,-20.89 32.51,-55.14 3.35,13.12 -13.14,18.55 -14.59,18.91 -3.04,0.75 -37.45,2.01 -9.83,-26.74 10.25,-10.66 15.17,4.72 9.65,-20.04l-12.13 5.48z"/>
   <path class="fil27" d="M425.29 75.69c-6.08,9.72 12.03,7.34 -8.94,8.44 0.91,0.68 2.63,0.21 3.08,1.5 6.03,17.65 0.54,0.47 5.78,2.2 11.81,3.89 -4.98,-9.45 9.59,3.2 9.09,-2.55 12.06,-3.99 18.08,-7.72l18.13 -12.73 23.47 0.11 -3.85 -18.27c-20.45,7.77 -9.18,-2.6 -11.91,12.4 -1.47,-0.67 -3.05,-2.02 -4.07,-2.64l-6.61 -4.31c-7.8,-3.09 -9.74,3.5 -14.87,7.41 12.48,-51.82 1.79,-34.47 -3.46,-39.38 1.45,50.85 -6.74,25.71 -24.41,49.79z"/>
   <path class="fil30" d="M62.58 315.53c11.02,3.44 3.66,1.16 10.58,8.12 -18.49,16.22 1.49,-11.64 -6.37,8.16 -5.83,14.69 2.09,18.09 4.74,24.76l18.75 2.43c5.36,-29.53 -6.9,-11.93 10.05,-41.51 5.27,-9.2 2.22,-4.16 3.34,-7.6l-11.81 -3.76 -22.04 -1.75c-7.97,5.33 -3.99,1.79 -7.23,11.16z"/>
   <path class="fil31" d="M146.71 291.54c3.61,8.28 -2.74,5.15 7.23,9.63 7.04,11.94 10.46,15.01 12.28,27.88 25.51,-26.84 14.19,-75.07 20.71,-117.28 -15.24,19.49 -2.91,28.55 -7.46,56.05l-32.75 23.71z"/>
   <path class="fil0" d="M507.09 243.61c22.98,-5.92 26.59,-19.64 22.38,-47.67 -13.48,-4.44 -26.51,6.53 -31.1,16.84 -5.32,11.95 1.85,20.2 8.72,30.83z"/>
   <path class="fil23" d="M304.42 32.88c15.38,-3.4 17.93,28.36 21.46,35.11 7.63,-15.16 7.15,-16.35 4.22,-32.8l13.4 3.64c27.93,4.38 10.74,-1.48 16.42,-11.8l-43.1 -12.73 -16.58 -3.7c0.74,1.07 1.72,1.41 2.16,3.25l10.36 12.04c-8.33,10.97 5.04,1.02 -8.33,7z"/>
   <path class="fil0" d="M6.26 341.27c-9.71,33.09 12.71,37.91 41.97,45.01 -0.93,-1.09 -2.23,-4.22 -2.72,-3.33 -0.45,0.83 -1.86,-2.47 -2.49,-3.15 -0.58,-0.62 -1.77,-1.97 -2.47,-2.71l-12.04 -12.37c16.29,-10.12 2.83,3.83 13.29,-14.78l-1.63 -4.09c-16.74,-5.33 -11.17,-2.25 -20.83,-9.86l-13.07 5.3z"/>
   <path class="fil27" d="M343.5 38.83l10.99 2.03 -6.81 43.6c-0.48,1.33 -1.35,2.99 -1.78,4.12 -0.47,1.23 -1.19,3.02 -1.89,4.48l10.26 4.24c0.84,-41.02 8.43,-24.37 25.4,-42.67 13.25,-14.29 -8.25,12.37 4.21,-5.43 0.7,-1 1.38,-2.32 1.99,-3.28 0.65,-1.02 1.43,-2.7 1.95,-3.56 0.53,-0.89 1.31,-2.45 2.04,-3.63 -21.11,-2.86 -3.49,1.52 -20.64,-6.15 -4.93,-2.21 -6.29,-3.53 -9.31,-5.56 -5.68,10.33 11.51,16.19 -16.42,11.8z"/>
   <path class="fil32" d="M434.8 91.03l-23.99 14.64 -1.81 10.84c12.28,-7.14 7.46,-8.85 21.66,-2.3l14.1 1.78c6.71,-23.79 1.89,-10.14 21.97,-24.36l4.29 -21.05 -18.13 12.73c-6.03,3.73 -8.99,5.17 -18.08,7.72z"/>
   <path class="fil13" d="M461.68 239.32c5.52,24.76 0.6,9.38 -9.65,20.04 -27.63,28.75 6.79,27.49 9.83,26.74 1.45,-0.36 17.94,-5.79 14.59,-18.91l-9.7 -35.22c-7.03,0.21 -2.42,-8.18 -5.07,7.35z"/>
   <path class="fil9" d="M449.71 25.9c5.25,4.91 15.94,-12.44 3.46,39.38 5.13,-3.91 7.07,-10.5 14.87,-7.41l6.61 4.31c1.02,0.62 2.6,1.97 4.07,2.64 2.73,-15.01 -8.54,-4.63 11.91,-12.4 -6.54,-17.57 -1.53,-14.99 -13.79,-22.7 -9.26,-5.82 -21.14,-8.19 -31.8,-9.78l0 8.08 4.66 -2.13z"/>
   <path class="fil33" d="M154.19 215.24l9.79 -1.76 5.94 -13.44 17.93 1.9 -9.36 -5.25c16.38,2.46 9.69,2.23 25.65,4.86 -8.24,-19.26 -2.01,-11.79 -21.54,-20.44 -16.25,-7.2 -11.93,-11.86 -31.82,-7.3l1.51 7.74c7.85,3.36 10.2,4.9 17.58,10.11 -6.02,11.1 -6.36,8.45 -14.01,13.44l-1.66 10.14z"/>
   <path class="fil34" d="M434.39 250.63c-5.22,5.24 0.97,3.9 -10.33,2.92 -0.22,-0.02 -12.09,-4 -13.41,-4.41 0.46,12.7 -0.11,13.08 10.77,24.16l5.36 9.84c0.03,0.36 0.09,1.96 0.1,2.27 0.02,0.33 0,1.67 0.27,2.44 10.27,-3.13 6.81,-0.71 14.25,-6.92l-2.27 -17.63c2.62,-3.27 8.71,-1.34 10.42,-18.51 -6.77,2.49 -9.47,3.36 -15.16,5.84z"/>
   <path class="fil33" d="M339.13 169.73l-4.65 -3.55c-0.6,-0.31 -1.95,-1.1 -2.62,-1.4l-12.28 -2.57 -2.33 5.58c19.74,31.6 14.34,28.05 19.5,49.04l0.8 -43.07c16.42,13.22 12.66,-19.77 13.52,26.26 23.23,-11.44 10.26,5.93 20.59,-17.32l-32.53 -12.97z"/>
   <path class="fil35" d="M53.09 296.16l26.45 -3.53 1.17 -6.41 7.35 -24.29 -30.32 3.17c2.8,8.59 -9.64,7.16 4.22,7.21 -9.38,11.99 4.14,3.52 -11.53,4.8l7.86 7.37c-14.47,3 -0.07,-1.76 -5.2,11.68z"/>
   <path class="fil36" d="M40.16 345.83l1.63 4.09 4.56 1.78c11.02,3.94 -4.22,11.97 3.78,0.85l14.57 -0.16 6.83 4.17c-2.65,-6.67 -10.58,-10.07 -4.74,-24.76 7.86,-19.8 -12.11,8.06 6.37,-8.16 -6.92,-6.96 0.44,-4.68 -10.58,-8.12 -15.73,6.23 -20.62,12.79 -22.42,30.3z"/>
   <path class="fil37" d="M141.59 155.79l0.71 -4.44c17.93,8.13 8.75,-0.19 20.5,15.85l20.7 -8.92c7.74,-5.13 8.42,-10.01 12.34,-19.81l-46.48 4.34c-0.03,27.26 1.41,1.54 -7.77,12.98z"/>
   <path class="fil38" d="M88.07 261.93l-7.35 24.29 14.23 -1.44c9.16,-14.53 17.45,-17.66 27.15,-25.75l11.39 -7.27c-6.71,-8.07 10.22,-12.59 -11.47,-4.31 -5.05,2.05 -9.98,4.57 -16.11,7.47 -2.81,1.33 -5.92,2.85 -9.01,4.11 -7.98,3.27 -2.19,0.87 -8.83,2.9z"/>
   <path class="fil39" d="M138.5 222.55l15.7 -7.31 1.66 -10.14c7.66,-4.99 7.99,-2.34 14.01,-13.44 -7.37,-5.21 -9.73,-6.75 -17.58,-10.11 -3.3,13.86 -6.51,14.5 -19.81,19.31 3.88,10.27 -12,3.44 12.27,8.75l-6.24 12.94z"/>
   <path class="fil40" d="M270.35 259.75c7.44,15.64 10.41,4.45 -0.57,15.66 -5.23,5.34 -5.12,2.87 -13.72,4.74 7.27,5.05 -5.58,2.94 12.96,5.68 1.26,0.19 6.79,-0.64 10.55,-0.63 12.94,-19.52 8.7,-21.16 25.9,-37.41l-6.72 -0.43c-6.44,5.95 -13.83,10.82 -28.4,12.4z"/>
   <path class="fil41" d="M207.98 222.77c1.95,2.5 3.28,4.92 5.78,7.21 4.43,4.07 4.21,3.17 6.29,4.38 14.41,1.57 4.18,-5.43 12.69,5.07 16.77,4.21 8.22,0.53 20.91,14.05 3.78,-13.27 -4.4,-11.02 4.91,-12.54l-14.97 -2.36c-10.68,-2.91 -9.45,-9.61 -23.49,-19.44l-8.46 -18.5 -3.66 22.13z"/>
   <polygon class="fil42" points="53.09,296.16 41.01,302.78 69.81,304.37 91.86,306.12 95.65,290.59 79.54,292.62 "/>
   <path class="fil33" d="M138.5 222.55c-3.61,6.67 -3.29,5.43 -8.3,12.4l-8.18 12.51c21.68,-8.28 4.75,-3.76 11.47,4.31l-11.39 7.27 14.91 -2.85c6.26,-23.22 -1.17,-22.65 18.54,-26.53l-1.35 -14.41 -15.7 7.31z"/>
   <path class="fil40" d="M493.05 92.71c5.45,7.3 -0.07,-6.57 5.57,9.28 2.22,6.23 2.22,9.95 3.51,15.8l14.33 -1.08c-3.24,-7.14 -5.48,-13.71 -9.48,-22.99 -1.18,-2.73 -4.32,-10.37 -5.32,-12.32 -5.31,-10.43 -4.23,-7.46 -7.18,-10.72l-1.44 22.03z"/>
   <path class="fil43" d="M247.94 268.13l8.13 12.02c8.59,-1.87 8.48,0.6 13.72,-4.74 10.98,-11.21 8.01,-0.01 0.57,-15.66l0.67 1.29 -20.26 -4.34c-5.16,6.65 -7.57,-10.05 -2.83,11.43z"/>
   <path class="fil44" d="M449.55 244.8l12.13 -5.48c2.65,-15.53 -1.96,-7.14 5.07,-7.35l-0.22 -9.85c-3.51,-9.97 0.29,-6.17 -10.48,-10.9 -2.31,9.34 -4.23,12.99 -5.29,17.88 -4.01,18.44 -1.69,6.37 -1.21,15.71z"/>
   <path class="fil45" d="M445.04 28.03l0 -8.08 -31.16 -5.33 0 8.59c18.74,5.79 -10.32,-1.89 12.02,7.5 15.56,6.54 -0.57,1.3 19.14,-2.68z"/>
   <path class="fil46" d="M270.86 356.65l-0.79 -4.68 1.85 -37.43c-7.76,7.84 -5.11,-5.56 -10.35,16.95 -0.81,3.47 -1.29,16.82 -2.14,23.6l11.43 1.56z"/>
   <path class="fil42" d="M410.65 249.15c1.33,0.41 13.19,4.39 13.41,4.41 11.3,0.98 5.11,2.32 10.33,-2.92l0.75 -13.54c-24.34,6.34 -33.83,-6.03 -24.5,12.06z"/>
   <path class="fil32" d="M382.36 356.31c11.6,-6.33 3,-1.99 17.88,-4.94 0,-32.1 1.54,-4.76 -7.82,-16.31 -10.17,-6.88 -18.69,8.16 -19.38,8.94l15.76 0.85 -6.43 11.46z"/>
   <path class="fil47" d="M396.36 131.14l15.09 -2.11c-1.14,-0.73 -2.55,-3.89 -2.82,-2.94l0.36 -9.58 1.81 -10.84 -25.7 22.16c0.66,0.21 2.27,0.3 2.9,0.48 2.15,0.62 5,2.97 5.57,1.63 0.39,-0.9 1.92,0.67 2.79,1.19z"/>
   <path class="fil48" d="M153.93 301.17c-9.97,-4.48 -3.62,-1.35 -7.23,-9.63l-0.78 -6.34 -10.06 -9.33 -11.48 3.14c22.05,2.02 6.92,-0.44 12.51,5.65 -7.87,7.06 -2.7,7.02 -14.16,6.66 6.61,6.84 -4.54,12.45 22.88,2.4l8.32 7.45z"/>
   <path class="fil49" d="M115.58 152.66c11.64,4.88 16.69,-9.67 5.11,13.65 14.4,-1.49 9.61,-13.32 9.86,-30.53 -8.42,15.36 -2.58,9.92 -14.97,16.88z"/>
   <path class="fil50" d="M120.7 166.31c11.58,-23.32 6.52,-8.77 -5.11,-13.65l-9.87 4.97c11.79,8.4 2.52,3.37 14.98,8.68z"/>
   <polygon class="fil17" points="184.75,338.98 194,335.9 193.6,328.86 186.11,325.44 "/>
   <path class="fil23" d="M203.45 361.79l-4.25 -10.19c-0.87,0.99 -2.66,3.88 -2.86,2.74 -0.23,-1.28 -2.02,2.5 -1.91,3.75l9.03 3.7z"/>
  </g>
 </g>
</svg>
